<?xml version="1.0" encoding="utf-8"?>
<!-- Generator: Adobe Illustrator 26.0.3, SVG Export Plug-In . SVG Version: 6.00 Build 0)  -->
<svg version="1.0" id="katman_1" xmlns="http://www.w3.org/2000/svg" xmlns:xlink="http://www.w3.org/1999/xlink" x="0px" y="0px"
	 viewBox="0 0 600 450" style="enable-background:new 0 0 600 450;" xml:space="preserve">
<style type="text/css">
	.st0{fill:#1E1E1C;}
	.st1{fill:#6DB1E2;}
	.st2{fill:#FFFFFF;}
</style>
<path class="st0" d="M442.2,123.4H158.1c-55.6,0-100.7,45.1-100.7,100.7v2.6c0,55.6,45.1,100.7,100.7,100.7h284.1
	c55.6,0,100.7-45.1,100.7-100.7v-2.6C542.9,168.5,497.8,123.4,442.2,123.4z"/>
<path class="st1" d="M442.2,123.4H158.1c-55.6,0-100.7,45.1-100.7,100.7v2.6c0,55.6,45.1,100.7,100.7,100.7h284.1
	c55.6,0,100.7-45.1,100.7-100.7v-2.6C542.9,168.5,497.8,123.4,442.2,123.4z"/>
<path class="st2" d="M147.2,188.8c-7.6,0-15.1,2.3-21.5,6.5c-6.4,4.3-11.3,10.3-14.2,17.4c-2.9,7.1-3.7,14.8-2.2,22.3
	c1.5,7.5,5.2,14.4,10.6,19.8c5.4,5.4,12.3,9.1,19.8,10.6c7.5,1.5,15.3,0.7,22.3-2.2c7.1-2.9,13.1-7.9,17.4-14.2
	c4.2-6.4,6.5-13.8,6.5-21.5c0-10.3-4.1-20.1-11.3-27.3C167.3,192.9,157.5,188.8,147.2,188.8L147.2,188.8z M147.2,260.8
	c-6.6,0-13-2-18.5-5.6c-5.5-3.7-9.7-8.9-12.3-14.9c-2.5-6.1-3.2-12.8-1.9-19.2c1.3-6.5,4.5-12.4,9.1-17c4.7-4.7,10.6-7.8,17-9.1
	c6.5-1.3,13.1-0.6,19.2,1.9c6.1,2.5,11.3,6.8,14.9,12.3c3.7,5.5,5.6,11.9,5.6,18.5c0,8.8-3.5,17.3-9.8,23.5
	C164.5,257.2,156,260.7,147.2,260.8z M165.9,210.4c-0.3-0.2-0.6-0.3-1-0.4c-0.3-0.1-0.7-0.1-1.1,0c-0.3,0.1-0.7,0.2-1,0.4
	c-0.3,0.2-0.5,0.4-0.7,0.7l-21.9,32.2l-10-10.8c-0.5-0.5-1.2-0.8-1.9-0.8c-0.7,0-1.4,0.2-1.9,0.7c-0.5,0.5-0.8,1.1-0.9,1.8
	c0,0.7,0.2,1.4,0.7,1.9l12.3,13.3c0.3,0.3,0.6,0.5,0.9,0.6c0.3,0.2,0.7,0.2,1.1,0.2c0.1,0,0.1,0,0.2,0c0.4,0,0.8-0.2,1.1-0.4
	c0.4-0.2,0.7-0.5,0.9-0.8l23.8-35c0.2-0.3,0.3-0.6,0.4-1c0.1-0.3,0.1-0.7,0-1.1c-0.1-0.3-0.2-0.7-0.4-1
	C166.5,210.8,166.2,210.6,165.9,210.4L165.9,210.4z M255.2,204.9c0.8-1.7,1.2-3.4,1.4-5.3h-6.7c-0.2,0.9-0.5,1.8-0.9,2.7
	c-0.4,0.8-1,1.4-1.7,2c-0.7,0.6-1.4,1-2.3,1.3c-0.9,0.3-1.8,0.5-2.8,0.5c-1.2,0-2.4-0.3-3.5-0.8c-1.1-0.6-2-1.4-2.7-2.4
	c-0.8-1.2-1.4-2.5-1.7-3.8c-0.8-3.3-0.8-6.8,0-10.1c0.3-1.4,0.9-2.6,1.7-3.8c0.7-1,1.6-1.8,2.7-2.4c1.1-0.6,2.3-0.9,3.5-0.8
	c0.9,0,1.9,0.2,2.7,0.5c0.8,0.3,1.6,0.8,2.3,1.4c0.7,0.6,1.2,1.3,1.7,2.1c0.5,0.9,0.8,1.8,0.9,2.8h6.7c-0.1-1.8-0.6-3.7-1.3-5.3
	c-1.5-3.2-4.2-5.7-7.5-7c-1.7-0.7-3.6-1-5.5-1c-2.2,0-4.4,0.4-6.5,1.3c-1.9,0.8-3.6,2.1-4.9,3.7c-1.4,1.7-2.4,3.7-3.1,5.9
	c-1.4,5.1-1.4,10.5,0,15.6c0.6,2.1,1.7,4.1,3.1,5.9c1.3,1.6,3,2.9,4.9,3.7c3.8,1.6,8.1,1.7,12,0.3c1.6-0.6,3.1-1.5,4.4-2.7
	C253.4,207.8,254.5,206.4,255.2,204.9L255.2,204.9z M285.9,209c1.3-1.2,2.3-2.5,3-4.1c0.8-1.7,1.2-3.4,1.4-5.3h-6.7
	c-0.2,0.9-0.5,1.8-0.9,2.7c-0.4,0.8-1,1.4-1.6,2c-0.7,0.6-1.4,1-2.3,1.3c-0.9,0.3-1.8,0.5-2.8,0.5c-1.2,0-2.4-0.3-3.5-0.8
	c-1.1-0.6-2-1.4-2.7-2.4c-0.8-1.2-1.3-2.5-1.7-3.8c-0.8-3.3-0.8-6.8,0-10.1c0.3-1.4,0.9-2.6,1.7-3.8c0.7-1,1.6-1.8,2.7-2.4
	c1.1-0.6,2.3-0.9,3.5-0.8c0.9,0,1.9,0.2,2.7,0.5c0.8,0.3,1.6,0.8,2.3,1.4c0.7,0.6,1.2,1.3,1.7,2.1c0.5,0.9,0.8,1.8,0.9,2.8h6.7
	c-0.1-1.8-0.6-3.7-1.3-5.3c-1.5-3.2-4.2-5.7-7.5-7c-1.7-0.7-3.6-1-5.5-1c-2.2,0-4.4,0.4-6.5,1.3c-1.9,0.8-3.6,2.1-4.9,3.7
	c-1.4,1.7-2.4,3.7-3.1,5.9c-1.4,5.1-1.4,10.5,0,15.6c0.6,2.1,1.7,4.1,3.1,5.9c1.3,1.6,3,2.9,4.9,3.7c3.8,1.6,8.1,1.7,12,0.3
	C283.2,211.1,284.7,210.2,285.9,209L285.9,209z M317.8,179.6c-1-1.1-2.2-1.9-3.6-2.5c-1.5-0.6-3-0.9-4.6-0.9h-13.8v35.5h6.9v-11h6.5
	c1.6,0,3.3-0.3,4.8-0.9c1.4-0.6,2.7-1.4,3.7-2.5c1.1-1.1,1.9-2.4,2.4-3.9c0.6-1.6,0.9-3.3,0.9-5c0-1.7-0.3-3.4-0.8-5
	C319.6,182,318.8,180.7,317.8,179.6L317.8,179.6z M312.3,193.1c-1.3,1.1-2.9,1.7-4.6,1.6h-5v-12.3h5c0.8-0.1,1.7,0.1,2.5,0.3
	c0.8,0.3,1.5,0.7,2.2,1.2c0.6,0.6,1,1.3,1.3,2.1c0.3,0.8,0.4,1.6,0.3,2.5c0.1,0.8-0.1,1.7-0.3,2.5
	C313.3,191.7,312.9,192.5,312.3,193.1L312.3,193.1z M341.8,176.2h-8.1l-11.5,35.5h7.3l1.9-6.7H344l1.9,6.7h7.3L341.8,176.2z
	 M333.4,198.6l4.4-15.1l4.4,15.1H333.4z M237.7,270.7c-1.2,0-2.4-0.3-3.5-0.9c-1-0.6-1.8-1.5-2.3-2.5c-0.5-1.2-0.8-2.5-0.8-3.8v-4.3
	c-0.1-2,0.5-3.9,1.7-5.5c0.6-0.7,1.4-1.2,2.2-1.6c0.8-0.3,1.8-0.5,2.7-0.4c0.9,0,1.8,0.1,2.6,0.4c0.7,0.2,1.2,0.6,1.7,1.1
	c0.4,0.4,0.7,0.8,0.9,1.3c0.2,0.4,0.3,0.8,0.4,1.2h3.8c-0.1-1-0.3-2-0.8-2.8c-0.4-0.9-1.1-1.7-1.8-2.3c-2.1-1.6-4.7-2.4-7.3-2.2
	c-2.6,0.1-5.1,1.2-7.1,2.9c-1.9,2.1-2.9,5-2.8,7.8v4.4c-0.1,2.9,0.8,5.7,2.8,7.9c1,1,2.1,1.8,3.4,2.3c1.3,0.5,2.7,0.7,4.1,0.7
	c2.5,0.2,5-0.6,7-2.1c0.8-0.6,1.4-1.3,1.8-2.2c0.4-0.9,0.7-1.8,0.8-2.7h-3.8C242.9,269.6,241,270.7,237.7,270.7z M262.8,248.4
	c-1.4,0-2.8,0.2-4.1,0.7c-1.3,0.5-2.5,1.3-3.5,2.3c-1,1-1.8,2.3-2.3,3.7c-0.5,1.4-0.7,2.8-0.7,4.3v4c-0.1,1.5,0.1,2.9,0.6,4.3
	c0.5,1.4,1.3,2.7,2.3,3.7c2.1,1.9,4.8,2.9,7.7,2.9c2.8,0,5.6-1,7.7-2.9c1-1.1,1.8-2.3,2.3-3.7c0.5-1.4,0.7-2.9,0.7-4.3v-4
	c0.1-1.5-0.1-2.9-0.6-4.3c-0.5-1.4-1.3-2.6-2.3-3.7c-1-1-2.2-1.7-3.5-2.2C265.6,248.5,264.2,248.3,262.8,248.4L262.8,248.4z
	 M269.7,262.9c0.1,2.1-0.5,4.2-1.8,5.9c-0.6,0.7-1.4,1.3-2.3,1.7c-0.9,0.4-1.8,0.5-2.8,0.5c-1.3,0-2.6-0.3-3.7-1
	c-1.1-0.7-1.9-1.6-2.4-2.8c-0.6-1.3-0.9-2.8-0.8-4.3v-3.1c-0.1-2.1,0.6-4.2,1.9-5.8c0.6-0.7,1.4-1.3,2.3-1.7
	c0.9-0.4,1.8-0.6,2.8-0.5c0.9,0,1.9,0.1,2.7,0.5c0.9,0.4,1.6,0.9,2.2,1.7c1.3,1.7,2,3.7,1.9,5.9L269.7,262.9z M305.6,248.4
	c-1.7-0.1-3.4,0.4-4.8,1.3c-1.2,0.8-2.2,2-2.8,3.4h-0.2c-0.2-0.7-0.5-1.3-0.9-1.9c-0.9-1.2-2.1-2.1-3.5-2.5
	c-0.8-0.3-1.7-0.4-2.6-0.4c-3.5,0-5.8,1.5-6.8,4.4h-0.2v-4h-3.7v25.1h3.7v-16.2c0-0.8,0.1-1.6,0.4-2.3c0.3-0.7,0.7-1.4,1.2-2
	c1.1-1.1,2.6-1.7,4.1-1.7c1.5,0,3,0.5,4.1,1.6c0.5,0.6,0.9,1.2,1.2,1.9c0.3,0.7,0.4,1.5,0.3,2.2v16.5h3.7v-16.2
	c0-0.8,0.1-1.6,0.4-2.3c0.3-0.7,0.7-1.4,1.3-2c0.5-0.6,1.2-1,1.9-1.3c0.7-0.3,1.5-0.4,2.3-0.4c0.7,0,1.5,0.1,2.2,0.3
	c0.7,0.3,1.3,0.7,1.9,1.2c1,1.1,1.5,2.5,1.4,4v16.8h3.8v-17.7c0.1-1.1-0.1-2.1-0.5-3.1c-0.4-1-1-1.9-1.7-2.7
	C310,249,307.9,248.2,305.6,248.4L305.6,248.4z M411.4,248.4c-4,0-6.5,1.7-7.6,5h-0.2v-4.6h-3.7v25.1h3.7v-14.1
	c-0.1-2.1,0.5-4.2,1.8-5.9c0.6-0.8,1.4-1.4,2.3-1.8c0.9-0.4,1.9-0.6,2.9-0.5c0.8,0,1.5,0.1,2.3,0.3c0.7,0.3,1.4,0.7,1.9,1.2
	c1.1,1.3,1.6,2.9,1.5,4.6v16h3.8v-17.2c0.1-1.1-0.1-2.3-0.5-3.3c-0.4-1.1-1-2-1.8-2.8C415.9,249,413.7,248.2,411.4,248.4
	L411.4,248.4z M382.9,248.4c-2.3-0.1-4.5,0.5-6.4,1.6c-0.8,0.5-1.4,1.2-1.9,2.1c-0.5,0.8-0.7,1.8-0.8,2.7h3.6c0.6-2,2.4-3,5.3-3
	c1.5-0.1,2.9,0.3,4.1,1.2c0.5,0.5,0.9,1,1.2,1.7c0.3,0.6,0.4,1.3,0.3,2v2.6h-6.7c-1.7,0-3.3,0.3-4.8,0.9c-1.2,0.5-2.3,1.4-3,2.6
	c-0.7,1.2-1,2.5-1,3.8c0,1.1,0.2,2.2,0.6,3.2c0.4,0.9,0.9,1.7,1.7,2.4c0.8,0.7,1.6,1.2,2.6,1.6c1.1,0.4,2.2,0.6,3.3,0.6
	c1.4,0.1,2.9-0.2,4.2-0.9c1.3-0.7,2.4-1.7,3.1-2.9h0.1v3.4h3.7v-17.2c0.1-1.2-0.1-2.3-0.5-3.4c-0.4-1.1-1.1-2.1-2-2.8
	C387.6,249,385.3,248.3,382.9,248.4L382.9,248.4z M388.3,265.3c0,0.8-0.1,1.5-0.5,2.3c-0.3,0.7-0.8,1.3-1.4,1.9
	c-1.2,1.1-2.9,1.7-4.5,1.6c-1.3,0-2.6-0.4-3.7-1.2c-0.5-0.4-0.8-0.9-1.1-1.4c-0.3-0.5-0.4-1.1-0.4-1.7c0-0.6,0.1-1.2,0.3-1.7
	c0.2-0.6,0.5-1.1,0.9-1.5c1.1-0.8,2.4-1.3,3.8-1.1h6.6L388.3,265.3z M436.8,270.7c-1.2,0-2.4-0.3-3.5-0.9c-1-0.6-1.8-1.5-2.3-2.5
	c-0.5-1.2-0.8-2.5-0.8-3.8v-4.3c-0.1-2,0.5-3.9,1.7-5.5c0.6-0.7,1.4-1.2,2.2-1.6c0.8-0.3,1.8-0.5,2.7-0.4c0.9,0,1.8,0.1,2.6,0.4
	c0.7,0.2,1.2,0.6,1.7,1.1c0.3,0.4,0.6,0.8,0.9,1.3c0.2,0.4,0.3,0.8,0.4,1.2h3.8c-0.1-1-0.3-2-0.8-2.8c-0.4-0.9-1.1-1.7-1.8-2.3
	c-2.1-1.6-4.7-2.4-7.3-2.2c-2.6,0.1-5.1,1.2-7.1,2.9c-1.9,2.1-2.9,5-2.8,7.8v4.4c-0.1,2.9,0.8,5.7,2.8,7.9c1,1,2.1,1.8,3.4,2.3
	c1.3,0.5,2.7,0.7,4.1,0.7c2.5,0.2,5-0.6,7-2.1c0.8-0.6,1.4-1.3,1.8-2.2c0.4-0.9,0.7-1.8,0.8-2.7h-3.8
	C442,269.6,440,270.7,436.8,270.7z M471.7,262.3v-3.1c0.1-1.4-0.1-2.9-0.6-4.2c-0.5-1.4-1.2-2.6-2.2-3.7c-2-1.9-4.6-3-7.4-3
	c-2.7,0-5.4,1.1-7.4,3c-1,1.1-1.7,2.3-2.2,3.7c-0.5,1.4-0.7,2.8-0.6,4.2v4.1c-0.2,2.9,0.8,5.8,2.8,8c1,1,2.2,1.8,3.5,2.3
	c1.3,0.5,2.7,0.7,4.2,0.7c1.4,0,2.7-0.2,4-0.6c1.1-0.3,2.1-0.9,2.9-1.6c0.7-0.6,1.3-1.3,1.8-2c0.4-0.6,0.7-1.4,0.8-2.1h-4
	c-0.3,0.9-1,1.7-1.9,2.1c-1.1,0.6-2.4,0.9-3.7,0.9c-0.9,0-1.8-0.1-2.7-0.5s-1.6-0.9-2.2-1.6c-1.2-1.5-1.8-3.3-1.8-5.2v-1.3H471.7z
	 M455,259c-0.1-1.9,0.5-3.8,1.8-5.3c0.6-0.7,1.3-1.2,2.1-1.5c0.8-0.3,1.7-0.5,2.5-0.5c1.2,0,2.4,0.3,3.4,0.9c1,0.6,1.8,1.5,2.3,2.6
	c0.6,1.2,0.8,2.5,0.8,3.9v0.4H455V259z M362,273.9h3.8v-25.1H362V273.9z M349.6,273.9h3.8v-34.4h-3.8V273.9z M363.8,238.1
	c-0.4,0-0.7,0.1-1.1,0.2c-0.3,0.1-0.7,0.3-0.9,0.6c-0.3,0.3-0.5,0.6-0.6,0.9c-0.1,0.3-0.2,0.7-0.2,1.1c0,0.4,0.1,0.7,0.2,1.1
	c0.1,0.3,0.4,0.7,0.6,0.9c0.3,0.3,0.6,0.5,0.9,0.6c0.3,0.1,0.7,0.2,1.1,0.2c0.5,0,1-0.1,1.4-0.3c0.4-0.2,0.8-0.6,1-1
	c0.3-0.5,0.4-1,0.4-1.5c0-0.4-0.1-0.7-0.2-1.1c-0.1-0.3-0.3-0.7-0.6-0.9c-0.3-0.3-0.6-0.5-0.9-0.6
	C364.6,238.2,364.2,238.1,363.8,238.1L363.8,238.1z M333.1,248.4c-1.7-0.1-3.4,0.4-4.9,1.3c-1.2,0.7-2.1,1.8-2.6,3.1h-0.2v-4h-3.6
	v33.9h3.8v-12.5h0.2c1.2,2.8,3.6,4.1,7.2,4.1c1.3,0.1,2.7-0.2,3.9-0.7c1.2-0.5,2.3-1.2,3.3-2.2c1.9-2.2,2.8-4.9,2.7-7.8V259
	c0.2-2.8-0.8-5.6-2.6-7.8c-0.9-1-2-1.7-3.2-2.2C335.7,248.5,334.4,248.3,333.1,248.4L333.1,248.4z M339,262.7
	c0.2,2.2-0.5,4.4-1.8,6.1c-0.6,0.7-1.3,1.2-2.2,1.6c-0.8,0.4-1.7,0.5-2.6,0.5c-0.9,0-1.8-0.1-2.7-0.5c-0.9-0.3-1.6-0.9-2.3-1.5
	c-0.6-0.7-1.1-1.5-1.4-2.3c-0.3-0.9-0.5-1.8-0.4-2.7v-4.7c-0.1-2,0.5-4,1.8-5.5c0.6-0.7,1.4-1.2,2.2-1.6c0.9-0.3,1.8-0.5,2.7-0.5
	c0.9,0,1.9,0.1,2.7,0.5c0.9,0.4,1.6,0.9,2.2,1.6c1.3,1.8,1.9,3.9,1.8,6.1V262.7z M456,221.8c1.9,0,3.7-0.8,5.1-2.1
	c1.3-1.3,2.1-3.2,2.1-5.1v-36c0-1.9-0.8-3.7-2.1-5.1c-1.3-1.3-3.2-2.1-5.1-2.1h-1.1c0.1-0.8,0.2-1.7,0.2-2.5v-7.2
	c0-5.7-2.3-11.2-6.3-15.3c-4-4-9.5-6.3-15.3-6.3h-8.9c-5.7,0-11.2,2.3-15.3,6.3c-4,4-6.3,9.5-6.3,15.3v7.2c0,0.8,0.1,1.7,0.2,2.5
	H402c-1.9,0-3.7,0.8-5.1,2.1c-1.3,1.3-2.1,3.2-2.1,5.1v36c0,1.9,0.8,3.7,2.1,5.1c1.3,1.3,3.2,2.1,5.1,2.1H456z M433.5,198.3v10.4
	c0,1.2-0.5,2.3-1.3,3.2c-0.8,0.8-2,1.3-3.2,1.3c-1.2,0-2.3-0.5-3.2-1.3c-0.8-0.8-1.3-2-1.3-3.2v-10.4c-1.7-1-3.1-2.5-3.8-4.3
	c-0.8-1.8-0.9-3.9-0.4-5.8c0.5-1.9,1.6-3.6,3.2-4.8c1.6-1.2,3.5-1.9,5.5-1.9c2,0,3.9,0.7,5.5,1.9c1.6,1.2,2.7,2.9,3.2,4.8
	c0.5,1.9,0.4,3.9-0.4,5.8C436.5,195.7,435.2,197.3,433.5,198.3L433.5,198.3z M410.2,161.7c0-3.8,1.5-7.5,4.2-10.2
	c2.7-2.7,6.4-4.2,10.2-4.2h8.9c3.8,0,7.5,1.5,10.2,4.2c2.7,2.7,4.2,6.4,4.2,10.2v7.2c0,0.8-0.1,1.7-0.2,2.5h-37.2
	c-0.2-0.8-0.2-1.7-0.2-2.5V161.7z"/>
</svg>
