<svg width="32" height="32" viewBox="0 0 32 32" fill="none" xmlns="http://www.w3.org/2000/svg">
<mask id="mask0_1784_11286" style="mask-type:alpha" maskUnits="userSpaceOnUse" x="0" y="0" width="32" height="32">
<rect width="32" height="32" fill="#D9D9D9"/>
</mask>
<g mask="url(#mask0_1784_11286)">
<path d="M16.0013 29.3346C14.1717 29.3346 12.4459 28.9846 10.8236 28.2846C9.20141 27.5846 7.78652 26.631 6.57897 25.4236C5.37164 24.2161 4.41797 22.8012 3.71797 21.179C3.01797 19.5567 2.66797 17.8309 2.66797 16.0013C2.66797 14.1569 3.01797 12.4235 3.71797 10.8013C4.41797 9.17908 5.37164 7.76797 6.57897 6.56797C7.78652 5.36797 9.20141 4.41797 10.8236 3.71797C12.4459 3.01797 14.1717 2.66797 16.0013 2.66797C17.8457 2.66797 19.5791 3.01797 21.2013 3.71797C22.8235 4.41797 24.2346 5.36797 25.4346 6.56797C26.6346 7.76797 27.5846 9.17908 28.2846 10.8013C28.9846 12.4235 29.3346 14.1569 29.3346 16.0013C29.3346 17.8309 28.9846 19.5567 28.2846 21.179C27.5846 22.8012 26.6346 24.2161 25.4346 25.4236C24.2346 26.631 22.8235 27.5846 21.2013 28.2846C19.5791 28.9846 17.8457 29.3346 16.0013 29.3346Z" fill="white"/>
<path d="M14.068 22.0903L23.4903 12.668L21.8456 11.0456L14.068 18.8236L10.1346 14.8903L8.5123 16.5123L14.068 22.0903ZM16.0013 29.3346C14.1717 29.3346 12.4459 28.9846 10.8236 28.2846C9.20141 27.5846 7.78652 26.631 6.57897 25.4236C5.37164 24.2161 4.41797 22.8012 3.71797 21.179C3.01797 19.5567 2.66797 17.8309 2.66797 16.0013C2.66797 14.1569 3.01797 12.4235 3.71797 10.8013C4.41797 9.17908 5.37164 7.76797 6.57897 6.56797C7.78652 5.36797 9.20141 4.41797 10.8236 3.71797C12.4459 3.01797 14.1717 2.66797 16.0013 2.66797C17.8457 2.66797 19.5791 3.01797 21.2013 3.71797C22.8235 4.41797 24.2346 5.36797 25.4346 6.56797C26.6346 7.76797 27.5846 9.17908 28.2846 10.8013C28.9846 12.4235 29.3346 14.1569 29.3346 16.0013C29.3346 17.8309 28.9846 19.5567 28.2846 21.179C27.5846 22.8012 26.6346 24.2161 25.4346 25.4236C24.2346 26.631 22.8235 27.5846 21.2013 28.2846C19.5791 28.9846 17.8457 29.3346 16.0013 29.3346Z" fill="#42AD52"/>
</g>
</svg>
