<svg width="170" height="56" viewBox="0 0 170 56" fill="none" xmlns="http://www.w3.org/2000/svg">
<path d="M16.2835 10.1828H19.8659C22.1456 9.86106 24.4253 10.1828 26.3793 11.1481C29.3103 12.4351 31.2644 15.0091 31.9157 17.9049C32.5671 19.5137 32.567 19.5137 33.8697 18.8702H34.8467V6.64351H0V8.8958H1.30268C2.60536 8.8958 3.90805 9.5393 4.55939 10.5046C6.18774 12.4351 6.18774 15.0091 6.18774 27.2358C6.18774 40.4278 5.86207 43.6453 4.55939 45.2541C3.90805 46.2194 2.93103 46.5411 1.95402 46.5411C0 47.1846 0 47.1846 0 47.8282C0 48.1499 0 48.4717 0 48.7934H22.1456C22.4713 48.1499 22.4713 47.5064 22.1456 46.8629C21.4943 46.8629 21.1686 46.5411 20.5172 46.5411C19.8659 46.5411 19.2146 46.2194 18.8889 46.2194C17.2605 44.9324 16.2835 43.0018 16.6092 41.0713C15.9579 38.819 15.9579 34.958 15.9579 31.7404V29.1664H17.2605C18.8889 29.1664 20.5172 29.1664 22.1456 29.8099C23.7739 30.7751 24.751 32.3839 25.0766 33.9927V34.958H27.0307V20.8007H25.0766V22.0877C24.751 24.0183 23.7739 25.3053 22.1456 26.2706C21.1686 26.5923 20.5172 26.5923 19.5402 26.5923H15.9579V23.053C15.9579 19.5137 16.2835 11.7916 16.2835 10.5046V10.1828ZM168.697 35.6015C167.069 33.0274 164.789 31.4186 161.858 30.4534C159.579 29.8099 157.625 28.8446 155.996 27.2358C155.345 26.5923 155.019 25.3053 155.019 24.34C155.019 23.3748 155.345 22.4095 156.322 21.766C157.299 20.8007 158.927 20.479 160.23 20.8007C163.161 21.766 165.441 24.0183 166.092 26.9141C166.743 28.2011 166.743 28.2011 167.72 27.8793L168.372 27.5576V19.5137L168.046 19.192C164.789 18.2267 161.533 17.5832 157.95 17.9049C155.019 17.9049 152.088 19.192 150.134 21.1225C148.18 23.053 147.203 25.3053 147.203 28.2011C147.203 30.1316 147.854 32.0622 149.483 33.3492C151.111 34.958 153.065 35.9232 155.019 36.5667C159.904 38.4973 161.533 39.7843 161.533 42.0366C161.533 43.9671 160.23 45.8976 158.276 46.2194C157.299 46.5411 155.996 46.5411 154.693 46.2194C151.762 44.9324 149.483 42.6801 148.506 39.4625L148.18 38.4973H147.529C147.203 38.4973 146.877 38.4973 146.877 38.819H146.552V47.8282H147.203C149.483 48.4717 151.762 49.1152 154.042 49.4369H157.299C158.602 49.4369 160.23 49.4369 161.533 49.1152C165.115 48.4717 168.046 45.8976 169.349 42.6801C169.674 41.7148 170 40.7495 170 39.7843C169.674 38.1755 169.349 36.8885 168.697 35.6015ZM138.084 18.8702C134.176 17.2614 129.617 17.2614 125.709 19.192C122.126 20.8007 119.521 24.0183 118.218 27.8793C117.567 29.8099 117.241 32.0622 117.241 34.3144C117.241 35.6015 117.241 36.5667 117.567 37.8537C118.544 43.6453 123.429 48.4717 129.291 49.4369C131.245 49.7587 133.199 49.7587 135.153 49.4369C137.107 49.1152 139.061 48.4717 140.69 47.5064C141.992 46.8629 143.295 45.5759 144.272 44.2888C144.272 43.9671 143.946 43.6453 143.621 43.3236C143.295 43.3236 142.969 43.6453 142.644 43.9671C141.015 44.9324 139.061 45.5759 137.107 45.5759C134.502 45.8976 131.897 44.6106 130.268 43.0018C129.617 42.3583 128.966 41.7148 128.64 40.7495C127.663 38.819 127.011 36.5667 127.011 34.3144V32.7057H144.923V32.0622C144.923 31.4186 144.923 30.7751 144.923 30.1316C144.598 25.6271 141.992 21.1225 138.084 18.8702ZM128.966 30.1316H126.686V28.2011C127.337 23.3748 129.291 20.479 131.571 20.479C133.851 20.479 134.828 23.3748 135.153 28.5229V30.1316H133.199H128.966ZM82.069 17.9049C81.092 17.9049 79.7893 18.2267 78.8123 18.5484C76.5326 19.5137 74.9042 21.4442 73.9272 23.6965L73.6015 24.34V17.9049H73.2759C72.9502 17.9049 60.9004 20.1572 60.5747 20.479C60.249 20.8007 60.249 20.8007 60.249 21.1225C60.249 21.4442 60.249 21.766 60.5747 21.766L61.5517 22.0877C62.2031 22.0877 62.8544 22.4095 63.5057 23.053C64.1571 24.0183 64.4828 25.9488 64.4828 33.9927C64.4828 37.532 64.4828 41.0713 64.1571 44.6106C63.8314 45.5759 63.1801 46.5411 61.8774 46.5411L60.9004 46.8629H60.5747V47.8282C60.5747 48.1499 60.5747 48.4717 60.5747 48.7934H78.8123V47.8282C78.8123 47.5064 78.8123 47.1846 78.8123 46.8629C77.8352 46.8629 76.5326 46.5411 75.5556 46.5411C74.2529 45.8976 73.6015 44.6106 73.9272 43.3236C73.2759 41.3931 72.9502 35.9232 73.2759 31.7404C73.6015 27.5576 73.2759 27.2358 73.6015 26.9141C74.5785 25.9488 75.8812 25.6271 77.5096 25.6271C78.8123 25.6271 80.1149 25.9488 81.092 26.5923C81.4176 26.9141 82.069 26.9141 82.3946 27.2358C82.3946 27.2358 85.6513 19.5137 85.6513 19.192C84.6743 18.2267 83.3717 17.5832 82.069 17.9049ZM60.249 31.4186C59.9234 26.9141 57.6437 22.4095 53.41 19.8355C48.5249 17.2614 42.9885 17.2614 38.1034 19.5137C34.8467 21.1225 32.2414 24.34 30.9387 27.8793C29.636 32.0622 29.636 36.245 30.9387 40.106C31.59 42.3583 32.8927 44.2888 34.5211 45.8976C36.4751 47.8282 39.0805 49.1152 42.0115 49.4369C43.9655 49.4369 45.5939 49.4369 47.5479 49.4369C48.1992 49.4369 48.8506 49.1152 49.5019 49.1152C55.0383 47.5064 58.9464 43.3236 59.9234 37.532C60.249 35.6015 60.249 33.6709 60.249 31.4186ZM46.5709 47.5064C43.3142 48.4717 40.7088 45.2541 40.0575 38.819C39.7318 35.2797 39.7318 32.0622 40.0575 28.5229C40.7088 23.3748 42.3372 20.479 44.9425 20.479C45.9195 20.479 46.8966 20.8007 47.5479 21.766C49.8276 24.0183 50.8046 28.2011 50.8046 34.6362C51.1303 38.1755 50.4789 42.0366 49.1762 45.2541C48.8506 46.2194 47.8736 46.8629 46.5709 47.5064ZM105.192 18.5484C104.215 18.5484 103.238 18.5484 102.586 18.5484C100.958 18.5484 99.0038 18.8702 97.3755 19.5137L96.3985 19.8355V13.0786C96.7241 10.8263 96.7241 8.25229 96.3985 6C96.0728 6 83.6973 8.25229 83.3716 8.57404C83.3716 8.8958 83.3716 9.21755 83.3716 9.21755C83.3716 9.86106 83.3716 9.86106 85 10.1828C85.3257 10.1828 85.6513 10.5046 86.3027 10.5046C86.954 11.1481 87.2797 11.7916 87.6054 12.7569C87.931 15.3309 88.2567 17.5832 87.931 20.1572V48.4717L88.908 48.7934C90.2107 49.1152 93.7931 49.7587 95.0958 49.7587C97.3755 50.0804 99.9808 50.0804 102.261 49.7587C107.797 49.1152 112.356 45.5759 114.31 40.7495C114.962 39.1408 115.287 37.532 115.613 35.9232C115.939 33.6709 115.613 31.4186 115.287 29.1664C114.31 23.6965 110.402 19.5137 105.192 18.5484ZM96.7241 46.8629C96.7241 46.5411 96.3985 32.3839 96.3985 26.5923V22.4095L97.3755 22.0877C98.0268 22.0877 98.6782 22.0877 99.3295 22.0877C99.9808 22.0877 100.632 22.0878 101.284 22.4095C103.889 24.0183 105.192 26.9141 105.517 29.8099C105.843 32.0622 105.843 34.6362 105.517 36.8885C105.192 40.4278 103.889 43.6453 101.609 46.2194C100.958 46.8629 100.307 47.1846 99.3295 47.5064C98.6782 47.5064 98.0268 47.5064 97.3755 47.5064C96.7241 47.5064 96.7241 47.1846 96.7241 46.8629Z" fill="#212121"/>
</svg>
