<svg width="201" height="56" viewBox="0 0 201 56" fill="none" xmlns="http://www.w3.org/2000/svg">
<path d="M19.2529 6.94333H23.4885C26.1839 6.56307 28.8793 6.94333 31.1897 8.0841C34.6552 9.60512 36.9655 12.6472 37.7356 16.0695C38.5057 17.9707 38.5057 17.9707 40.046 17.2102H41.2011V2.76051H0V5.4223H1.54023C3.08046 5.4223 4.62069 6.18282 5.3908 7.32358C7.31609 9.60512 7.31609 12.6472 7.31609 27.0969C7.31609 42.6874 6.93103 46.4899 5.3908 48.3912C4.62069 49.532 3.46552 49.9123 2.31034 49.9123C0 50.6728 0 50.6728 0 51.4333C0 51.8135 0 52.1938 0 52.574H26.1839C26.569 51.8135 26.569 51.053 26.1839 50.2925C25.4138 50.2925 25.0287 49.9123 24.2586 49.9123C23.4885 49.9123 22.7184 49.532 22.3333 49.532C20.408 48.011 19.2529 45.7294 19.6379 43.4479C18.8678 40.7861 18.8678 36.223 18.8678 32.4205V29.3784H20.408C22.3333 29.3784 24.2586 29.3784 26.1839 30.1389C28.1092 31.2797 29.2644 33.181 29.6494 35.0823V36.223H31.9598V19.4918H29.6494V21.0128C29.2644 23.2943 28.1092 24.8154 26.1839 25.9561C25.0287 26.3364 24.2586 26.3364 23.1034 26.3364H18.8678V22.1536C18.8678 17.9707 19.2529 8.84461 19.2529 7.32358V6.94333ZM199.46 36.9835C197.534 33.9415 194.839 32.0402 191.374 30.8995C188.678 30.1389 186.368 28.9982 184.443 27.0969C183.672 26.3364 183.287 24.8154 183.287 23.6746C183.287 22.5338 183.672 21.3931 184.828 20.6325C185.983 19.4918 187.908 19.1115 189.448 19.4918C192.914 20.6325 195.609 23.2943 196.379 26.7166C197.149 28.2377 197.149 28.2377 198.305 27.8574L199.075 27.4771V17.9707L198.69 17.5905C194.839 16.4497 190.988 15.6892 186.753 16.0695C183.287 16.0695 179.822 17.5905 177.511 19.872C175.201 22.1536 174.046 24.8154 174.046 28.2377C174.046 30.5192 174.816 32.8007 176.741 34.3218C178.667 36.223 180.977 37.3638 183.287 38.1243C189.063 40.4058 190.988 41.9269 190.988 44.5887C190.988 46.8702 189.448 49.1517 187.138 49.532C185.983 49.9122 184.443 49.9122 182.902 49.532C179.437 48.011 176.741 45.3492 175.586 41.5466L175.201 40.4059H174.431C174.046 40.4059 173.661 40.4058 173.661 40.7861H173.276V51.4333H174.046C176.741 52.1938 179.437 52.9543 182.132 53.3346H185.983C187.523 53.3346 189.448 53.3346 190.988 52.9543C195.224 52.1938 198.69 49.1517 200.23 45.3492C200.615 44.2084 201 43.0676 201 41.9269C200.615 40.0256 200.23 38.5046 199.46 36.9835ZM163.264 17.2102C158.644 15.309 153.253 15.309 148.632 17.5905C144.397 19.4918 141.316 23.2943 139.776 27.8574C139.006 30.1389 138.621 32.8007 138.621 35.4625C138.621 36.9835 138.621 38.1243 139.006 39.6453C140.161 46.4899 145.937 52.1938 152.868 53.3346C155.178 53.7148 157.489 53.7148 159.799 53.3346C162.109 52.9543 164.42 52.1938 166.345 51.053C167.885 50.2925 169.425 48.7715 170.58 47.2505C170.58 46.8702 170.195 46.4899 169.81 46.1097C169.425 46.1097 169.04 46.4899 168.655 46.8702C166.73 48.011 164.42 48.7715 162.109 48.7715C159.029 49.1517 155.948 47.6307 154.023 45.7294C153.253 44.9689 152.483 44.2084 152.098 43.0676C150.943 40.7861 150.172 38.1243 150.172 35.4625V33.5612H171.351V32.8007C171.351 32.0402 171.351 31.2797 171.351 30.5192C170.966 25.1956 167.885 19.872 163.264 17.2102ZM152.483 30.5192H149.787V28.2377C150.557 22.5338 152.868 19.1115 155.563 19.1115C158.259 19.1115 159.414 22.5338 159.799 28.6179V30.5192H157.488H152.483ZM97.0345 16.0695C95.8793 16.0695 94.3391 16.4497 93.1839 16.83C90.4885 17.9707 88.5632 20.2523 87.408 22.9141L87.023 23.6746V16.0695H86.6379C86.2529 16.0695 72.0057 18.7313 71.6207 19.1115C71.2356 19.4918 71.2356 19.4918 71.2356 19.872C71.2356 20.2523 71.2356 20.6325 71.6207 20.6325L72.7759 21.0128C73.546 21.0128 74.3161 21.3931 75.0862 22.1536C75.8563 23.2943 76.2414 25.5759 76.2414 35.0823C76.2414 39.2651 76.2414 43.4479 75.8563 47.6307C75.4713 48.7715 74.7011 49.9123 73.1609 49.9123L72.0057 50.2925H71.6207V51.4333C71.6207 51.8135 71.6207 52.1938 71.6207 52.574H93.1839V51.4333C93.1839 51.053 93.1839 50.6728 93.1839 50.2925C92.0287 50.2925 90.4885 49.9123 89.3333 49.9123C87.7931 49.1517 87.023 47.6307 87.408 46.1097C86.6379 43.8282 86.2529 37.3638 86.6379 32.4205C87.023 27.4771 86.6379 27.0969 87.023 26.7166C88.1782 25.5759 89.7184 25.1956 91.6437 25.1956C93.1839 25.1956 94.7241 25.5759 95.8793 26.3364C96.2644 26.7166 97.0345 26.7166 97.4195 27.0969C97.4195 27.0969 101.27 17.9707 101.27 17.5905C100.115 16.4497 98.5747 15.6892 97.0345 16.0695ZM71.2356 32.0402C70.8506 26.7166 68.1552 21.3931 63.1494 18.351C57.3736 15.309 50.8276 15.309 45.0517 17.9707C41.2011 19.872 38.1207 23.6746 36.5805 27.8574C35.0402 32.8007 35.0402 37.7441 36.5805 42.3071C37.3506 44.9689 38.8908 47.2505 40.8161 49.1517C43.1264 51.4333 46.2069 52.9543 49.6724 53.3346C51.9828 53.3346 53.908 53.3346 56.2184 53.3346C56.9885 53.3346 57.7586 52.9543 58.5287 52.9543C65.0747 51.053 69.6954 46.1097 70.8506 39.2651C71.2356 36.9835 71.2356 34.702 71.2356 32.0402ZM55.0632 51.053C51.2126 52.1938 48.1322 48.3912 47.3621 40.7861C46.977 36.6033 46.977 32.8007 47.3621 28.6179C48.1322 22.5338 50.0575 19.1115 53.1379 19.1115C54.2931 19.1115 55.4483 19.4918 56.2184 20.6325C58.9138 23.2943 60.069 28.2377 60.069 35.8428C60.454 40.0256 59.6839 44.5887 58.1437 48.3912C57.7586 49.532 56.6034 50.2925 55.0632 51.053ZM124.374 16.83C123.218 16.83 122.063 16.83 121.293 16.83C119.368 16.83 117.057 17.2102 115.132 17.9707L113.977 18.351V10.3656C114.362 7.70384 114.362 4.66179 113.977 2C113.592 2 98.9598 4.66179 98.5747 5.04205C98.5747 5.4223 98.5747 5.80256 98.5747 5.80256C98.5747 6.56307 98.5747 6.56307 100.5 6.94333C100.885 6.94333 101.27 7.32358 102.04 7.32358C102.81 8.08409 103.195 8.84461 103.58 9.98537C103.966 13.0274 104.351 15.6892 103.966 18.7313V52.1938L105.121 52.574C106.661 52.9543 110.897 53.7148 112.437 53.7148C115.132 54.0951 118.213 54.0951 120.908 53.7148C127.454 52.9543 132.845 48.7715 135.155 43.0676C135.925 41.1664 136.31 39.2651 136.695 37.3638C137.08 34.702 136.695 32.0402 136.31 29.3784C135.155 22.9141 130.534 17.9707 124.374 16.83ZM114.362 50.2925C114.362 49.9122 113.977 33.181 113.977 26.3364V21.3931L115.132 21.0128C115.902 21.0128 116.672 21.0128 117.443 21.0128C118.213 21.0128 118.983 21.0128 119.753 21.3931C122.833 23.2943 124.374 26.7166 124.759 30.1389C125.144 32.8007 125.144 35.8428 124.759 38.5046C124.374 42.6874 122.833 46.4899 120.138 49.532C119.368 50.2925 118.598 50.6728 117.443 51.053C116.672 51.053 115.902 51.053 115.132 51.053C114.362 51.053 114.362 50.6728 114.362 50.2925Z" fill="#212121"/>
</svg>
