<svg width="32" height="32" viewBox="0 0 32 32" fill="none" xmlns="http://www.w3.org/2000/svg">
<mask id="mask0_1784_11294" style="mask-type:alpha" maskUnits="userSpaceOnUse" x="0" y="0" width="32" height="32">
<rect width="32" height="32" fill="#D9D9D9"/>
</mask>
<g mask="url(#mask0_1784_11294)">
<path d="M16.0003 29.3346C14.1559 29.3346 12.4225 28.9846 10.8003 28.2846C9.1781 27.5846 7.76699 26.6346 6.56699 25.4346C5.36699 24.2346 4.41699 22.8235 3.71699 21.2013C3.01699 19.5791 2.66699 17.8457 2.66699 16.0013C2.66699 14.1569 3.01699 12.4235 3.71699 10.8013C4.41699 9.17908 5.36699 7.76797 6.56699 6.56797C7.76699 5.36797 9.1781 4.41797 10.8003 3.71797C12.4225 3.01797 14.1559 2.66797 16.0003 2.66797C17.8448 2.66797 19.5781 3.01797 21.2003 3.71797C22.8225 4.41797 24.2337 5.36797 25.4337 6.56797C26.6337 7.76797 27.5837 9.17908 28.2837 10.8013C28.9837 12.4235 29.3337 14.1569 29.3337 16.0013C29.3337 17.8457 28.9837 19.5791 28.2837 21.2013C27.5837 22.8235 26.6337 24.2346 25.4337 25.4346C24.2337 26.6346 22.8225 27.5846 21.2003 28.2846C19.5781 28.9846 17.8448 29.3346 16.0003 29.3346Z" fill="white"/>
<path d="M15.9337 24.0013C16.4003 24.0013 16.7948 23.8402 17.117 23.518C17.4392 23.1957 17.6003 22.8013 17.6003 22.3346C17.6003 21.868 17.4392 21.4735 17.117 21.1513C16.7948 20.8291 16.4003 20.668 15.9337 20.668C15.467 20.668 15.0725 20.8291 14.7503 21.1513C14.4281 21.4735 14.267 21.868 14.267 22.3346C14.267 22.8013 14.4281 23.1957 14.7503 23.518C15.0725 23.8402 15.467 24.0013 15.9337 24.0013ZM14.7337 18.868H17.2003C17.2003 18.1346 17.2837 17.5569 17.4503 17.1346C17.617 16.7124 18.0892 16.1346 18.867 15.4013C19.4448 14.8235 19.9003 14.2735 20.2337 13.7513C20.567 13.2291 20.7337 12.6013 20.7337 11.868C20.7337 10.6235 20.2781 9.66797 19.367 9.0013C18.4559 8.33464 17.3781 8.0013 16.1337 8.0013C14.867 8.0013 13.8392 8.33464 13.0503 9.0013C12.2614 9.66797 11.7114 10.468 11.4003 11.4013L13.6003 12.268C13.7114 11.868 13.9614 11.4346 14.3503 10.968C14.7392 10.5013 15.3337 10.268 16.1337 10.268C16.8448 10.268 17.3781 10.4624 17.7337 10.8513C18.0892 11.2402 18.267 11.668 18.267 12.1346C18.267 12.5791 18.1337 12.9957 17.867 13.3846C17.6003 13.7735 17.267 14.1346 16.867 14.468C15.8892 15.3346 15.2892 15.9902 15.067 16.4346C14.8448 16.8791 14.7337 17.6902 14.7337 18.868ZM16.0003 29.3346C14.1559 29.3346 12.4225 28.9846 10.8003 28.2846C9.1781 27.5846 7.76699 26.6346 6.56699 25.4346C5.36699 24.2346 4.41699 22.8235 3.71699 21.2013C3.01699 19.5791 2.66699 17.8457 2.66699 16.0013C2.66699 14.1569 3.01699 12.4235 3.71699 10.8013C4.41699 9.17908 5.36699 7.76797 6.56699 6.56797C7.76699 5.36797 9.1781 4.41797 10.8003 3.71797C12.4225 3.01797 14.1559 2.66797 16.0003 2.66797C17.8448 2.66797 19.5781 3.01797 21.2003 3.71797C22.8225 4.41797 24.2337 5.36797 25.4337 6.56797C26.6337 7.76797 27.5837 9.17908 28.2837 10.8013C28.9837 12.4235 29.3337 14.1569 29.3337 16.0013C29.3337 17.8457 28.9837 19.5791 28.2837 21.2013C27.5837 22.8235 26.6337 24.2346 25.4337 25.4346C24.2337 26.6346 22.8225 27.5846 21.2003 28.2846C19.5781 28.9846 17.8448 29.3346 16.0003 29.3346Z" fill="#F7AE1B"/>
</g>
</svg>
