<svg width="414" height="56" viewBox="0 0 414 56" fill="none" xmlns="http://www.w3.org/2000/svg">
<path d="M30.8822 6.49453C30.8822 2.01453 26.6303 0.894531 23.2735 0.894531V1.56653C25.2876 1.56653 26.8541 2.23853 26.8541 3.80653C26.8541 4.70253 26.1827 6.04653 24.1686 6.04653C22.6022 6.04653 19.2454 5.15053 16.7838 4.25453C13.8746 3.13453 11.1892 2.23853 8.95135 2.23853C4.47568 2.23853 1.3427 5.59853 1.3427 9.40653C1.3427 12.7665 3.80432 13.8865 4.69946 14.3345L4.92324 13.8865C4.47568 13.4385 3.80432 12.9905 3.80432 11.6465C3.80432 10.7505 4.69946 9.18253 6.9373 9.18253C8.95135 9.18253 11.6368 10.0785 15.2173 11.1985C18.3503 12.0945 21.707 12.7665 23.4973 12.9905V19.9345L20.1405 22.8465V23.0705L23.4973 25.9825V35.6145C21.707 36.7345 19.693 36.9585 17.9027 36.9585C14.5459 36.9585 11.6368 36.0625 9.17513 33.3745L18.3503 28.8945V13.4385L7.16108 18.3665C8.05622 15.4545 10.5178 13.4385 12.9795 12.0945L12.7557 11.4225C6.04216 13.2145 0 19.4865 0 27.1025C0 36.0625 7.38486 42.7825 15.6649 42.7825C24.6162 42.7825 30.4346 35.6145 30.4346 28.2225H29.987C28.6443 31.1345 26.6303 33.8225 24.1686 35.1665V25.9825L27.7492 23.0705V22.8465L24.1686 19.9345V12.9905C27.5254 12.9905 30.8822 10.7505 30.8822 6.49453ZM11.413 31.1345L8.72757 32.4785C7.16108 30.4625 6.26595 27.7745 6.26595 23.9665C6.26595 22.3985 6.26595 20.6065 6.71351 19.2625L11.413 17.2465V31.1345ZM35.1341 36.2865L32.2249 38.5265L32.6724 38.9745L34.0151 37.8545L38.9384 42.3345L45.6519 37.8545L45.4281 37.4065L43.6378 38.5265L41.4 36.2865V21.0545L43.1903 19.7105L46.9946 22.8465V36.5105C46.9946 45.0225 45.2043 46.3665 41.4 47.7105V48.3825C47.6659 48.6065 53.4843 46.5905 53.4843 35.6145V20.8305L55.4984 19.2625L55.0508 18.8145L53.2605 20.1585L47.6659 15.4545L41.4 20.1585V1.79053H40.9524L33.12 7.16653V7.61453C34.0151 8.06253 35.3578 8.51053 35.3578 10.9745L35.1341 36.2865ZM76.0865 33.8225L70.4919 38.0785L64.8973 33.5985V30.9105L75.4151 23.7425V23.5185L70.0443 15.4545L58.4076 21.7265V36.5105L56.1697 38.3025L56.6173 38.7505L58.6314 37.1825L66.24 42.7825L76.3103 34.7185L76.0865 33.8225ZM64.8973 30.0145V19.0385L65.3449 18.8145L70.2681 26.6545L64.8973 30.0145ZM118.829 4.47853C118.829 3.80653 118.605 3.13453 118.382 2.46253H117.934C117.263 4.25453 116.368 5.15053 114.13 5.15053C112.116 5.15053 110.773 4.03053 109.878 3.13453L103.388 10.5265L103.836 10.9745L106.074 8.95853C107.416 10.0785 108.535 10.9745 111.668 11.1985V29.7905L98.4649 7.16653C97.3459 5.37453 95.7795 2.91053 92.6465 2.91053C89.0659 2.91053 85.933 6.04653 86.3805 10.9745H87.0519C87.2757 9.63053 87.947 8.06253 89.5135 8.06253C90.6324 8.06253 91.7513 9.18253 92.4227 10.3025V17.6945C88.3946 17.6945 85.7092 19.4865 85.7092 22.8465C85.7092 24.6385 86.6043 27.3265 89.2897 27.9985V27.5505C88.8422 27.1025 88.6184 26.6545 88.6184 25.9825C88.6184 24.8625 89.5135 23.9665 91.08 23.9665H92.1989V33.3745C87.4995 33.3745 83.6951 36.0625 83.6951 40.5425C83.6951 44.7985 87.2757 46.8145 91.3038 46.5905V46.1425C88.8422 45.9185 87.7232 44.7985 87.7232 43.2305C87.7232 41.2145 89.0659 40.3185 90.8562 40.3185C92.6465 40.3185 94.213 41.4385 95.3319 42.7825L101.822 35.6145L101.374 35.1665L99.8076 36.9585C97.3459 34.7185 96.0032 34.0465 93.094 33.5985V11.1985L110.997 42.5585H112.339V11.1985C115.696 10.9745 118.829 8.28653 118.829 4.47853ZM135.165 33.8225L129.571 38.0785L123.976 33.5985V30.9105L134.494 23.7425V23.5185L129.123 15.4545L117.486 21.7265V36.5105L115.249 38.3025L115.696 38.7505L117.71 37.1825L125.319 42.7825L135.389 34.7185L135.165 33.8225ZM123.976 30.0145V19.0385L124.424 18.8145L129.347 26.6545L123.976 30.0145ZM171.642 17.9185L170.076 19.0385L165.824 15.4545L160.901 19.9345L162.915 21.9505V38.7505L157.544 35.3905V21.5025L159.334 20.3825L154.187 15.4545L149.264 19.9345L151.278 21.9505V38.0785L150.606 38.5265L145.907 35.1665V21.7265C145.907 18.5905 144.341 17.6945 142.55 16.5745C140.984 15.4545 140.089 14.7825 140.089 13.2145C140.089 11.8705 141.431 11.1985 142.103 10.7505V10.3025C140.312 10.3025 135.613 12.0945 135.613 16.3505C135.613 18.5905 136.732 19.4865 137.851 20.6065C138.97 21.7265 140.089 22.6225 140.089 24.6385V37.6305L137.627 39.4225L138.075 39.8705L140.312 38.0785L145.459 42.5585L151.054 38.7505L157.32 42.5585L169.181 35.6145V20.6065L172.09 18.3665L171.642 17.9185ZM213.266 5.59853L211.028 7.61453L206.105 3.13453L198.72 8.51053V3.58253H198.049L198.272 39.8705C197.601 39.8705 195.587 39.4225 194.021 38.9745L193.573 8.73453C193.573 6.49453 192.006 3.35853 187.978 3.35853C183.95 3.35853 181.265 6.49453 181.265 9.63053H181.936C182.16 8.28653 182.831 7.16653 184.174 7.16653C185.517 7.16653 186.636 8.06253 186.636 10.9745V19.7105C182.608 19.9345 180.146 22.1745 180.146 25.0865C180.146 26.8785 181.041 29.5665 183.726 29.5665V29.1185C182.831 28.6705 182.608 27.9985 182.608 27.5505C182.608 26.2065 183.726 25.7585 185.517 25.7585H186.412V39.6465C183.055 40.7665 181.712 43.2305 181.712 45.9185C181.712 49.7265 184.622 52.4145 189.097 52.4145C192.23 52.4145 194.916 51.9665 197.601 51.2945C199.839 50.8465 202.748 50.1745 204.091 50.1745C205.881 50.1745 206.552 51.0705 206.552 52.1905C206.552 53.7585 205.881 54.4305 204.986 54.6545V55.1025C208.566 54.4305 210.804 52.1905 210.804 48.8305C210.804 45.4705 207.448 43.4545 203.867 43.4545C202.077 43.4545 198.272 44.1265 195.587 44.5745C192.454 45.2465 189.321 45.6945 188.426 45.6945C186.859 45.6945 185.069 45.0225 185.069 42.7825C185.069 40.9905 186.636 39.4225 190.44 39.4225C192.454 39.4225 194.916 39.6465 197.377 40.3185C200.063 40.9905 202.524 41.6625 204.762 41.6625C208.119 41.6625 211.028 40.5425 211.028 35.8385V8.28653L213.714 6.04653L213.266 5.59853ZM204.091 19.2625C203.419 19.9345 202.524 20.6065 201.405 20.6065C200.286 20.6065 199.168 19.9345 198.72 19.2625V9.40653L200.958 7.83853L204.091 10.7505V19.2625ZM204.091 25.9825C203.643 25.5345 202.524 24.8625 201.405 24.8625C200.286 24.8625 199.168 25.5345 198.72 25.9825V20.1585C199.168 20.6065 200.286 21.2785 201.405 21.2785C202.524 21.2785 203.643 20.6065 204.091 20.1585V25.9825ZM204.091 36.5105C204.091 38.3025 202.972 40.0945 200.51 40.0945H198.72V26.8785C199.168 26.4305 200.286 25.7585 201.405 25.7585C202.524 25.7585 203.419 26.4305 204.091 26.8785V36.5105ZM234.749 20.6065L227.588 15.4545L216.623 21.7265V36.2865L214.385 38.0785L214.609 38.5265L216.399 37.1825L223.56 42.5585L234.749 35.8385V20.6065ZM222.665 34.7185V18.5905L228.259 22.6225V38.5265L222.665 34.7185ZM256.009 15.9025H255.561C254.89 16.3505 254.218 16.7985 253.547 16.7985C252.652 16.7985 251.533 16.3505 251.085 15.6785H250.638L246.834 19.9345L243.029 15.6785L236.316 20.1585L236.539 20.6065L238.33 19.4865L240.568 21.9505V36.0625L237.658 38.3025L238.106 38.7505L239.449 37.6305L244.819 42.1105L251.757 37.4065L251.533 36.9585L249.519 38.0785L246.834 35.8385V20.1585C247.952 21.2785 249.295 22.3985 250.862 22.3985C253.995 22.6225 255.785 19.4865 256.009 15.9025ZM282.863 37.4065L275.254 42.5585L264.96 26.8785L272.345 15.4545H272.792C273.688 16.3505 275.03 17.2465 276.597 17.2465C278.163 17.2465 279.282 16.3505 279.954 15.4545H280.401C280.177 19.9345 277.044 22.6225 274.806 22.6225C272.569 22.6225 271.45 21.5025 270.107 20.8305L269.436 21.9505L280.625 38.5265L282.863 37.1825V37.4065ZM258.246 36.2865L255.337 38.5265L255.785 38.9745L257.128 37.8545L262.051 42.3345L268.764 37.8545L268.317 37.4065L266.526 38.5265L264.289 36.2865V1.79053H264.065L256.009 7.16653V7.61453C256.904 8.06253 258.246 8.28653 258.246 10.9745V36.2865ZM320.011 6.49453C320.011 2.01453 315.759 0.894531 312.402 0.894531V1.56653C314.416 1.56653 315.983 2.23853 315.983 3.80653C315.983 4.70253 315.311 6.04653 313.297 6.04653C311.731 6.04653 308.374 5.15053 305.912 4.25453C303.003 3.35853 300.318 2.46253 298.08 2.46253C293.604 2.46253 290.471 5.82253 290.471 9.63053C290.471 12.9905 292.933 14.1105 293.828 14.5585L294.052 14.1105C293.381 13.6625 292.709 13.2145 292.709 11.8705C292.709 10.9745 293.604 9.40653 295.842 9.40653C297.856 9.40653 300.542 10.3025 304.122 11.4225C307.255 12.3185 310.612 12.9905 312.402 13.2145V20.1585L309.045 23.0705V23.2945L312.402 26.2065V35.8385C310.612 36.9585 308.598 37.1825 306.808 37.1825C303.451 37.1825 300.542 36.2865 298.08 33.5985L307.255 29.1185V13.4385L296.066 18.3665C297.185 15.4545 299.646 13.4385 301.884 11.8705L301.661 11.4225C294.947 13.2145 288.905 19.2625 288.905 26.8785C288.905 35.8385 296.29 42.5585 304.57 42.5585C313.521 42.5585 319.339 35.3905 319.339 27.9985H318.892C317.549 30.9105 315.535 33.5985 313.073 34.9425V25.7585L316.654 22.8465V22.6225L313.297 19.7105V12.9905C316.654 12.9905 320.011 10.7505 320.011 6.49453ZM300.542 31.1345L297.856 32.4785C296.29 30.4625 295.395 27.7745 295.395 23.9665C295.395 22.3985 295.618 20.6065 296.066 19.2625L300.765 17.2465L300.542 31.1345ZM327.843 4.25453H327.619L323.144 8.06253V8.28653L326.948 12.5425H327.396L331.871 8.73453V8.51053L327.843 4.25453ZM334.557 37.4065L332.766 38.5265L330.529 36.2865V20.8305L332.766 19.2625L332.319 18.8145L330.752 20.1585L326.724 15.4545L320.235 19.9345L320.682 20.6065L322.249 19.4865L324.263 21.9505V36.5105L321.354 38.7505L321.577 39.1985L323.144 38.0785L328.067 42.5585L334.781 38.0785L334.557 37.4065ZM371.929 37.1825L370.362 38.3025L367.901 36.0625V20.8305L370.138 19.0385L369.691 18.5905L367.901 20.1585L362.754 15.4545L356.04 20.1585L350.893 15.4545L344.627 20.1585L340.599 15.4545L334.109 19.9345L334.333 20.6065L335.899 19.4865L338.137 21.9505V36.5105L336.347 38.3025L341.494 42.5585L346.417 38.0785L344.403 36.0625V20.8305L346.417 19.4865L349.774 22.6225V36.0625L347.984 37.8545L353.131 42.1105L358.054 37.6305L356.04 35.6145V20.8305L357.83 19.7105L361.411 22.8465V36.2865L359.844 37.8545L364.991 42.5585L371.929 37.8545V37.1825ZM391.398 33.8225L385.803 38.0785L380.209 33.5985V30.9105L390.726 23.7425V23.5185L385.356 15.4545L373.719 21.7265V36.9585L381.551 42.5585L391.622 34.4945L391.398 33.8225ZM380.209 30.0145V19.0385L380.656 18.8145L385.579 26.6545L380.209 30.0145ZM411.762 27.9985L407.51 24.6385C410.419 22.1745 411.538 18.8145 411.538 16.5745V15.2305H411.091C410.643 16.3505 409.748 17.4705 407.958 17.4705C406.168 17.4705 405.049 16.5745 403.93 15.2305L393.859 20.8305V28.8945L397.664 31.8065C393.859 35.1665 393.188 37.4065 393.188 39.1985C393.188 41.4385 394.307 43.0065 396.097 43.6785L396.321 43.2305C395.874 42.7825 395.426 42.5585 395.426 41.4385C395.426 40.7665 396.321 39.6465 398.111 39.6465C400.349 39.6465 401.692 41.2145 402.363 41.8865L411.986 36.0625V27.9985H411.762ZM409.301 21.2785C407.734 23.9665 404.377 26.6545 402.363 27.9985L399.902 25.9825V18.1425C400.797 20.3825 403.258 22.1745 405.72 22.1745C407.286 22.1745 408.182 21.9505 409.301 21.2785ZM405.496 39.1985C404.377 36.7345 401.692 34.9425 399.006 34.9425C398.335 34.9425 396.545 34.9425 394.755 36.0625C395.873 34.2705 398.783 31.1345 402.587 28.8945L405.272 31.1345L405.496 39.1985Z" fill="#212121"/>
</svg>
