<svg width="412" height="56" viewBox="0 0 412 56" fill="none" xmlns="http://www.w3.org/2000/svg">
<path d="M30.8822 6.6C30.8822 2.12 26.6303 1 23.2735 1V1.672C25.2876 1.672 26.8541 2.344 26.8541 3.912C26.8541 4.808 26.1827 6.152 24.1686 6.152C22.6022 6.152 19.2454 5.256 16.7838 4.36C13.8746 3.24 11.1892 2.344 8.95135 2.344C4.47568 2.344 1.3427 5.704 1.3427 9.512C1.3427 12.872 3.80432 13.992 4.69946 14.44L4.92324 13.992C4.47568 13.544 3.80432 13.096 3.80432 11.752C3.80432 10.856 4.69946 9.288 6.9373 9.288C8.95135 9.288 11.6368 10.184 15.2173 11.304C18.3503 12.2 21.707 12.872 23.4973 13.096V20.04L20.1405 22.952V23.176L23.4973 26.088V35.72C21.707 36.84 19.693 37.064 17.9027 37.064C14.5459 37.064 11.6368 36.168 9.17513 33.48L18.3503 29V13.544L7.16108 18.472C8.05622 15.56 10.5178 13.544 12.9795 12.2L12.7557 11.528C6.04216 13.32 0 19.592 0 27.208C0 36.168 7.38486 42.888 15.6649 42.888C24.6162 42.888 30.4346 35.72 30.4346 28.328H29.987C28.6443 31.24 26.6303 33.928 24.1686 35.272V26.088L27.7492 23.176V22.952L24.1686 20.04V13.096C27.5254 13.096 30.8822 10.856 30.8822 6.6ZM11.413 31.24L8.72757 32.584C7.16108 30.568 6.26595 27.88 6.26595 24.072C6.26595 22.504 6.26595 20.712 6.71351 19.368L11.413 17.352V31.24ZM35.1341 36.392L32.2249 38.632L32.6724 39.08L34.0151 37.96L38.9384 42.44L45.6519 37.96L45.4281 37.512L43.6378 38.632L41.4 36.392V21.16L43.1903 19.816L46.9946 22.952V36.616C46.9946 45.128 45.2043 46.472 41.4 47.816V48.488C47.6659 48.712 53.4843 46.696 53.4843 35.72V20.936L55.4984 19.368L55.0508 18.92L53.2605 20.264L47.6659 15.56L41.4 20.264V1.896H40.9524L33.12 7.272V7.72C34.0151 8.168 35.3578 8.616 35.3578 11.08L35.1341 36.392ZM76.0865 33.928L70.4919 38.184L64.8973 33.704V31.016L75.4151 23.848V23.624L70.0443 15.56L58.4076 21.832V36.616L56.1697 38.408L56.6173 38.856L58.6314 37.288L66.24 42.888L76.3103 34.824L76.0865 33.928ZM64.8973 30.12V19.144L65.3449 18.92L70.2681 26.76L64.8973 30.12ZM118.829 4.584C118.829 3.912 118.605 3.24 118.382 2.568H117.934C117.263 4.36 116.368 5.256 114.13 5.256C112.116 5.256 110.773 4.136 109.878 3.24L103.388 10.632L103.836 11.08L106.074 9.064C107.416 10.184 108.535 11.08 111.668 11.304V29.896L98.4649 7.272C97.3459 5.48 95.7795 3.016 92.6465 3.016C89.0659 3.016 85.933 6.152 86.3805 11.08H87.0519C87.2757 9.736 87.947 8.168 89.5135 8.168C90.6324 8.168 91.7513 9.288 92.4227 10.408V17.8C88.3946 17.8 85.7092 19.592 85.7092 22.952C85.7092 24.744 86.6043 27.432 89.2897 28.104V27.656C88.8422 27.208 88.6184 26.76 88.6184 26.088C88.6184 24.968 89.5135 24.072 91.08 24.072H92.1989V33.48C87.4995 33.48 83.6951 36.168 83.6951 40.648C83.6951 44.904 87.2757 46.92 91.3038 46.696V46.248C88.8422 46.024 87.7232 44.904 87.7232 43.336C87.7232 41.32 89.0659 40.424 90.8562 40.424C92.6465 40.424 94.213 41.544 95.3319 42.888L101.822 35.72L101.374 35.272L99.8076 37.064C97.3459 34.824 96.0032 34.152 93.094 33.704V11.304L110.997 42.664H112.339V11.304C115.696 11.08 118.829 8.392 118.829 4.584ZM135.165 33.928L129.571 38.184L123.976 33.704V31.016L134.494 23.848V23.624L129.123 15.56L117.486 21.832V36.616L115.249 38.408L115.696 38.856L117.71 37.288L125.319 42.888L135.389 34.824L135.165 33.928ZM123.976 30.12V19.144L124.424 18.92L129.347 26.76L123.976 30.12ZM171.642 18.024L170.076 19.144L165.824 15.56L160.901 20.04L162.915 22.056V38.856L157.544 35.496V21.608L159.334 20.488L154.187 15.56L149.264 20.04L151.278 22.056V38.184L150.606 38.632L145.907 35.272V21.832C145.907 18.696 144.341 17.8 142.55 16.68C140.984 15.56 140.089 14.888 140.089 13.32C140.089 11.976 141.431 11.304 142.103 10.856V10.408C140.312 10.408 135.613 12.2 135.613 16.456C135.613 18.696 136.732 19.592 137.851 20.712C138.97 21.832 140.089 22.728 140.089 24.744V37.736L137.627 39.528L138.075 39.976L140.312 38.184L145.459 42.664L151.054 38.856L157.32 42.664L169.181 35.72V20.712L172.09 18.472L171.642 18.024ZM213.266 5.704L211.028 7.72L206.105 3.24L198.72 8.616V3.688H198.049L198.272 39.976C197.601 39.976 195.587 39.528 194.021 39.08L193.573 8.84C193.573 6.6 192.006 3.464 187.978 3.464C183.95 3.464 181.265 6.6 181.265 9.736H181.936C182.16 8.392 182.831 7.272 184.174 7.272C185.517 7.272 186.636 8.168 186.636 11.08V19.816C182.608 20.04 180.146 22.28 180.146 25.192C180.146 26.984 181.041 29.672 183.726 29.672V29.224C182.831 28.776 182.608 28.104 182.608 27.656C182.608 26.312 183.726 25.864 185.517 25.864H186.412V39.752C183.055 40.872 181.712 43.336 181.712 46.024C181.712 49.832 184.622 52.52 189.097 52.52C192.23 52.52 194.916 52.072 197.601 51.4C199.839 50.952 202.748 50.28 204.091 50.28C205.881 50.28 206.552 51.176 206.552 52.296C206.552 53.864 205.881 54.536 204.986 54.76V55.208C208.566 54.536 210.804 52.296 210.804 48.936C210.804 45.576 207.448 43.56 203.867 43.56C202.077 43.56 198.272 44.232 195.587 44.68C192.454 45.352 189.321 45.8 188.426 45.8C186.859 45.8 185.069 45.128 185.069 42.888C185.069 41.096 186.636 39.528 190.44 39.528C192.454 39.528 194.916 39.752 197.377 40.424C200.063 41.096 202.524 41.768 204.762 41.768C208.119 41.768 211.028 40.648 211.028 35.944V8.392L213.714 6.152L213.266 5.704ZM204.091 19.368C203.419 20.04 202.524 20.712 201.405 20.712C200.286 20.712 199.168 20.04 198.72 19.368V9.512L200.958 7.944L204.091 10.856V19.368ZM204.091 26.088C203.643 25.64 202.524 24.968 201.405 24.968C200.286 24.968 199.168 25.64 198.72 26.088V20.264C199.168 20.712 200.286 21.384 201.405 21.384C202.524 21.384 203.643 20.712 204.091 20.264V26.088ZM204.091 36.616C204.091 38.408 202.972 40.2 200.51 40.2H198.72V26.984C199.168 26.536 200.286 25.864 201.405 25.864C202.524 25.864 203.419 26.536 204.091 26.984V36.616ZM234.749 20.712L227.588 15.56L216.623 21.832V36.392L214.385 38.184L214.609 38.632L216.399 37.288L223.56 42.664L234.749 35.944V20.712ZM222.665 34.824V18.696L228.259 22.728V38.632L222.665 34.824ZM256.009 16.008H255.561C254.89 16.456 254.218 16.904 253.547 16.904C252.652 16.904 251.533 16.456 251.085 15.784H250.638L246.834 20.04L243.029 15.784L236.316 20.264L236.539 20.712L238.33 19.592L240.568 22.056V36.168L237.658 38.408L238.106 38.856L239.449 37.736L244.819 42.216L251.757 37.512L251.533 37.064L249.519 38.184L246.834 35.944V20.264C247.952 21.384 249.295 22.504 250.862 22.504C253.995 22.728 255.785 19.592 256.009 16.008ZM282.863 37.512L275.254 42.664L264.96 26.984L272.345 15.56H272.792C273.688 16.456 275.03 17.352 276.597 17.352C278.163 17.352 279.282 16.456 279.954 15.56H280.401C280.177 20.04 277.044 22.728 274.806 22.728C272.569 22.728 271.45 21.608 270.107 20.936L269.436 22.056L280.625 38.632L282.863 37.288V37.512ZM258.246 36.392L255.337 38.632L255.785 39.08L257.128 37.96L262.051 42.44L268.764 37.96L268.317 37.512L266.526 38.632L264.289 36.392V1.896H264.065L256.009 7.272V7.72C256.904 8.168 258.246 8.392 258.246 11.08V36.392ZM320.011 6.6C320.011 2.12 315.759 1 312.402 1V1.672C314.416 1.672 315.983 2.344 315.983 3.912C315.983 4.808 315.311 6.152 313.297 6.152C311.731 6.152 308.374 5.256 305.912 4.36C303.003 3.464 300.318 2.568 298.08 2.568C293.604 2.568 290.471 5.928 290.471 9.736C290.471 13.096 292.933 14.216 293.828 14.664L294.052 14.216C293.381 13.768 292.709 13.32 292.709 11.976C292.709 11.08 293.604 9.512 295.842 9.512C297.856 9.512 300.542 10.408 304.122 11.528C307.255 12.424 310.612 13.096 312.402 13.32V20.264L309.045 23.176V23.4L312.402 26.312V35.944C310.612 37.064 308.598 37.288 306.808 37.288C303.451 37.288 300.542 36.392 298.08 33.704L307.255 29.224V13.544L296.066 18.472C297.185 15.56 299.646 13.544 301.884 11.976L301.661 11.528C294.947 13.32 288.905 19.368 288.905 26.984C288.905 35.944 296.29 42.664 304.57 42.664C313.521 42.664 319.339 35.496 319.339 28.104H318.892C317.549 31.016 315.535 33.704 313.073 35.048V25.864L316.654 22.952V22.728L313.297 19.816V13.096C316.654 13.096 320.011 10.856 320.011 6.6ZM300.542 31.24L297.856 32.584C296.29 30.568 295.395 27.88 295.395 24.072C295.395 22.504 295.618 20.712 296.066 19.368L300.765 17.352L300.542 31.24ZM327.843 4.36H327.619L323.144 8.168V8.392L326.948 12.648H327.396L331.871 8.84V8.616L327.843 4.36ZM334.557 37.512L332.766 38.632L330.529 36.392V20.936L332.766 19.368L332.319 18.92L330.752 20.264L326.724 15.56L320.235 20.04L320.682 20.712L322.249 19.592L324.263 22.056V36.616L321.354 38.856L321.577 39.304L323.144 38.184L328.067 42.664L334.781 38.184L334.557 37.512ZM371.929 37.288L370.362 38.408L367.901 36.168V20.936L370.138 19.144L369.691 18.696L367.901 20.264L362.754 15.56L356.04 20.264L350.893 15.56L344.627 20.264L340.599 15.56L334.109 20.04L334.333 20.712L335.899 19.592L338.137 22.056V36.616L336.347 38.408L341.494 42.664L346.417 38.184L344.403 36.168V20.936L346.417 19.592L349.774 22.728V36.168L347.984 37.96L353.131 42.216L358.054 37.736L356.04 35.72V20.936L357.83 19.816L361.411 22.952V36.392L359.844 37.96L364.991 42.664L371.929 37.96V37.288ZM391.398 33.928L385.803 38.184L380.209 33.704V31.016L390.726 23.848V23.624L385.356 15.56L373.719 21.832V37.064L381.551 42.664L391.622 34.6L391.398 33.928ZM380.209 30.12V19.144L380.656 18.92L385.579 26.76L380.209 30.12ZM411.762 28.104L407.51 24.744C410.419 22.28 411.538 18.92 411.538 16.68V15.336H411.091C410.643 16.456 409.748 17.576 407.958 17.576C406.168 17.576 405.049 16.68 403.93 15.336L393.859 20.936V29L397.664 31.912C393.859 35.272 393.188 37.512 393.188 39.304C393.188 41.544 394.307 43.112 396.097 43.784L396.321 43.336C395.874 42.888 395.426 42.664 395.426 41.544C395.426 40.872 396.321 39.752 398.111 39.752C400.349 39.752 401.692 41.32 402.363 41.992L411.986 36.168V28.104H411.762ZM409.301 21.384C407.734 24.072 404.377 26.76 402.363 28.104L399.902 26.088V18.248C400.797 20.488 403.258 22.28 405.72 22.28C407.286 22.28 408.182 22.056 409.301 21.384ZM405.496 39.304C404.377 36.84 401.692 35.048 399.006 35.048C398.335 35.048 396.545 35.048 394.755 36.168C395.873 34.376 398.783 31.24 402.587 29L405.272 31.24L405.496 39.304Z" fill="#212121"/>
</svg>
