<svg width="244" height="64" viewBox="0 0 244 64" fill="none" xmlns="http://www.w3.org/2000/svg">
<path d="M33.7726 50.1694C32.9014 50.1694 32.1533 49.9781 31.5283 49.5955C30.9071 49.2129 30.4279 48.6845 30.0908 48.0103C29.7575 47.3323 29.5908 46.552 29.5908 45.6694C29.5908 44.783 29.7613 44.0008 30.1022 43.3228C30.4431 42.641 30.9242 42.1107 31.5454 41.7319C32.1704 41.3493 32.909 41.158 33.7613 41.158C34.4696 41.158 35.0965 41.2887 35.642 41.5501C36.1912 41.8076 36.6287 42.1732 36.9545 42.6467C37.2802 43.1164 37.4658 43.6656 37.5113 44.2944H35.5454C35.4658 43.8739 35.2764 43.5236 34.9772 43.2433C34.6817 42.9592 34.2859 42.8171 33.7897 42.8171C33.3692 42.8171 32.9999 42.9308 32.6817 43.158C32.3635 43.3815 32.1154 43.7035 31.9374 44.1239C31.7632 44.5444 31.676 45.0482 31.676 45.6353C31.676 46.23 31.7632 46.7414 31.9374 47.1694C32.1117 47.5936 32.356 47.9213 32.6704 48.1523C32.9885 48.3796 33.3617 48.4933 33.7897 48.4933C34.0927 48.4933 34.3635 48.4364 34.6022 48.3228C34.8446 48.2054 35.0473 48.0368 35.2101 47.8171C35.373 47.5974 35.4848 47.3304 35.5454 47.016H37.5113C37.462 47.6334 37.2802 48.1808 36.9658 48.658C36.6514 49.1315 36.2234 49.5027 35.6817 49.7717C35.1401 50.0368 34.5037 50.1694 33.7726 50.1694Z" fill="#212121" fill-opacity="0.65"/>
<path d="M41.7116 50.1751C41.1585 50.1751 40.6604 50.0766 40.2172 49.8796C39.7778 49.6789 39.4294 49.3834 39.1718 48.9933C38.918 48.6031 38.7911 48.122 38.7911 47.5501C38.7911 47.0576 38.882 46.6504 39.0638 46.3285C39.2456 46.0065 39.4938 45.7489 39.8082 45.5558C40.1225 45.3626 40.4767 45.2167 40.8707 45.1183C41.2684 45.016 41.6794 44.9421 42.1036 44.8967C42.615 44.8436 43.0297 44.7963 43.3479 44.7546C43.6661 44.7092 43.8972 44.641 44.0411 44.5501C44.1888 44.4554 44.2627 44.3095 44.2627 44.1126V44.0785C44.2627 43.6504 44.1358 43.319 43.882 43.0842C43.6282 42.8493 43.2627 42.7319 42.7854 42.7319C42.2816 42.7319 41.882 42.8417 41.5866 43.0614C41.2949 43.2811 41.0979 43.5406 40.9957 43.8398L39.0752 43.5671C39.2267 43.0368 39.4767 42.5936 39.8252 42.2376C40.1737 41.8777 40.5998 41.6088 41.1036 41.4308C41.6074 41.2489 42.1642 41.158 42.7741 41.158C43.1945 41.158 43.6131 41.2073 44.0297 41.3058C44.4464 41.4042 44.8271 41.5671 45.1718 41.7944C45.5165 42.0179 45.793 42.3228 46.0013 42.7092C46.2135 43.0955 46.3195 43.5785 46.3195 44.158V49.9989H44.3422V48.8001H44.2741C44.1491 49.0425 43.9729 49.2698 43.7457 49.4819C43.5222 49.6902 43.24 49.8588 42.8991 49.9876C42.5619 50.1126 42.1661 50.1751 41.7116 50.1751ZM42.2457 48.6637C42.6585 48.6637 43.0165 48.5823 43.3195 48.4194C43.6225 48.2527 43.8555 48.033 44.0184 47.7603C44.185 47.4876 44.2684 47.1902 44.2684 46.8683V45.8398C44.204 45.8929 44.0941 45.9421 43.9388 45.9876C43.7873 46.033 43.6169 46.0728 43.4275 46.1069C43.2381 46.141 43.0506 46.1713 42.865 46.1978C42.6794 46.2243 42.5184 46.247 42.382 46.266C42.0752 46.3076 41.8006 46.3758 41.5582 46.4705C41.3157 46.5652 41.1244 46.6978 40.9843 46.8683C40.8441 47.0349 40.7741 47.2508 40.7741 47.516C40.7741 47.8948 40.9123 48.1808 41.1888 48.3739C41.4653 48.5671 41.8176 48.6637 42.2457 48.6637Z" fill="#212121" fill-opacity="0.65"/>
<path d="M50.4445 38.3626V49.9989H48.3877V38.3626H50.4445Z" fill="#212121" fill-opacity="0.65"/>
<path d="M52.5596 49.9989V41.2717H54.6164V49.9989H52.5596ZM53.5937 40.033C53.2679 40.033 52.9876 39.9251 52.7528 39.7092C52.5179 39.4895 52.4005 39.2262 52.4005 38.9194C52.4005 38.6088 52.5179 38.3455 52.7528 38.1296C52.9876 37.9099 53.2679 37.8001 53.5937 37.8001C53.9232 37.8001 54.2035 37.9099 54.4346 38.1296C54.6694 38.3455 54.7868 38.6088 54.7868 38.9194C54.7868 39.2262 54.6694 39.4895 54.4346 39.7092C54.2035 39.9251 53.9232 40.033 53.5937 40.033Z" fill="#212121" fill-opacity="0.65"/>
<path d="M61.1519 41.2717V42.8626H55.9928V41.2717H61.1519ZM57.2826 49.9989V40.4478C57.2826 39.8607 57.4038 39.372 57.6462 38.9819C57.8924 38.5917 58.222 38.3001 58.6349 38.1069C59.0477 37.9137 59.5061 37.8171 60.0099 37.8171C60.3659 37.8171 60.6822 37.8455 60.9587 37.9023C61.2352 37.9592 61.4398 38.0103 61.5724 38.0558L61.1633 39.6467C61.0761 39.6201 60.9663 39.5936 60.8337 39.5671C60.7011 39.5368 60.5534 39.5217 60.3905 39.5217C60.008 39.5217 59.7371 39.6145 59.578 39.8001C59.4227 39.9819 59.3451 40.2433 59.3451 40.5842V49.9989H57.2826Z" fill="#212121" fill-opacity="0.65"/>
<path d="M62.7627 49.9989V41.2717H64.8195V49.9989H62.7627ZM63.7968 40.033C63.471 40.033 63.1907 39.9251 62.9559 39.7092C62.721 39.4895 62.6036 39.2262 62.6036 38.9194C62.6036 38.6088 62.721 38.3455 62.9559 38.1296C63.1907 37.9099 63.471 37.8001 63.7968 37.8001C64.1263 37.8001 64.4066 37.9099 64.6377 38.1296C64.8725 38.3455 64.99 38.6088 64.99 38.9194C64.99 39.2262 64.8725 39.4895 64.6377 39.7092C64.4066 39.9251 64.1263 40.033 63.7968 40.033Z" fill="#212121" fill-opacity="0.65"/>
<path d="M70.7414 50.1694C69.8702 50.1694 69.1221 49.9781 68.4971 49.5955C67.8759 49.2129 67.3967 48.6845 67.0596 48.0103C66.7262 47.3323 66.5596 46.552 66.5596 45.6694C66.5596 44.783 66.73 44.0008 67.0709 43.3228C67.4118 42.641 67.8929 42.1107 68.5141 41.7319C69.1391 41.3493 69.8778 41.158 70.73 41.158C71.4384 41.158 72.0653 41.2887 72.6107 41.5501C73.1599 41.8076 73.5974 42.1732 73.9232 42.6467C74.249 43.1164 74.4346 43.6656 74.48 44.2944H72.5141C72.4346 43.8739 72.2452 43.5236 71.9459 43.2433C71.6505 42.9592 71.2546 42.8171 70.7584 42.8171C70.338 42.8171 69.9687 42.9308 69.6505 43.158C69.3323 43.3815 69.0842 43.7035 68.9062 44.1239C68.7319 44.5444 68.6448 45.0482 68.6448 45.6353C68.6448 46.23 68.7319 46.7414 68.9062 47.1694C69.0804 47.5936 69.3247 47.9213 69.6391 48.1523C69.9573 48.3796 70.3304 48.4933 70.7584 48.4933C71.0615 48.4933 71.3323 48.4364 71.5709 48.3228C71.8134 48.2054 72.016 48.0368 72.1789 47.8171C72.3418 47.5974 72.4535 47.3304 72.5141 47.016H74.48C74.4308 47.6334 74.249 48.1808 73.9346 48.658C73.6202 49.1315 73.1921 49.5027 72.6505 49.7717C72.1088 50.0368 71.4725 50.1694 70.7414 50.1694Z" fill="#212121" fill-opacity="0.65"/>
<path d="M78.6803 50.1751C78.1273 50.1751 77.6292 50.0766 77.186 49.8796C76.7466 49.6789 76.3981 49.3834 76.1405 48.9933C75.8867 48.6031 75.7599 48.122 75.7599 47.5501C75.7599 47.0576 75.8508 46.6504 76.0326 46.3285C76.2144 46.0065 76.4625 45.7489 76.7769 45.5558C77.0913 45.3626 77.4455 45.2167 77.8394 45.1183C78.2371 45.016 78.6481 44.9421 79.0724 44.8967C79.5837 44.8436 79.9985 44.7963 80.3167 44.7546C80.6349 44.7092 80.8659 44.641 81.0099 44.5501C81.1576 44.4554 81.2314 44.3095 81.2314 44.1126V44.0785C81.2314 43.6504 81.1046 43.319 80.8508 43.0842C80.597 42.8493 80.2314 42.7319 79.7542 42.7319C79.2504 42.7319 78.8508 42.8417 78.5553 43.0614C78.2636 43.2811 78.0667 43.5406 77.9644 43.8398L76.0439 43.5671C76.1955 43.0368 76.4455 42.5936 76.7939 42.2376C77.1424 41.8777 77.5686 41.6088 78.0724 41.4308C78.5761 41.2489 79.133 41.158 79.7428 41.158C80.1633 41.158 80.5818 41.2073 80.9985 41.3058C81.4152 41.4042 81.7958 41.5671 82.1405 41.7944C82.4852 42.0179 82.7617 42.3228 82.9701 42.7092C83.1822 43.0955 83.2883 43.5785 83.2883 44.158V49.9989H81.311V48.8001H81.2428C81.1178 49.0425 80.9417 49.2698 80.7144 49.4819C80.4909 49.6902 80.2087 49.8588 79.8678 49.9876C79.5307 50.1126 79.1349 50.1751 78.6803 50.1751ZM79.2144 48.6637C79.6273 48.6637 79.9852 48.5823 80.2883 48.4194C80.5913 48.2527 80.8242 48.033 80.9871 47.7603C81.1538 47.4876 81.2371 47.1902 81.2371 46.8683V45.8398C81.1727 45.8929 81.0629 45.9421 80.9076 45.9876C80.7561 46.033 80.5856 46.0728 80.3962 46.1069C80.2068 46.141 80.0193 46.1713 79.8337 46.1978C79.6481 46.2243 79.4871 46.247 79.3508 46.266C79.0439 46.3076 78.7693 46.3758 78.5269 46.4705C78.2845 46.5652 78.0932 46.6978 77.953 46.8683C77.8129 47.0349 77.7428 47.2508 77.7428 47.516C77.7428 47.8948 77.8811 48.1808 78.1576 48.3739C78.4341 48.5671 78.7864 48.6637 79.2144 48.6637Z" fill="#212121" fill-opacity="0.65"/>
<path d="M89.1633 50.1694C88.2921 50.1694 87.5439 49.9781 86.9189 49.5955C86.2977 49.2129 85.8186 48.6845 85.4814 48.0103C85.1481 47.3323 84.9814 46.552 84.9814 45.6694C84.9814 44.783 85.1519 44.0008 85.4928 43.3228C85.8337 42.641 86.3148 42.1107 86.936 41.7319C87.561 41.3493 88.2996 41.158 89.1519 41.158C89.8602 41.158 90.4871 41.2887 91.0326 41.5501C91.5818 41.8076 92.0193 42.1732 92.3451 42.6467C92.6708 43.1164 92.8564 43.6656 92.9019 44.2944H90.936C90.8564 43.8739 90.6671 43.5236 90.3678 43.2433C90.0724 42.9592 89.6765 42.8171 89.1803 42.8171C88.7599 42.8171 88.3905 42.9308 88.0724 43.158C87.7542 43.3815 87.5061 43.7035 87.328 44.1239C87.1538 44.5444 87.0667 45.0482 87.0667 45.6353C87.0667 46.23 87.1538 46.7414 87.328 47.1694C87.5023 47.5936 87.7466 47.9213 88.061 48.1523C88.3792 48.3796 88.7523 48.4933 89.1803 48.4933C89.4833 48.4933 89.7542 48.4364 89.9928 48.3228C90.2352 48.2054 90.4379 48.0368 90.6008 47.8171C90.7636 47.5974 90.8754 47.3304 90.936 47.016H92.9019C92.8527 47.6334 92.6708 48.1808 92.3564 48.658C92.0421 49.1315 91.614 49.5027 91.0724 49.7717C90.5307 50.0368 89.8943 50.1694 89.1633 50.1694Z" fill="#212121" fill-opacity="0.65"/>
<path d="M94.5908 49.9989V41.2717H96.6476V49.9989H94.5908ZM95.6249 40.033C95.2992 40.033 95.0189 39.9251 94.784 39.7092C94.5492 39.4895 94.4317 39.2262 94.4317 38.9194C94.4317 38.6088 94.5492 38.3455 94.784 38.1296C95.0189 37.9099 95.2992 37.8001 95.6249 37.8001C95.9545 37.8001 96.2348 37.9099 96.4658 38.1296C96.7007 38.3455 96.8181 38.6088 96.8181 38.9194C96.8181 39.2262 96.7007 39.4895 96.4658 39.7092C96.2348 39.9251 95.9545 40.033 95.6249 40.033Z" fill="#212121" fill-opacity="0.65"/>
<path d="M102.57 50.1694C101.717 50.1694 100.979 49.9819 100.354 49.6069C99.7286 49.2319 99.2438 48.7073 98.8991 48.033C98.5581 47.3588 98.3877 46.5709 98.3877 45.6694C98.3877 44.7679 98.5581 43.9781 98.8991 43.3001C99.2438 42.622 99.7286 42.0955 100.354 41.7205C100.979 41.3455 101.717 41.158 102.57 41.158C103.422 41.158 104.16 41.3455 104.785 41.7205C105.41 42.0955 105.893 42.622 106.234 43.3001C106.579 43.9781 106.751 44.7679 106.751 45.6694C106.751 46.5709 106.579 47.3588 106.234 48.033C105.893 48.7073 105.41 49.2319 104.785 49.6069C104.16 49.9819 103.422 50.1694 102.57 50.1694ZM102.581 48.5217C103.043 48.5217 103.429 48.3948 103.74 48.141C104.051 47.8834 104.282 47.5387 104.433 47.1069C104.588 46.6751 104.666 46.194 104.666 45.6637C104.666 45.1296 104.588 44.6467 104.433 44.2148C104.282 43.7792 104.051 43.4326 103.74 43.1751C103.429 42.9175 103.043 42.7887 102.581 42.7887C102.107 42.7887 101.713 42.9175 101.399 43.1751C101.088 43.4326 100.855 43.7792 100.7 44.2148C100.549 44.6467 100.473 45.1296 100.473 45.6637C100.473 46.194 100.549 46.6751 100.7 47.1069C100.855 47.5387 101.088 47.8834 101.399 48.141C101.713 48.3948 102.107 48.5217 102.581 48.5217ZM101.78 40.1239L103.052 37.5273H105.064L103.32 40.1239H101.78Z" fill="#212121" fill-opacity="0.65"/>
<path d="M110.554 44.8853V49.9989H108.497V41.2717H110.463V42.7546H110.565C110.766 42.266 111.086 41.8777 111.525 41.5898C111.969 41.302 112.516 41.158 113.168 41.158C113.77 41.158 114.294 41.2868 114.741 41.5444C115.192 41.802 115.541 42.1751 115.787 42.6637C116.037 43.1523 116.16 43.7451 116.156 44.4421V49.9989H114.099V44.7603C114.099 44.177 113.948 43.7205 113.645 43.391C113.346 43.0614 112.931 42.8967 112.4 42.8967C112.041 42.8967 111.721 42.9762 111.44 43.1353C111.164 43.2906 110.946 43.516 110.787 43.8114C110.632 44.1069 110.554 44.4648 110.554 44.8853Z" fill="#212121" fill-opacity="0.65"/>
<path d="M125.454 50.1523C124.769 50.1523 124.155 49.9762 123.614 49.6239C123.072 49.2717 122.644 48.7603 122.329 48.0898C122.015 47.4194 121.858 46.605 121.858 45.6467C121.858 44.677 122.017 43.8588 122.335 43.1921C122.657 42.5217 123.091 42.016 123.636 41.6751C124.182 41.3304 124.79 41.158 125.46 41.158C125.972 41.158 126.392 41.2451 126.722 41.4194C127.051 41.5898 127.312 41.7963 127.506 42.0387C127.699 42.2773 127.848 42.5027 127.954 42.7148H128.04V38.3626H130.102V49.9989H128.079V48.6239H127.954C127.848 48.8361 127.695 49.0614 127.494 49.3001C127.293 49.5349 127.028 49.7357 126.699 49.9023C126.369 50.069 125.954 50.1523 125.454 50.1523ZM126.028 48.4648C126.464 48.4648 126.835 48.3474 127.142 48.1126C127.449 47.8739 127.682 47.5425 127.841 47.1183C128 46.694 128.079 46.1997 128.079 45.6353C128.079 45.0709 128 44.5804 127.841 44.1637C127.686 43.747 127.454 43.4232 127.148 43.1921C126.845 42.9611 126.472 42.8455 126.028 42.8455C125.57 42.8455 125.187 42.9648 124.881 43.2035C124.574 43.4421 124.343 43.7717 124.187 44.1921C124.032 44.6126 123.954 45.0936 123.954 45.6353C123.954 46.1808 124.032 46.6675 124.187 47.0955C124.346 47.5198 124.579 47.855 124.886 48.1012C125.197 48.3436 125.578 48.4648 126.028 48.4648Z" fill="#212121" fill-opacity="0.65"/>
<path d="M136.158 50.1694C135.283 50.1694 134.527 49.9876 133.891 49.6239C133.258 49.2565 132.771 48.7376 132.43 48.0671C132.089 47.3929 131.919 46.5993 131.919 45.6864C131.919 44.7887 132.089 44.0008 132.43 43.3228C132.775 42.641 133.256 42.1107 133.873 41.7319C134.491 41.3493 135.216 41.158 136.05 41.158C136.588 41.158 137.095 41.2451 137.572 41.4194C138.053 41.5898 138.478 41.855 138.845 42.2148C139.216 42.5747 139.508 43.033 139.72 43.5898C139.932 44.1429 140.038 44.802 140.038 45.5671V46.1978H132.885V44.8114H138.067C138.063 44.4175 137.978 44.0671 137.811 43.7603C137.644 43.4497 137.411 43.2054 137.112 43.0273C136.817 42.8493 136.472 42.7603 136.078 42.7603C135.658 42.7603 135.288 42.8626 134.97 43.0671C134.652 43.2679 134.404 43.533 134.226 43.8626C134.052 44.1883 133.963 44.5463 133.959 44.9364V46.1467C133.959 46.6542 134.052 47.0898 134.237 47.4535C134.423 47.8133 134.682 48.0898 135.016 48.283C135.349 48.4724 135.739 48.5671 136.186 48.5671C136.485 48.5671 136.756 48.5255 136.998 48.4421C137.241 48.355 137.451 48.2281 137.629 48.0614C137.807 47.8948 137.942 47.6883 138.033 47.4421L139.953 47.658C139.832 48.1656 139.601 48.6088 139.26 48.9876C138.923 49.3626 138.491 49.6542 137.964 49.8626C137.438 50.0671 136.836 50.1694 136.158 50.1694Z" fill="#212121" fill-opacity="0.65"/>
<path d="M147.804 38.3626V49.9989H145.747V38.3626H147.804Z" fill="#212121" fill-opacity="0.65"/>
<path d="M152.43 50.1751C151.877 50.1751 151.379 50.0766 150.936 49.8796C150.497 49.6789 150.148 49.3834 149.891 48.9933C149.637 48.6031 149.51 48.122 149.51 47.5501C149.51 47.0576 149.601 46.6504 149.783 46.3285C149.964 46.0065 150.213 45.7489 150.527 45.5558C150.841 45.3626 151.195 45.2167 151.589 45.1183C151.987 45.016 152.398 44.9421 152.822 44.8967C153.334 44.8436 153.748 44.7963 154.067 44.7546C154.385 44.7092 154.616 44.641 154.76 44.5501C154.908 44.4554 154.981 44.3095 154.981 44.1126V44.0785C154.981 43.6504 154.855 43.319 154.601 43.0842C154.347 42.8493 153.981 42.7319 153.504 42.7319C153 42.7319 152.601 42.8417 152.305 43.0614C152.014 43.2811 151.817 43.5406 151.714 43.8398L149.794 43.5671C149.945 43.0368 150.195 42.5936 150.544 42.2376C150.892 41.8777 151.319 41.6088 151.822 41.4308C152.326 41.2489 152.883 41.158 153.493 41.158C153.913 41.158 154.332 41.2073 154.748 41.3058C155.165 41.4042 155.546 41.5671 155.891 41.7944C156.235 42.0179 156.512 42.3228 156.72 42.7092C156.932 43.0955 157.038 43.5785 157.038 44.158V49.9989H155.061V48.8001H154.993C154.868 49.0425 154.692 49.2698 154.464 49.4819C154.241 49.6902 153.959 49.8588 153.618 49.9876C153.281 50.1126 152.885 50.1751 152.43 50.1751ZM152.964 48.6637C153.377 48.6637 153.735 48.5823 154.038 48.4194C154.341 48.2527 154.574 48.033 154.737 47.7603C154.904 47.4876 154.987 47.1902 154.987 46.8683V45.8398C154.923 45.8929 154.813 45.9421 154.658 45.9876C154.506 46.033 154.336 46.0728 154.146 46.1069C153.957 46.141 153.769 46.1713 153.584 46.1978C153.398 46.2243 153.237 46.247 153.101 46.266C152.794 46.3076 152.519 46.3758 152.277 46.4705C152.034 46.5652 151.843 46.6978 151.703 46.8683C151.563 47.0349 151.493 47.2508 151.493 47.516C151.493 47.8948 151.631 48.1808 151.908 48.3739C152.184 48.5671 152.536 48.6637 152.964 48.6637Z" fill="#212121" fill-opacity="0.65"/>
<path d="M167.433 41.2717V42.8626H162.416V41.2717H167.433ZM163.655 39.1808H165.712V47.3739C165.712 47.6504 165.753 47.8626 165.837 48.0103C165.924 48.1542 166.037 48.2527 166.177 48.3058C166.318 48.3588 166.473 48.3853 166.643 48.3853C166.772 48.3853 166.89 48.3758 166.996 48.3569C167.105 48.338 167.189 48.3209 167.246 48.3058L167.592 49.9137C167.482 49.9516 167.325 49.9933 167.121 50.0387C166.92 50.0842 166.674 50.1107 166.382 50.1183C165.867 50.1334 165.403 50.0558 164.99 49.8853C164.577 49.7111 164.249 49.4421 164.007 49.0785C163.768 48.7148 163.651 48.2603 163.655 47.7148V39.1808Z" fill="#212121" fill-opacity="0.65"/>
<path d="M169.153 49.9989V41.2717H171.21V49.9989H169.153ZM170.187 40.033C169.862 40.033 169.581 39.9251 169.346 39.7092C169.112 39.4895 168.994 39.2262 168.994 38.9194C168.994 38.6088 169.112 38.3455 169.346 38.1296C169.581 37.9099 169.862 37.8001 170.187 37.8001C170.517 37.8001 170.797 37.9099 171.028 38.1296C171.263 38.3455 171.381 38.6088 171.381 38.9194C171.381 39.2262 171.263 39.4895 171.028 39.7092C170.797 39.9251 170.517 40.033 170.187 40.033Z" fill="#212121" fill-opacity="0.65"/>
<path d="M177.189 50.1694C176.314 50.1694 175.558 49.9876 174.922 49.6239C174.289 49.2565 173.802 48.7376 173.462 48.0671C173.121 47.3929 172.95 46.5993 172.95 45.6864C172.95 44.7887 173.121 44.0008 173.462 43.3228C173.806 42.641 174.287 42.1107 174.905 41.7319C175.522 41.3493 176.248 41.158 177.081 41.158C177.619 41.158 178.126 41.2451 178.604 41.4194C179.085 41.5898 179.509 41.855 179.876 42.2148C180.248 42.5747 180.539 43.033 180.751 43.5898C180.963 44.1429 181.07 44.802 181.07 45.5671V46.1978H173.916V44.8114H179.098C179.094 44.4175 179.009 44.0671 178.842 43.7603C178.676 43.4497 178.443 43.2054 178.143 43.0273C177.848 42.8493 177.503 42.7603 177.109 42.7603C176.689 42.7603 176.32 42.8626 176.001 43.0671C175.683 43.2679 175.435 43.533 175.257 43.8626C175.083 44.1883 174.994 44.5463 174.99 44.9364V46.1467C174.99 46.6542 175.083 47.0898 175.268 47.4535C175.454 47.8133 175.713 48.0898 176.047 48.283C176.38 48.4724 176.77 48.5671 177.217 48.5671C177.516 48.5671 177.787 48.5255 178.03 48.4421C178.272 48.355 178.482 48.2281 178.66 48.0614C178.838 47.8948 178.973 47.6883 179.064 47.4421L180.984 47.658C180.863 48.1656 180.632 48.6088 180.291 48.9876C179.954 49.3626 179.522 49.6542 178.996 49.8626C178.469 50.0671 177.867 50.1694 177.189 50.1694Z" fill="#212121" fill-opacity="0.65"/>
<path d="M184.866 44.8853V49.9989H182.81V41.2717H184.775V42.7546H184.878C185.079 42.266 185.399 41.8777 185.838 41.5898C186.281 41.302 186.829 41.158 187.48 41.158C188.082 41.158 188.607 41.2868 189.054 41.5444C189.505 41.802 189.853 42.1751 190.099 42.6637C190.349 43.1523 190.472 43.7451 190.469 44.4421V49.9989H188.412V44.7603C188.412 44.177 188.26 43.7205 187.957 43.391C187.658 43.0614 187.243 42.8967 186.713 42.8967C186.353 42.8967 186.033 42.9762 185.753 43.1353C185.476 43.2906 185.258 43.516 185.099 43.8114C184.944 44.1069 184.866 44.4648 184.866 44.8853Z" fill="#212121" fill-opacity="0.65"/>
<path d="M195.798 50.1523C195.113 50.1523 194.499 49.9762 193.957 49.6239C193.416 49.2717 192.988 48.7603 192.673 48.0898C192.359 47.4194 192.202 46.605 192.202 45.6467C192.202 44.677 192.361 43.8588 192.679 43.1921C193.001 42.5217 193.435 42.016 193.98 41.6751C194.525 41.3304 195.133 41.158 195.804 41.158C196.315 41.158 196.736 41.2451 197.065 41.4194C197.395 41.5898 197.656 41.7963 197.849 42.0387C198.043 42.2773 198.192 42.5027 198.298 42.7148H198.383V38.3626H200.446V49.9989H198.423V48.6239H198.298C198.192 48.8361 198.039 49.0614 197.838 49.3001C197.637 49.5349 197.372 49.7357 197.043 49.9023C196.713 50.069 196.298 50.1523 195.798 50.1523ZM196.372 48.4648C196.808 48.4648 197.179 48.3474 197.486 48.1126C197.793 47.8739 198.025 47.5425 198.185 47.1183C198.344 46.694 198.423 46.1997 198.423 45.6353C198.423 45.0709 198.344 44.5804 198.185 44.1637C198.029 43.747 197.798 43.4232 197.491 43.1921C197.188 42.9611 196.815 42.8455 196.372 42.8455C195.914 42.8455 195.531 42.9648 195.224 43.2035C194.918 43.4421 194.686 43.7717 194.531 44.1921C194.376 44.6126 194.298 45.0936 194.298 45.6353C194.298 46.1808 194.376 46.6675 194.531 47.0955C194.69 47.5198 194.923 47.855 195.23 48.1012C195.541 48.3436 195.921 48.4648 196.372 48.4648Z" fill="#212121" fill-opacity="0.65"/>
<path d="M205.149 50.1751C204.596 50.1751 204.098 50.0766 203.655 49.8796C203.215 49.6789 202.867 49.3834 202.609 48.9933C202.355 48.6031 202.229 48.122 202.229 47.5501C202.229 47.0576 202.32 46.6504 202.501 46.3285C202.683 46.0065 202.931 45.7489 203.246 45.5558C203.56 45.3626 203.914 45.2167 204.308 45.1183C204.706 45.016 205.117 44.9421 205.541 44.8967C206.052 44.8436 206.467 44.7963 206.785 44.7546C207.104 44.7092 207.335 44.641 207.479 44.5501C207.626 44.4554 207.7 44.3095 207.7 44.1126V44.0785C207.7 43.6504 207.573 43.319 207.32 43.0842C207.066 42.8493 206.7 42.7319 206.223 42.7319C205.719 42.7319 205.32 42.8417 205.024 43.0614C204.732 43.2811 204.535 43.5406 204.433 43.8398L202.513 43.5671C202.664 43.0368 202.914 42.5936 203.263 42.2376C203.611 41.8777 204.037 41.6088 204.541 41.4308C205.045 41.2489 205.602 41.158 206.212 41.158C206.632 41.158 207.051 41.2073 207.467 41.3058C207.884 41.4042 208.265 41.5671 208.609 41.7944C208.954 42.0179 209.23 42.3228 209.439 42.7092C209.651 43.0955 209.757 43.5785 209.757 44.158V49.9989H207.78V48.8001H207.712C207.587 49.0425 207.41 49.2698 207.183 49.4819C206.96 49.6902 206.677 49.8588 206.337 49.9876C205.999 50.1126 205.604 50.1751 205.149 50.1751ZM205.683 48.6637C206.096 48.6637 206.454 48.5823 206.757 48.4194C207.06 48.2527 207.293 48.033 207.456 47.7603C207.623 47.4876 207.706 47.1902 207.706 46.8683V45.8398C207.641 45.8929 207.532 45.9421 207.376 45.9876C207.225 46.033 207.054 46.0728 206.865 46.1069C206.676 46.141 206.488 46.1713 206.302 46.1978C206.117 46.2243 205.956 46.247 205.82 46.266C205.513 46.3076 205.238 46.3758 204.996 46.4705C204.753 46.5652 204.562 46.6978 204.422 46.8683C204.282 47.0349 204.212 47.2508 204.212 47.516C204.212 47.8948 204.35 48.1808 204.626 48.3739C204.903 48.5671 205.255 48.6637 205.683 48.6637Z" fill="#212121" fill-opacity="0.65"/>
<path d="M0.0700881 33.4703C0.120051 33.43 0.192611 33.4173 0.249116 33.4358C0.31811 33.4565 0.38136 33.4745 0.441037 33.4915L0.470183 33.4998C0.617293 33.5418 0.744372 33.5778 0.870266 33.6271C2.85923 34.3978 4.42511 35.7181 5.65751 37.6634C5.96184 38.1441 6.19757 38.6437 6.38533 39.1419C6.07742 37.466 6.00605 36.8131 5.95152 34.9378C5.94895 34.8591 5.94895 34.779 5.94895 34.6996C5.94895 34.4826 5.94895 34.2777 5.90037 34.0907C5.84208 33.8691 5.72491 33.6481 5.61151 33.4343C5.57959 33.3738 5.54767 33.3133 5.5213 33.2601C5.51218 33.2496 5.48264 33.2321 5.47114 33.2303C4.90233 33.1456 4.39933 32.9101 3.93302 32.5105C3.46314 32.1058 3.07673 31.6104 2.7843 31.0377C1.7347 28.9852 1.2095 26.7164 1.22279 24.2953C1.22398 24.0617 1.25213 23.8343 1.28306 23.5871C1.29713 23.4763 1.31141 23.363 1.3233 23.2456C1.33004 23.1812 1.37069 23.124 1.42957 23.0961C1.48766 23.0687 1.55785 23.0706 1.61653 23.1052C1.65202 23.1269 1.68236 23.1445 1.70991 23.1601C1.76325 23.1911 1.80389 23.2152 1.84235 23.2423C2.7377 23.8682 3.52738 24.6474 4.18977 25.5577C5.2707 27.0455 5.89938 28.7278 6.0687 30.5785C6.08555 30.3722 6.10261 30.1659 6.11965 29.9596L6.1256 29.8848C6.19202 29.076 6.26062 28.2396 6.31653 27.4171C6.3306 27.2089 6.37164 27.0062 6.41129 26.8102C6.48782 26.4333 6.56019 26.0774 6.44441 25.7044C6.41804 25.6201 6.39583 25.5352 6.37363 25.4506C6.31891 25.2408 6.05463 24.9177 5.64878 24.5644L5.63352 24.5511C5.48383 24.4273 4.71497 23.7414 4.27879 22.3844C3.83607 21.0059 3.86958 19.5654 3.89396 18.5136L3.89456 18.4856C3.92707 17.0397 4.08727 15.9502 4.41401 14.9523C4.45624 14.8247 4.50639 14.6988 4.55953 14.5666C4.58709 14.4977 4.61524 14.4266 4.64419 14.3521C4.66798 14.2891 4.72508 14.2433 4.79189 14.2325L4.82461 14.2296C4.8825 14.2296 4.93662 14.2549 4.9733 14.2986L5.29072 14.6758C6.81258 16.4859 7.56022 18.6089 7.51343 20.9859C7.50531 21.4045 7.47318 21.834 7.41628 22.2773C7.80309 20.9755 8.25671 19.7083 8.77259 18.4892C8.7833 18.4625 8.79024 18.4295 8.79103 18.4014L8.7946 18.2348C8.79996 17.9943 8.8055 17.7454 8.795 17.5006C8.79341 17.46 8.76645 17.3871 8.71034 17.3154C8.63064 17.2127 8.54221 17.1124 8.45062 17.008C8.29459 16.8309 8.1334 16.648 8.00572 16.4392C7.59452 15.7675 7.40142 14.974 7.39825 13.9417C7.3927 12.7265 7.58481 11.4477 8.00354 9.91693C8.23233 9.08185 8.5777 7.99698 9.22087 7.01341C9.26448 6.94729 9.31325 6.88503 9.3652 6.8191C9.38859 6.7899 9.41318 6.75877 9.43816 6.72532C9.47464 6.67757 9.525 6.64972 9.60629 6.64972C9.67112 6.65436 9.72901 6.69033 9.76132 6.7462C10.5686 8.16712 10.9707 9.6851 10.9897 11.387C11.006 12.8059 10.7788 14.0269 10.4939 14.9919C11.2189 13.7002 12.0247 12.4521 12.898 11.2682L12.918 11.2414C12.9379 11.2156 12.9462 11.2031 12.9448 11.212C12.9997 10.829 13.0378 10.5225 13.0642 10.2557C13.0636 10.2516 13.0584 10.2292 13.0176 10.1627C12.9599 10.0668 12.8966 9.97281 12.8294 9.87342C12.6946 9.6735 12.5554 9.46662 12.4662 9.23499C12.197 8.53584 12.1365 7.74292 12.2818 6.81175C12.6008 4.75085 13.5325 2.89509 15.1293 1.13813C15.2936 0.957735 15.4752 0.798222 15.6673 0.629622L15.7205 0.582639C15.7956 0.51632 15.8727 0.448455 15.9507 0.376723C16.0002 0.330706 16.0712 0.313498 16.14 0.333219C16.205 0.353328 16.2552 0.405918 16.2706 0.47127L16.3055 0.620535C16.3293 0.71953 16.3478 0.797642 16.3615 0.876142C16.5764 2.12711 16.5607 3.46701 16.3133 4.97281C16.0678 6.46624 15.5787 7.75432 14.8283 8.87323C15.9536 7.58012 17.0482 6.49427 18.1922 5.53198C18.1974 5.5254 18.2049 5.50549 18.2055 5.50046C18.1161 4.7493 18.306 4.04164 18.7866 3.33708C19.4177 2.41114 20.2946 1.70541 21.3929 1.23983C22.0502 0.961795 22.7312 0.715663 23.398 0.474557C23.7174 0.358935 24.0368 0.243699 24.3657 0.120149C24.6962 -0.00804094 24.8375 -0.0308561 24.9143 0.0383627C25.013 0.128076 24.9892 0.204643 24.9462 0.343854L24.9323 0.38929C24.5292 1.71334 23.9943 2.76052 23.2967 3.59056C22.0159 5.11589 20.518 5.89083 18.7198 5.95928C18.6567 5.96295 18.6068 5.97996 18.5864 5.99543C18.3332 6.18027 18.1468 6.32819 17.982 6.47474C17.461 6.93917 16.9479 7.43395 16.4459 7.95502C17.1926 7.50258 18.1052 7.29841 19.133 7.34906C19.6954 7.37671 20.2537 7.45715 20.7936 7.53487L20.8142 7.53797C20.9738 7.56078 21.1326 7.5834 21.291 7.60525C21.638 7.65108 21.9877 7.71101 22.2966 7.7636C22.4217 7.78545 22.7205 7.85177 22.7893 7.99311C22.8131 8.04145 22.8111 8.09442 22.7841 8.14257C22.7604 8.18452 22.7342 8.22397 22.7056 8.25993C21.814 9.38812 20.797 10.1312 19.5963 10.5312C18.1323 11.0215 16.7877 10.9811 15.5795 10.4044C15.3947 10.3052 15.1719 10.2549 14.9173 10.2549C14.7252 10.2549 14.5811 10.2845 14.5333 10.2951C14.4617 10.3067 14.3646 10.3458 14.3447 10.3709C13.5933 11.3344 12.8802 12.3634 12.2142 13.4444C12.7769 12.9107 13.5106 12.5509 14.5103 12.3166C15.3864 12.113 16.2822 12.0693 17.1482 12.0267L17.4382 12.0124C17.7098 11.9989 17.9814 11.9821 18.2612 11.9649L18.7303 11.9366C18.791 11.9366 18.8486 11.9653 18.8839 12.0128C18.923 12.0641 18.9323 12.1306 18.9093 12.1903C18.8905 12.2402 18.8562 12.3282 18.8385 12.3576C17.9251 13.8475 16.8525 14.8781 15.5599 15.5084C14.2962 16.124 13.1544 16.2868 12.0027 16.0182C11.8694 15.9869 11.715 15.9703 11.5554 15.9703C11.0655 15.9703 10.7239 16.1161 10.6521 16.251C10.0185 17.5258 9.45303 18.8504 8.96531 20.2015C9.47682 19.5138 10.1921 18.9552 11.0978 18.5374C11.9975 18.1232 12.9343 17.7446 13.856 17.3721C14.2521 17.2124 14.6499 17.0521 15.0458 16.8881C15.1047 16.863 15.1743 16.8682 15.2292 16.9036C15.2831 16.9386 15.3152 16.997 15.3152 17.0598C15.3152 17.1805 14.0007 20.7383 12.0917 22.1402C11.3129 22.7122 10.3537 23.3005 9.14414 23.3282C8.78212 23.3353 8.40779 23.3852 8.12507 23.6986C8.08185 23.7485 8.02455 23.7874 7.9621 23.8081C7.86555 23.839 7.83898 23.8966 7.7914 24.093C7.39963 25.6971 7.11433 27.3504 6.93867 29.0292C6.99181 28.8589 7.05346 28.6868 7.12424 28.5126C7.5515 27.456 8.27059 26.5314 9.3872 25.6027C9.96281 25.122 10.5655 24.6567 11.1484 24.2064L11.1761 24.1851C11.4416 23.9799 11.7065 23.7756 11.9705 23.5687C12.0251 23.526 12.0782 23.4819 12.1399 23.4304L12.3046 23.2928C12.3623 23.2452 12.4482 23.2354 12.5156 23.2682C12.5848 23.3024 12.6262 23.3732 12.6208 23.4488C12.6127 23.5623 12.6062 23.6696 12.6 23.7727L12.5969 23.8208C12.5838 24.0329 12.5715 24.233 12.5495 24.4306C12.3429 26.3546 11.7562 27.961 10.756 29.3413C10.1368 30.1945 9.24862 31.2375 7.86356 31.7307C7.52652 31.8514 7.28206 32.0341 7.02016 32.362C6.77312 32.669 6.72712 32.9496 6.73268 33.3026C6.75627 34.7816 6.86432 36.2487 7.05485 37.6855C7.09946 37.2856 7.19384 36.874 7.33877 36.4463C7.63873 35.5607 8.10623 34.6998 8.76823 33.8142C9.33962 33.0474 9.93421 32.2779 10.5092 31.5333L10.5474 31.4836C10.7754 31.1887 11.0032 30.8935 11.2251 30.6046C11.2667 30.5453 11.3268 30.524 11.3615 30.5122C11.4107 30.4888 11.4693 30.4865 11.5215 30.5082C11.5726 30.5294 11.6119 30.5714 11.6291 30.6228L11.6359 30.6429C11.6454 30.67 11.6529 30.694 11.6569 30.7179C12.0534 33.0238 11.8102 35.0897 10.9134 37.0344C10.4755 37.9853 9.88801 39.0619 8.8523 39.8365C8.37944 40.1901 8.00611 40.6862 7.80111 41.2332C7.75769 41.351 7.75928 41.402 7.76423 41.4217C8.20259 43.1924 8.77517 44.9002 9.47127 46.5166C9.29204 45.6647 9.30433 44.7699 9.50894 43.8428C9.79939 42.5288 10.2986 41.2554 10.7439 40.165L10.8773 39.8384C11.0861 39.3274 11.2963 38.8123 11.5134 38.2785C11.5409 38.2102 11.6073 38.1636 11.696 38.1594C11.7657 38.1594 11.83 38.1982 11.8633 38.2612L11.9333 38.3896C11.964 38.4459 11.9928 38.4983 12.0173 38.5524C12.9131 40.5234 13.2156 42.5439 12.9161 44.5578C12.7019 45.9979 12.3391 47.029 11.7396 47.9014C11.4293 48.3523 11.1345 48.8546 11.0809 49.4724C11.0683 49.6185 11.0742 49.7193 11.141 49.8339C11.8972 51.1253 12.745 52.344 13.6734 53.4762C13.6699 53.47 13.6665 53.4639 13.6629 53.4577C12.995 52.2672 12.9747 50.9801 13.0429 49.8778C13.1018 48.9329 13.2129 47.9894 13.3197 47.0772L13.3259 47.0244C13.3689 46.659 13.4117 46.2937 13.4508 45.9277C13.4734 45.7202 13.4986 45.5128 13.5245 45.3022L13.5588 45.0172C13.5664 44.9542 13.6058 44.8997 13.6625 44.8722C13.768 44.8185 13.9387 44.9014 14.1231 45.1141C15.3902 46.5756 16.1765 48.2272 16.4604 50.0232C16.7548 51.8854 16.5952 53.4789 15.9719 54.895C15.9552 54.9327 15.9556 55.0097 15.9558 55.0354L15.9893 55.8502C15.9943 55.9087 16.026 55.9749 16.0522 55.9994C17.3175 57.1878 18.7105 58.2208 20.2054 59.0806C19.4978 58.4569 18.989 57.6431 18.6593 56.6118C18.2939 55.4687 18.1064 54.279 17.9245 53.1255L17.9087 53.0228C17.8443 52.6176 17.777 52.2131 17.7084 51.7997L17.6309 51.3324C17.6198 51.2643 17.6474 51.1963 17.7015 51.1555C17.7552 51.1137 17.833 51.1036 17.8948 51.1296L17.9624 51.1568C18.0346 51.1856 18.0974 51.2113 18.1567 51.2409C20.9827 52.6174 22.843 55.8277 22.5801 58.8741C22.5389 59.3513 22.5837 59.7995 22.7173 60.2434C22.7298 60.2838 22.7699 60.3277 22.7861 60.3351C24.1284 60.8871 25.4046 61.2898 26.6887 61.5663C26.7547 61.5812 26.8071 61.6272 26.8285 61.6893C26.8501 61.7517 26.837 61.8196 26.793 61.8707C26.6534 62.0319 26.5319 62.2053 26.432 62.3869C26.3909 62.4611 26.2932 62.4992 26.22 62.4807C25.1738 62.2479 24.1549 61.9464 23.1908 61.5841C23.1129 61.5536 23.0534 61.5391 22.9977 61.548C22.7832 61.5758 22.5565 61.6187 22.3049 61.6796C22.253 61.692 22.21 61.7154 22.2092 61.7133C21.6596 62.7817 20.7151 63.4623 19.3207 63.7935C19.0174 63.8645 18.7045 63.9169 18.3909 63.949C18.0625 63.9828 17.6964 64 17.3028 64C16.7576 64 16.3688 63.9671 16.364 63.9667C15.1554 63.8349 14.1233 63.5696 13.2091 63.1556C12.834 62.9861 12.4065 62.7577 12.078 62.35C12.0152 62.2719 12.0257 62.1591 12.102 62.0936C13.0307 61.2945 13.9762 60.7138 14.993 60.3186C16.4996 59.7347 17.872 59.5766 19.2172 59.8289C19.4183 59.867 19.6145 59.9149 19.8053 59.97C18.5469 59.2365 17.3421 58.3743 16.2042 57.3921C16.1824 57.3728 16.1465 57.3558 16.1186 57.3509C15.9324 57.3208 15.6852 57.2836 15.4322 57.2659C15.4088 57.2659 15.3791 57.2769 15.3757 57.278C14.6901 58.0263 13.8068 58.39 12.6754 58.39C12.6177 58.39 12.5598 58.3888 12.5021 58.3869C11.2719 58.3482 10.0351 58.0186 8.82553 57.4066C7.94644 56.9594 7.03007 56.4387 6.28699 55.6622C6.12223 55.4896 5.97512 55.2943 5.84526 55.122L5.83257 55.1052C5.77508 55.0292 5.71698 54.9526 5.65731 54.877C5.62479 54.8362 5.61111 54.7837 5.61964 54.7307C5.62876 54.6796 5.65909 54.6342 5.71084 54.6013C5.72392 54.5944 6.03856 54.4298 6.32584 54.3214C8.24938 53.5965 10.1913 53.5223 12.0439 54.1044C12.6504 54.2945 13.2212 54.5799 13.7769 54.9743C12.7491 53.8092 11.7975 52.5319 10.9334 51.1576C10.9241 51.1431 10.8995 51.1038 10.8916 51.0967C10.8161 51.0497 10.7387 51.0052 10.6616 50.9613C10.5234 50.8823 10.3803 50.8005 10.2459 50.703C10.1325 50.6205 10.1005 50.6184 9.98591 50.6903C9.82378 50.7929 9.63523 50.8463 9.47087 50.8883C8.5093 51.1284 7.54 51.0087 6.4678 50.5178C5.48838 50.07 4.73539 49.3622 4.06724 48.6642C3.09536 47.646 2.46033 46.7274 2.06857 45.773C1.98629 45.5727 1.92761 45.3656 1.86654 45.1491C1.84136 45.0582 1.81559 44.9673 1.78822 44.878C1.75829 44.7821 1.81063 44.6806 1.90778 44.6472L1.98827 44.6412C2.3846 44.6412 5.92001 44.6978 7.98788 46.6545C8.43773 47.0803 8.84099 47.5327 9.20916 48.0281C8.39114 46.3386 7.69742 44.558 7.13832 42.7098L7.13019 42.6827C7.12345 42.6601 7.11334 42.6259 7.1066 42.6166L6.56574 41.8923C6.54552 41.8633 6.54314 41.8633 6.51141 41.8633C6.49734 41.8633 6.48188 41.8643 6.46423 41.8653L6.34865 41.872C5.94617 41.8964 5.70925 41.8929 5.51436 41.8631C4.74431 41.7446 4.0492 41.3664 3.38958 40.7067C1.84691 39.1638 0.78502 37.2388 0.143445 34.8223C0.0746491 34.5635 0.0554151 34.302 0.0347971 34.0248C0.0256761 33.8991 0.0155671 33.7696 0.000895134 33.6358C-0.00525187 33.5716 0.0205241 33.5103 0.0700881 33.4703Z" fill="#212121" fill-opacity="0.45"/>
<path d="M64.9921 11.408C66.2591 9.136 66.8921 8 67.8391 8C68.7861 8 69.4191 9.136 70.6861 11.408L71.0141 11.996C71.3741 12.642 71.5541 12.965 71.8341 13.178C72.1141 13.391 72.4641 13.47 73.1641 13.628L73.8001 13.772C76.2601 14.329 77.4891 14.607 77.7821 15.548C78.0741 16.488 77.2361 17.469 75.5591 19.43L75.1251 19.937C74.6491 20.494 74.4101 20.773 74.3031 21.117C74.1961 21.462 74.2321 21.834 74.3041 22.577L74.3701 23.254C74.6231 25.871 74.7501 27.179 73.9841 27.76C73.2181 28.341 72.0661 27.811 69.7641 26.751L69.1671 26.477C68.5131 26.175 68.1861 26.025 67.8391 26.025C67.4921 26.025 67.1651 26.175 66.5111 26.477L65.9151 26.751C63.6121 27.811 62.4601 28.341 61.6951 27.761C60.9281 27.179 61.0551 25.871 61.3081 23.254L61.3741 22.578C61.4461 21.834 61.4821 21.462 61.3741 21.118C61.2681 20.773 61.0291 20.494 60.5531 19.938L60.1191 19.43C58.4421 17.47 57.6041 16.489 57.8961 15.548C58.1881 14.607 59.4191 14.328 61.8791 13.772L62.5151 13.628C63.2141 13.47 63.5631 13.391 63.8441 13.178C64.1251 12.965 64.3041 12.642 64.6641 11.996L64.9921 11.408Z" fill="#FF9500"/>
<path d="M90.9926 11.408C92.2596 9.136 92.8926 8 93.8396 8C94.7866 8 95.4196 9.136 96.6866 11.408L97.0146 11.996C97.3746 12.642 97.5546 12.965 97.8346 13.178C98.1146 13.391 98.4646 13.47 99.1646 13.628L99.8006 13.772C102.261 14.329 103.49 14.607 103.783 15.548C104.075 16.488 103.237 17.469 101.56 19.43L101.126 19.937C100.65 20.494 100.411 20.773 100.304 21.117C100.197 21.462 100.233 21.834 100.305 22.577L100.371 23.254C100.624 25.871 100.751 27.179 99.9846 27.76C99.2186 28.341 98.0666 27.811 95.7646 26.751L95.1676 26.477C94.5136 26.175 94.1866 26.025 93.8396 26.025C93.4926 26.025 93.1656 26.175 92.5116 26.477L91.9156 26.751C89.6126 27.811 88.4606 28.341 87.6956 27.761C86.9286 27.179 87.0556 25.871 87.3086 23.254L87.3746 22.578C87.4466 21.834 87.4826 21.462 87.3746 21.118C87.2686 20.773 87.0296 20.494 86.5536 19.938L86.1196 19.43C84.4426 17.47 83.6046 16.489 83.8966 15.548C84.1886 14.607 85.4196 14.328 87.8796 13.772L88.5156 13.628C89.2146 13.47 89.5636 13.391 89.8446 13.178C90.1256 12.965 90.3046 12.642 90.6646 11.996L90.9926 11.408Z" fill="#FF9500"/>
<path d="M116.993 11.408C118.26 9.136 118.893 8 119.84 8C120.787 8 121.42 9.136 122.687 11.408L123.015 11.996C123.375 12.642 123.555 12.965 123.835 13.178C124.115 13.391 124.465 13.47 125.165 13.628L125.801 13.772C128.261 14.329 129.49 14.607 129.783 15.548C130.075 16.488 129.237 17.469 127.56 19.43L127.126 19.937C126.65 20.494 126.411 20.773 126.304 21.117C126.197 21.462 126.233 21.834 126.305 22.577L126.371 23.254C126.624 25.871 126.751 27.179 125.985 27.76C125.219 28.341 124.067 27.811 121.765 26.751L121.168 26.477C120.514 26.175 120.187 26.025 119.84 26.025C119.493 26.025 119.166 26.175 118.512 26.477L117.916 26.751C115.613 27.811 114.461 28.341 113.696 27.761C112.929 27.179 113.056 25.871 113.309 23.254L113.375 22.578C113.447 21.834 113.483 21.462 113.375 21.118C113.269 20.773 113.03 20.494 112.554 19.938L112.12 19.43C110.443 17.47 109.605 16.489 109.897 15.548C110.189 14.607 111.42 14.328 113.88 13.772L114.516 13.628C115.215 13.47 115.564 13.391 115.845 13.178C116.126 12.965 116.305 12.642 116.665 11.996L116.993 11.408Z" fill="#FF9500"/>
<path d="M142.993 11.408C144.26 9.136 144.893 8 145.84 8C146.787 8 147.42 9.136 148.687 11.408L149.015 11.996C149.375 12.642 149.555 12.965 149.835 13.178C150.115 13.391 150.465 13.47 151.165 13.628L151.801 13.772C154.261 14.329 155.49 14.607 155.783 15.548C156.075 16.488 155.237 17.469 153.56 19.43L153.126 19.937C152.65 20.494 152.411 20.773 152.304 21.117C152.197 21.462 152.233 21.834 152.305 22.577L152.371 23.254C152.624 25.871 152.751 27.179 151.985 27.76C151.219 28.341 150.067 27.811 147.765 26.751L147.168 26.477C146.514 26.175 146.187 26.025 145.84 26.025C145.493 26.025 145.166 26.175 144.512 26.477L143.916 26.751C141.613 27.811 140.461 28.341 139.696 27.761C138.929 27.179 139.056 25.871 139.309 23.254L139.375 22.578C139.447 21.834 139.483 21.462 139.375 21.118C139.269 20.773 139.03 20.494 138.554 19.938L138.12 19.43C136.443 17.47 135.605 16.489 135.897 15.548C136.189 14.607 137.42 14.328 139.88 13.772L140.516 13.628C141.215 13.47 141.564 13.391 141.845 13.178C142.126 12.965 142.305 12.642 142.665 11.996L142.993 11.408Z" fill="#FF9500"/>
<path d="M168.994 11.408C170.261 9.136 170.894 8 171.841 8C172.788 8 173.421 9.136 174.688 11.408L175.016 11.996C175.376 12.642 175.556 12.965 175.836 13.178C176.116 13.391 176.466 13.47 177.166 13.628L177.802 13.772C180.262 14.329 181.491 14.607 181.784 15.548C182.076 16.488 181.238 17.469 179.561 19.43L179.127 19.937C178.651 20.494 178.412 20.773 178.305 21.117C178.198 21.462 178.234 21.834 178.306 22.577L178.372 23.254C178.625 25.871 178.752 27.179 177.986 27.76C177.22 28.341 176.068 27.811 173.766 26.751L173.169 26.477C172.515 26.175 172.188 26.025 171.841 26.025C171.494 26.025 171.167 26.175 170.513 26.477L169.917 26.751C167.614 27.811 166.462 28.341 165.697 27.761C164.93 27.179 165.057 25.871 165.31 23.254L165.376 22.578C165.448 21.834 165.484 21.462 165.376 21.118C165.27 20.773 165.031 20.494 164.555 19.938L164.121 19.43C162.444 17.47 161.606 16.489 161.898 15.548C162.19 14.607 163.421 14.328 165.881 13.772L166.517 13.628C167.216 13.47 167.565 13.391 167.846 13.178C168.127 12.965 168.306 12.642 168.666 11.996L168.994 11.408Z" fill="#212121" fill-opacity="0.1"/>
<path d="M168.996 11.4044L168.994 11.408L168.666 11.996L168.659 12.0079C168.303 12.646 168.125 12.9663 167.846 13.178C167.565 13.391 167.216 13.47 166.517 13.628L165.881 13.772C163.421 14.328 162.19 14.607 161.898 15.548C161.606 16.489 162.444 17.47 164.121 19.43L164.555 19.938L164.556 19.9393C165.031 20.4944 165.27 20.7733 165.376 21.118C165.484 21.462 165.448 21.834 165.376 22.578L165.31 23.254L165.309 23.2591C165.056 25.8727 164.93 27.1794 165.697 27.761C166.462 28.341 167.614 27.811 169.917 26.751L170.513 26.477C171.167 26.175 171.494 26.025 171.841 26.025C172.188 26.025 172.515 26.175 173.169 26.477L173.766 26.751C176.068 27.811 177.22 28.341 177.986 27.76C178.751 27.1794 178.625 25.8727 178.372 23.2592L178.372 23.254L178.306 22.577C178.234 21.834 178.198 21.462 178.305 21.117C178.411 20.774 178.649 20.4957 179.122 19.942L179.127 19.937L179.561 19.43V14.1885C179.423 14.1522 179.278 14.1158 179.127 14.0789C178.872 14.0168 178.598 13.9533 178.305 13.8862C178.144 13.8496 177.978 13.8119 177.805 13.7728L177.802 13.772L177.166 13.628C176.466 13.47 176.116 13.391 175.836 13.178C175.556 12.965 175.376 12.642 175.016 11.996L174.688 11.408L174.686 11.4044C173.42 9.1348 172.787 8 171.841 8C170.894 8 170.261 9.1348 168.996 11.4044Z" fill="#FF9500"/>
<path d="M243.608 33.4703C243.558 33.43 243.485 33.4173 243.429 33.4358C243.36 33.4565 243.296 33.4745 243.237 33.4915L243.208 33.4998C243.06 33.5418 242.933 33.5778 242.807 33.6271C240.818 34.3978 239.253 35.7181 238.02 37.6634C237.716 38.1441 237.48 38.6437 237.292 39.1419C237.6 37.466 237.672 36.8131 237.726 34.9378C237.729 34.8591 237.729 34.779 237.729 34.6996C237.729 34.4826 237.729 34.2777 237.777 34.0907C237.836 33.8691 237.953 33.6481 238.066 33.4343C238.098 33.3738 238.13 33.3133 238.156 33.2601C238.166 33.2497 238.195 33.2321 238.207 33.2303C238.775 33.1456 239.278 32.9101 239.745 32.5105C240.215 32.1058 240.601 31.6104 240.893 31.0377C241.943 28.9852 242.468 26.7164 242.455 24.2953C242.454 24.0617 242.426 23.8344 242.395 23.5871C242.381 23.4763 242.366 23.363 242.354 23.2456C242.348 23.1812 242.307 23.124 242.248 23.0961C242.19 23.0687 242.12 23.0706 242.061 23.1052C242.026 23.1269 241.995 23.1445 241.968 23.1601C241.914 23.1911 241.874 23.2152 241.835 23.2423C240.94 23.8682 240.15 24.6474 239.488 25.5577C238.407 27.0455 237.778 28.7278 237.609 30.5785C237.592 30.3722 237.575 30.1659 237.558 29.9596L237.552 29.8848C237.486 29.076 237.417 28.2396 237.361 27.4171C237.347 27.2089 237.306 27.0062 237.266 26.8102C237.19 26.4333 237.118 26.0774 237.233 25.7044C237.26 25.6201 237.282 25.5352 237.304 25.4506C237.359 25.2408 237.623 24.9177 238.029 24.5644L238.044 24.5511C238.194 24.4273 238.963 23.7413 239.399 22.3844C239.842 21.0059 239.808 19.5654 239.784 18.5136L239.783 18.4856C239.751 17.0397 239.59 15.9502 239.264 14.9523C239.221 14.8247 239.171 14.6988 239.118 14.5666C239.091 14.4977 239.062 14.4266 239.034 14.3521C239.01 14.2891 238.953 14.2433 238.886 14.2325L238.853 14.2296C238.795 14.2296 238.741 14.2549 238.704 14.2986L238.387 14.6758C236.865 16.4859 236.117 18.6089 236.164 20.9859C236.172 21.4045 236.205 21.834 236.261 22.2773C235.875 20.9755 235.421 19.7083 234.905 18.4892C234.894 18.4625 234.887 18.4295 234.887 18.4014L234.883 18.2348C234.878 17.9943 234.872 17.7454 234.883 17.5006C234.884 17.46 234.911 17.3871 234.967 17.3154C235.047 17.2127 235.135 17.1124 235.227 17.008C235.383 16.8309 235.544 16.648 235.672 16.4392C236.083 15.7675 236.276 14.974 236.279 13.9417C236.285 12.7265 236.093 11.4477 235.674 9.91693C235.445 9.08185 235.1 7.99698 234.457 7.01341C234.413 6.94729 234.364 6.88503 234.313 6.8191C234.289 6.7899 234.265 6.75877 234.24 6.72532C234.203 6.67757 234.153 6.64972 234.071 6.64972C234.007 6.65436 233.949 6.69033 233.916 6.7462C233.109 8.16712 232.707 9.6851 232.688 11.387C232.672 12.8059 232.899 14.0269 233.184 14.9919C232.459 13.7002 231.653 12.4521 230.78 11.2682L230.76 11.2414C230.74 11.2156 230.732 11.2031 230.733 11.212C230.678 10.829 230.64 10.5225 230.614 10.2557C230.614 10.2516 230.619 10.2292 230.66 10.1627C230.718 10.0668 230.781 9.97281 230.848 9.87342C230.983 9.6735 231.122 9.46662 231.212 9.23499C231.481 8.53584 231.541 7.74292 231.396 6.81175C231.077 4.75085 230.145 2.89509 228.548 1.13813C228.384 0.957735 228.202 0.798222 228.01 0.629622L227.957 0.582639C227.882 0.51632 227.805 0.448455 227.727 0.376723C227.677 0.330706 227.607 0.313498 227.538 0.333219C227.473 0.353328 227.423 0.405918 227.407 0.47127L227.372 0.620535C227.348 0.71953 227.33 0.797642 227.316 0.876142C227.101 2.12711 227.117 3.46701 227.364 4.97281C227.61 6.46624 228.099 7.75432 228.849 8.87323C227.724 7.58012 226.629 6.49427 225.485 5.53198C225.48 5.5254 225.473 5.50549 225.472 5.50046C225.562 4.7493 225.372 4.04165 224.891 3.33708C224.26 2.41114 223.383 1.70541 222.285 1.23983C221.628 0.961796 220.946 0.715663 220.28 0.474557C219.96 0.358935 219.641 0.243699 219.312 0.120149C218.982 -0.00804093 218.84 -0.0308561 218.763 0.0383627C218.665 0.128076 218.688 0.204643 218.732 0.343854L218.745 0.38929C219.148 1.71334 219.683 2.76052 220.381 3.59056C221.662 5.11589 223.16 5.89083 224.958 5.95928C225.021 5.96295 225.071 5.97996 225.091 5.99543C225.345 6.18027 225.531 6.32819 225.696 6.47474C226.217 6.93917 226.73 7.43395 227.232 7.95502C226.485 7.50258 225.573 7.29841 224.545 7.34906C223.982 7.37671 223.424 7.45715 222.884 7.53487L222.863 7.53797C222.704 7.56078 222.545 7.5834 222.387 7.60525C222.04 7.65108 221.69 7.71101 221.381 7.7636C221.256 7.78545 220.957 7.85177 220.888 7.99311C220.865 8.04145 220.867 8.09442 220.894 8.14257C220.917 8.18452 220.944 8.22397 220.972 8.25993C221.864 9.38812 222.881 10.1312 224.081 10.5312C225.545 11.0215 226.89 10.9811 228.098 10.4044C228.283 10.3052 228.506 10.2549 228.76 10.2549C228.953 10.2549 229.097 10.2845 229.144 10.2951C229.216 10.3067 229.313 10.3458 229.333 10.3709C230.084 11.3344 230.798 12.3634 231.463 13.4444C230.901 12.9107 230.167 12.5509 229.167 12.3166C228.291 12.113 227.396 12.0693 226.53 12.0267L226.239 12.0124C225.968 11.9989 225.696 11.9821 225.417 11.9649L224.947 11.9366C224.887 11.9366 224.829 11.9653 224.794 12.0128C224.755 12.0641 224.745 12.1306 224.768 12.1903C224.787 12.2402 224.822 12.3282 224.839 12.3576C225.753 13.8475 226.825 14.8781 228.118 15.5084C229.382 16.124 230.523 16.2868 231.675 16.0182C231.808 15.9869 231.963 15.9703 232.122 15.9703C232.612 15.9703 232.954 16.1161 233.026 16.251C233.659 17.5258 234.225 18.8504 234.712 20.2015C234.201 19.5138 233.486 18.9552 232.58 18.5374C231.68 18.1232 230.743 17.7446 229.822 17.3721C229.426 17.2124 229.028 17.0521 228.632 16.8881C228.573 16.863 228.503 16.8682 228.449 16.9036C228.395 16.9386 228.362 16.997 228.362 17.0598C228.362 17.1805 229.677 20.7383 231.586 22.1402C232.365 22.7122 233.324 23.3005 234.534 23.3282C234.896 23.3353 235.27 23.3852 235.553 23.6986C235.596 23.7485 235.653 23.7874 235.716 23.8081C235.812 23.839 235.839 23.8966 235.886 24.093C236.278 25.6971 236.563 27.3504 236.739 29.0292C236.686 28.8589 236.624 28.6868 236.553 28.5126C236.126 27.456 235.407 26.5314 234.291 25.6027C233.715 25.122 233.112 24.6567 232.529 24.2064L232.502 24.1851C232.236 23.9799 231.971 23.7756 231.707 23.5687C231.653 23.526 231.599 23.4819 231.538 23.4304L231.373 23.2928C231.315 23.2452 231.23 23.2354 231.162 23.2682C231.093 23.3024 231.052 23.3732 231.057 23.4488C231.065 23.5623 231.072 23.6696 231.078 23.7727L231.081 23.8208C231.094 24.0329 231.106 24.233 231.128 24.4306C231.335 26.3546 231.921 27.961 232.922 29.3413C233.541 30.1945 234.429 31.2375 235.814 31.7307C236.151 31.8514 236.396 32.0341 236.658 32.362C236.905 32.669 236.951 32.9496 236.945 33.3026C236.921 34.7816 236.813 36.2487 236.623 37.6855C236.578 37.2856 236.484 36.874 236.339 36.4463C236.039 35.5607 235.571 34.6998 234.909 33.8142C234.338 33.0474 233.744 32.2779 233.169 31.5333L233.13 31.4836C232.902 31.1887 232.674 30.8935 232.453 30.6046C232.411 30.5453 232.351 30.524 232.316 30.5122C232.267 30.4888 232.208 30.4865 232.156 30.5082C232.105 30.5294 232.066 30.5714 232.049 30.6228L232.042 30.6429C232.032 30.67 232.025 30.694 232.021 30.7179C231.624 33.0238 231.868 35.0897 232.764 37.0344C233.202 37.9853 233.79 39.0619 234.825 39.8365C235.298 40.1901 235.672 40.6862 235.877 41.2332C235.92 41.351 235.918 41.402 235.913 41.4217C235.475 43.1924 234.903 44.9002 234.206 46.5166C234.386 45.6648 234.373 44.7699 234.169 43.8428C233.878 42.5288 233.379 41.2554 232.934 40.165L232.8 39.8384C232.592 39.3274 232.381 38.8123 232.164 38.2785C232.137 38.2102 232.07 38.1636 231.982 38.1594C231.912 38.1594 231.848 38.1982 231.814 38.2612L231.744 38.3896C231.714 38.4459 231.685 38.4983 231.66 38.5524C230.765 40.5234 230.462 42.5439 230.762 44.5578C230.976 45.9979 231.339 47.029 231.938 47.9014C232.248 48.3523 232.543 48.8546 232.597 49.4724C232.609 49.6185 232.603 49.7193 232.537 49.8339C231.781 51.1253 230.933 52.344 230.004 53.4762C230.008 53.47 230.011 53.4639 230.015 53.4577C230.683 52.2672 230.703 50.9801 230.635 49.8778C230.576 48.9329 230.465 47.9894 230.358 47.0772L230.352 47.0244C230.309 46.659 230.266 46.2937 230.227 45.9277C230.204 45.7202 230.179 45.5128 230.153 45.3022L230.119 45.0172C230.111 44.9542 230.072 44.8997 230.015 44.8722C229.91 44.8185 229.739 44.9014 229.555 45.1141C228.288 46.5756 227.501 48.2272 227.217 50.0232C226.923 51.8854 227.082 53.4789 227.706 54.895C227.722 54.9327 227.722 55.0097 227.722 55.0354L227.688 55.8502C227.683 55.9087 227.652 55.9749 227.626 55.9994C226.36 57.1878 224.967 58.2208 223.472 59.0806C224.18 58.4569 224.689 57.6431 225.018 56.6118C225.384 55.4687 225.571 54.279 225.753 53.1255L225.769 53.0228C225.833 52.6176 225.901 52.2131 225.969 51.7997L226.047 51.3324C226.058 51.2643 226.03 51.1963 225.976 51.1555C225.922 51.1137 225.845 51.1036 225.783 51.1296L225.715 51.1568C225.643 51.1856 225.58 51.2113 225.521 51.2409C222.695 52.6174 220.835 55.8277 221.098 58.8741C221.139 59.3513 221.094 59.7995 220.96 60.2434C220.948 60.2838 220.908 60.3277 220.892 60.3351C219.549 60.8871 218.273 61.2898 216.989 61.5663C216.923 61.5812 216.871 61.6272 216.849 61.6893C216.828 61.7517 216.841 61.8196 216.885 61.8706C217.024 62.0319 217.146 62.2053 217.246 62.3869C217.287 62.4611 217.385 62.4992 217.458 62.4807C218.504 62.2479 219.523 61.9464 220.487 61.5841C220.565 61.5536 220.624 61.5391 220.68 61.548C220.895 61.5758 221.121 61.6187 221.373 61.6796C221.425 61.692 221.468 61.7154 221.469 61.7133C222.018 62.7817 222.963 63.4623 224.357 63.7935C224.66 63.8645 224.973 63.9169 225.287 63.949C225.615 63.9828 225.981 64 226.375 64C226.92 64 227.309 63.9671 227.314 63.9667C228.522 63.8349 229.554 63.5696 230.469 63.1556C230.844 62.9861 231.271 62.7577 231.6 62.35C231.663 62.2719 231.652 62.1591 231.576 62.0936C230.647 61.2945 229.702 60.7138 228.685 60.3186C227.178 59.7347 225.806 59.5766 224.46 59.8289C224.259 59.867 224.063 59.9149 223.872 59.97C225.131 59.2365 226.336 58.3743 227.473 57.3921C227.495 57.3728 227.531 57.3558 227.559 57.3509C227.745 57.3208 227.993 57.2837 228.246 57.2659C228.269 57.2659 228.299 57.2769 228.302 57.278C228.988 58.0263 229.871 58.39 231.002 58.39C231.06 58.39 231.118 58.3888 231.176 58.3869C232.406 58.3482 233.643 58.0186 234.852 57.4066C235.731 56.9594 236.648 56.4387 237.391 55.6622C237.555 55.4896 237.703 55.2943 237.832 55.122L237.845 55.1052C237.903 55.0292 237.961 54.9526 238.02 54.877C238.053 54.8363 238.067 54.7837 238.058 54.7307C238.049 54.6796 238.019 54.6342 237.967 54.6013C237.954 54.5944 237.639 54.4298 237.352 54.3214C235.428 53.5965 233.486 53.5223 231.634 54.1044C231.027 54.2945 230.457 54.5799 229.901 54.9743C230.929 53.8092 231.88 52.5319 232.744 51.1576C232.754 51.1431 232.778 51.1038 232.786 51.0967C232.862 51.0497 232.939 51.0052 233.016 50.9613C233.154 50.8823 233.297 50.8005 233.432 50.703C233.545 50.6205 233.577 50.6184 233.692 50.6903C233.854 50.7929 234.042 50.8463 234.207 50.8883C235.168 51.1284 236.138 51.0087 237.21 50.5178C238.189 50.07 238.942 49.3622 239.61 48.6642C240.582 47.646 241.217 46.7274 241.609 45.773C241.691 45.5727 241.75 45.3656 241.811 45.1491C241.836 45.0582 241.862 44.9674 241.889 44.878C241.919 44.7821 241.867 44.6806 241.77 44.6472L241.689 44.6412C241.293 44.6412 237.758 44.6978 235.69 46.6545C235.24 47.0803 234.837 47.5327 234.469 48.0281C235.287 46.3386 235.98 44.558 236.539 42.7098L236.548 42.6827C236.554 42.6601 236.564 42.6259 236.571 42.6166L237.112 41.8923C237.132 41.8633 237.135 41.8633 237.166 41.8633C237.18 41.8633 237.196 41.8643 237.213 41.8653L237.329 41.872C237.732 41.8964 237.968 41.8929 238.163 41.8631C238.933 41.7446 239.629 41.3664 240.288 40.7067C241.831 39.1638 242.893 37.2388 243.534 34.8223C243.603 34.5635 243.622 34.302 243.643 34.0248C243.652 33.8991 243.662 33.7696 243.677 33.6358C243.683 33.5716 243.657 33.5103 243.608 33.4703Z" fill="#212121" fill-opacity="0.45"/>
</svg>
