<svg width="244" height="64" viewBox="0 0 244 64" fill="none" xmlns="http://www.w3.org/2000/svg">
<path d="M35.8616 50.1818C35.0434 50.1818 34.3389 49.9886 33.748 49.6023C33.157 49.2159 32.7025 48.6837 32.3843 48.0057C32.0661 47.3277 31.907 46.553 31.907 45.6818C31.907 44.7955 32.0699 44.0133 32.3957 43.3352C32.7252 42.6534 33.1836 42.1212 33.7707 41.7386C34.3616 41.3523 35.051 41.1591 35.8389 41.1591C36.4525 41.1591 37.0055 41.2727 37.498 41.5C37.9904 41.7273 38.3938 42.0455 38.7082 42.4545C39.0226 42.8636 39.2177 43.3409 39.2934 43.8864H37.9525C37.8502 43.4886 37.623 43.1364 37.2707 42.8295C36.9222 42.5189 36.4525 42.3636 35.8616 42.3636C35.3389 42.3636 34.8805 42.5 34.4866 42.7727C34.0964 43.0417 33.7915 43.4223 33.5718 43.9148C33.3559 44.4034 33.248 44.9773 33.248 45.6364C33.248 46.3106 33.354 46.8977 33.5661 47.3977C33.782 47.8977 34.0851 48.286 34.4752 48.5625C34.8692 48.839 35.3313 48.9773 35.8616 48.9773C36.2101 48.9773 36.5264 48.9167 36.8105 48.7955C37.0945 48.6742 37.3351 48.5 37.532 48.2727C37.729 48.0455 37.8692 47.7727 37.9525 47.4545H39.2934C39.2177 47.9697 39.0302 48.4337 38.7309 48.8466C38.4355 49.2557 38.0434 49.5814 37.5548 49.8239C37.0699 50.0625 36.5055 50.1818 35.8616 50.1818ZM43.8218 50.2045C43.2688 50.2045 42.7669 50.1004 42.3161 49.892C41.8654 49.6799 41.5074 49.375 41.2423 48.9773C40.9771 48.5758 40.8445 48.0909 40.8445 47.5227C40.8445 47.0227 40.943 46.6174 41.14 46.3068C41.337 45.9924 41.6002 45.7462 41.9298 45.5682C42.2593 45.3902 42.623 45.2576 43.0207 45.1705C43.4222 45.0795 43.8256 45.0076 44.2309 44.9545C44.7612 44.8864 45.1911 44.8352 45.5207 44.8011C45.854 44.7633 46.0964 44.7008 46.248 44.6136C46.4033 44.5265 46.4809 44.375 46.4809 44.1591V44.1136C46.4809 43.553 46.3275 43.1174 46.0207 42.8068C45.7177 42.4962 45.2574 42.3409 44.64 42.3409C43.9999 42.3409 43.498 42.4811 43.1343 42.7614C42.7707 43.0417 42.515 43.3409 42.3673 43.6591L41.0945 43.2045C41.3218 42.6742 41.6249 42.2614 42.0036 41.9659C42.3862 41.6667 42.8029 41.4583 43.2536 41.3409C43.7082 41.2197 44.1552 41.1591 44.5945 41.1591C44.8749 41.1591 45.1968 41.1932 45.5605 41.2614C45.9279 41.3258 46.282 41.4602 46.623 41.6648C46.9677 41.8693 47.2536 42.178 47.4809 42.5909C47.7082 43.0038 47.8218 43.5568 47.8218 44.25V50H46.4809V48.8182H46.4127C46.3218 49.0076 46.1703 49.2102 45.9582 49.4261C45.7461 49.642 45.4639 49.8258 45.1116 49.9773C44.7593 50.1288 44.3294 50.2045 43.8218 50.2045ZM44.0264 49C44.5567 49 45.0036 48.8958 45.3673 48.6875C45.7347 48.4792 46.0112 48.2102 46.1968 47.8807C46.3862 47.5511 46.4809 47.2045 46.4809 46.8409V45.6136C46.4241 45.6818 46.2991 45.7443 46.1059 45.8011C45.9165 45.8542 45.6968 45.9015 45.4468 45.9432C45.2006 45.9811 44.9601 46.0152 44.7252 46.0455C44.4942 46.072 44.3067 46.0947 44.1627 46.1136C43.8142 46.1591 43.4885 46.233 43.1855 46.3352C42.8862 46.4337 42.6438 46.5833 42.4582 46.7841C42.2764 46.9811 42.1855 47.25 42.1855 47.5909C42.1855 48.0568 42.3578 48.4091 42.7025 48.6477C43.051 48.8826 43.4923 49 44.0264 49ZM51.6102 38.3636V50H50.2693V38.3636H51.6102ZM54.0661 50V41.2727H55.407V50H54.0661ZM54.748 39.8182C54.4866 39.8182 54.2612 39.7292 54.0718 39.5511C53.8862 39.3731 53.7934 39.1591 53.7934 38.9091C53.7934 38.6591 53.8862 38.4451 54.0718 38.267C54.2612 38.089 54.4866 38 54.748 38C55.0093 38 55.2328 38.089 55.4184 38.267C55.6078 38.4451 55.7025 38.6591 55.7025 38.9091C55.7025 39.1591 55.6078 39.3731 55.4184 39.5511C55.2328 39.7292 55.0093 39.8182 54.748 39.8182ZM61.7494 41.2727V42.4091H57.0448V41.2727H61.7494ZM58.4539 50V40.0682C58.4539 39.5682 58.5713 39.1515 58.8062 38.8182C59.041 38.4848 59.346 38.2348 59.721 38.0682C60.096 37.9015 60.4918 37.8182 60.9085 37.8182C61.238 37.8182 61.507 37.8447 61.7153 37.8977C61.9236 37.9508 62.0789 38 62.1812 38.0455L61.7948 39.2045C61.7267 39.1818 61.632 39.1534 61.5107 39.1193C61.3933 39.0852 61.238 39.0682 61.0448 39.0682C60.6017 39.0682 60.2816 39.1799 60.0846 39.4034C59.8914 39.6269 59.7948 39.9545 59.7948 40.3864V50H58.4539ZM63.6286 50V41.2727H64.9695V50H63.6286ZM64.3105 39.8182C64.0491 39.8182 63.8237 39.7292 63.6343 39.5511C63.4487 39.3731 63.3559 39.1591 63.3559 38.9091C63.3559 38.6591 63.4487 38.4451 63.6343 38.267C63.8237 38.089 64.0491 38 64.3105 38C64.5718 38 64.7953 38.089 64.9809 38.267C65.1703 38.4451 65.265 38.6591 65.265 38.9091C65.265 39.1591 65.1703 39.3731 64.9809 39.5511C64.7953 39.7292 64.5718 39.8182 64.3105 39.8182ZM70.971 50.1818C70.1528 50.1818 69.4482 49.9886 68.8573 49.6023C68.2664 49.2159 67.8119 48.6837 67.4937 48.0057C67.1755 47.3277 67.0164 46.553 67.0164 45.6818C67.0164 44.7955 67.1793 44.0133 67.5051 43.3352C67.8346 42.6534 68.2929 42.1212 68.8801 41.7386C69.471 41.3523 70.1604 41.1591 70.9482 41.1591C71.5619 41.1591 72.1149 41.2727 72.6073 41.5C73.0998 41.7273 73.5032 42.0455 73.8176 42.4545C74.132 42.8636 74.327 43.3409 74.4028 43.8864H73.0619C72.9596 43.4886 72.7323 43.1364 72.3801 42.8295C72.0316 42.5189 71.5619 42.3636 70.971 42.3636C70.4482 42.3636 69.9899 42.5 69.596 42.7727C69.2058 43.0417 68.9009 43.4223 68.6812 43.9148C68.4653 44.4034 68.3573 44.9773 68.3573 45.6364C68.3573 46.3106 68.4634 46.8977 68.6755 47.3977C68.8914 47.8977 69.1945 48.286 69.5846 48.5625C69.9785 48.839 70.4407 48.9773 70.971 48.9773C71.3195 48.9773 71.6357 48.9167 71.9198 48.7955C72.2039 48.6742 72.4445 48.5 72.6414 48.2727C72.8384 48.0455 72.9785 47.7727 73.0619 47.4545H74.4028C74.327 47.9697 74.1395 48.4337 73.8403 48.8466C73.5448 49.2557 73.1528 49.5814 72.6642 49.8239C72.1793 50.0625 71.6149 50.1818 70.971 50.1818ZM78.9312 50.2045C78.3782 50.2045 77.8763 50.1004 77.4255 49.892C76.9748 49.6799 76.6168 49.375 76.3517 48.9773C76.0865 48.5758 75.9539 48.0909 75.9539 47.5227C75.9539 47.0227 76.0524 46.6174 76.2494 46.3068C76.4463 45.9924 76.7096 45.7462 77.0392 45.5682C77.3687 45.3902 77.7323 45.2576 78.1301 45.1705C78.5316 45.0795 78.935 45.0076 79.3403 44.9545C79.8706 44.8864 80.3005 44.8352 80.6301 44.8011C80.9634 44.7633 81.2058 44.7008 81.3573 44.6136C81.5126 44.5265 81.5903 44.375 81.5903 44.1591V44.1136C81.5903 43.553 81.4369 43.1174 81.1301 42.8068C80.827 42.4962 80.3668 42.3409 79.7494 42.3409C79.1092 42.3409 78.6073 42.4811 78.2437 42.7614C77.8801 43.0417 77.6244 43.3409 77.4767 43.6591L76.2039 43.2045C76.4312 42.6742 76.7342 42.2614 77.113 41.9659C77.4956 41.6667 77.9123 41.4583 78.363 41.3409C78.8176 41.2197 79.2645 41.1591 79.7039 41.1591C79.9842 41.1591 80.3062 41.1932 80.6698 41.2614C81.0373 41.3258 81.3914 41.4602 81.7323 41.6648C82.077 41.8693 82.363 42.178 82.5903 42.5909C82.8176 43.0038 82.9312 43.5568 82.9312 44.25V50H81.5903V48.8182H81.5221C81.4312 49.0076 81.2797 49.2102 81.0676 49.4261C80.8554 49.642 80.5732 49.8258 80.221 49.9773C79.8687 50.1288 79.4388 50.2045 78.9312 50.2045ZM79.1357 49C79.666 49 80.113 48.8958 80.4767 48.6875C80.8441 48.4792 81.1206 48.2102 81.3062 47.8807C81.4956 47.5511 81.5903 47.2045 81.5903 46.8409V45.6136C81.5335 45.6818 81.4085 45.7443 81.2153 45.8011C81.0259 45.8542 80.8062 45.9015 80.5562 45.9432C80.31 45.9811 80.0695 46.0152 79.8346 46.0455C79.6035 46.072 79.416 46.0947 79.2721 46.1136C78.9236 46.1591 78.5979 46.233 78.2948 46.3352C77.9956 46.4337 77.7532 46.5833 77.5676 46.7841C77.3857 46.9811 77.2948 47.25 77.2948 47.5909C77.2948 48.0568 77.4672 48.4091 77.8119 48.6477C78.1604 48.8826 78.6017 49 79.1357 49ZM88.9241 50.1818C88.1059 50.1818 87.4014 49.9886 86.8105 49.6023C86.2195 49.2159 85.765 48.6837 85.4468 48.0057C85.1286 47.3277 84.9695 46.553 84.9695 45.6818C84.9695 44.7955 85.1324 44.0133 85.4582 43.3352C85.7877 42.6534 86.2461 42.1212 86.8332 41.7386C87.4241 41.3523 88.1135 41.1591 88.9014 41.1591C89.515 41.1591 90.068 41.2727 90.5605 41.5C91.0529 41.7273 91.4563 42.0455 91.7707 42.4545C92.0851 42.8636 92.2802 43.3409 92.3559 43.8864H91.015C90.9127 43.4886 90.6855 43.1364 90.3332 42.8295C89.9847 42.5189 89.515 42.3636 88.9241 42.3636C88.4014 42.3636 87.943 42.5 87.5491 42.7727C87.1589 43.0417 86.854 43.4223 86.6343 43.9148C86.4184 44.4034 86.3105 44.9773 86.3105 45.6364C86.3105 46.3106 86.4165 46.8977 86.6286 47.3977C86.8445 47.8977 87.1476 48.286 87.5377 48.5625C87.9317 48.839 88.3938 48.9773 88.9241 48.9773C89.2726 48.9773 89.5889 48.9167 89.873 48.7955C90.157 48.6742 90.3976 48.5 90.5945 48.2727C90.7915 48.0455 90.9317 47.7727 91.015 47.4545H92.3559C92.2802 47.9697 92.0927 48.4337 91.7934 48.8466C91.498 49.2557 91.1059 49.5814 90.6173 49.8239C90.1324 50.0625 89.568 50.1818 88.9241 50.1818ZM94.3161 50V41.2727H95.657V50H94.3161ZM94.998 39.8182C94.7366 39.8182 94.5112 39.7292 94.3218 39.5511C94.1362 39.3731 94.0434 39.1591 94.0434 38.9091C94.0434 38.6591 94.1362 38.4451 94.3218 38.267C94.5112 38.089 94.7366 38 94.998 38C95.2593 38 95.4828 38.089 95.6684 38.267C95.8578 38.4451 95.9525 38.6591 95.9525 38.9091C95.9525 39.1591 95.8578 39.3731 95.6684 39.5511C95.4828 39.7292 95.2593 39.8182 94.998 39.8182ZM101.658 50.1818C100.871 50.1818 100.179 49.9943 99.5846 49.6193C98.9937 49.2443 98.5316 48.7197 98.1982 48.0455C97.8687 47.3712 97.7039 46.5833 97.7039 45.6818C97.7039 44.7727 97.8687 43.9792 98.1982 43.3011C98.5316 42.6231 98.9937 42.0966 99.5846 41.7216C100.179 41.3466 100.871 41.1591 101.658 41.1591C102.446 41.1591 103.136 41.3466 103.727 41.7216C104.321 42.0966 104.783 42.6231 105.113 43.3011C105.446 43.9792 105.613 44.7727 105.613 45.6818C105.613 46.5833 105.446 47.3712 105.113 48.0455C104.783 48.7197 104.321 49.2443 103.727 49.6193C103.136 49.9943 102.446 50.1818 101.658 50.1818ZM101.658 48.9773C102.257 48.9773 102.749 48.8239 103.136 48.517C103.522 48.2102 103.808 47.8068 103.994 47.3068C104.179 46.8068 104.272 46.2652 104.272 45.6818C104.272 45.0985 104.179 44.5549 103.994 44.0511C103.808 43.5473 103.522 43.1402 103.136 42.8295C102.749 42.5189 102.257 42.3636 101.658 42.3636C101.06 42.3636 100.568 42.5189 100.181 42.8295C99.7948 43.1402 99.5088 43.5473 99.3232 44.0511C99.1376 44.5549 99.0448 45.0985 99.0448 45.6818C99.0448 46.2652 99.1376 46.8068 99.3232 47.3068C99.5088 47.8068 99.7948 48.2102 100.181 48.517C100.568 48.8239 101.06 48.9773 101.658 48.9773ZM101.045 40.0909L102.431 37.4545H103.999L102.227 40.0909H101.045ZM109.001 44.75V50H107.66V41.2727H108.955V42.6364H109.069C109.274 42.1932 109.584 41.8371 110.001 41.5682C110.417 41.2955 110.955 41.1591 111.614 41.1591C112.205 41.1591 112.722 41.2803 113.166 41.5227C113.609 41.7614 113.953 42.125 114.2 42.6136C114.446 43.0985 114.569 43.7121 114.569 44.4545V50H113.228V44.5455C113.228 43.8598 113.05 43.3258 112.694 42.9432C112.338 42.5568 111.849 42.3636 111.228 42.3636C110.8 42.3636 110.417 42.4564 110.08 42.642C109.747 42.8277 109.484 43.0985 109.291 43.4545C109.097 43.8106 109.001 44.2424 109.001 44.75ZM124.815 50.1818C124.087 50.1818 123.445 49.9981 122.889 49.6307C122.332 49.2595 121.896 48.7367 121.582 48.0625C121.267 47.3845 121.11 46.5833 121.11 45.6591C121.11 44.7424 121.267 43.947 121.582 43.2727C121.896 42.5985 122.334 42.0777 122.894 41.7102C123.455 41.3428 124.103 41.1591 124.837 41.1591C125.406 41.1591 125.854 41.2538 126.184 41.4432C126.517 41.6288 126.771 41.8409 126.945 42.0795C127.123 42.3144 127.262 42.5076 127.36 42.6591H127.474V38.3636H128.815V50H127.519V48.6591H127.36C127.262 48.8182 127.122 49.0189 126.94 49.2614C126.758 49.5 126.498 49.714 126.161 49.9034C125.824 50.089 125.375 50.1818 124.815 50.1818ZM124.997 48.9773C125.534 48.9773 125.989 48.8371 126.36 48.5568C126.731 48.2727 127.014 47.8807 127.207 47.3807C127.4 46.8769 127.497 46.2955 127.497 45.6364C127.497 44.9848 127.402 44.4148 127.212 43.9261C127.023 43.4337 126.743 43.0511 126.372 42.7784C126 42.5019 125.542 42.3636 124.997 42.3636C124.428 42.3636 123.955 42.5095 123.576 42.8011C123.201 43.089 122.919 43.4811 122.729 43.9773C122.544 44.4697 122.451 45.0227 122.451 45.6364C122.451 46.2576 122.546 46.822 122.735 47.3295C122.928 47.8333 123.212 48.2348 123.587 48.5341C123.966 48.8295 124.436 48.9773 124.997 48.9773ZM135.116 50.1818C134.275 50.1818 133.55 49.9962 132.94 49.625C132.334 49.25 131.866 48.7273 131.536 48.0568C131.211 47.3826 131.048 46.5985 131.048 45.7045C131.048 44.8106 131.211 44.0227 131.536 43.3409C131.866 42.6553 132.324 42.1212 132.911 41.7386C133.502 41.3523 134.192 41.1591 134.979 41.1591C135.434 41.1591 135.883 41.2348 136.326 41.3864C136.769 41.5379 137.173 41.7841 137.536 42.125C137.9 42.4621 138.19 42.9091 138.406 43.4659C138.622 44.0227 138.729 44.7083 138.729 45.5227V46.0909H132.002V44.9318H137.366C137.366 44.4394 137.267 44 137.07 43.6136C136.877 43.2273 136.601 42.9223 136.241 42.6989C135.885 42.4754 135.464 42.3636 134.979 42.3636C134.445 42.3636 133.983 42.4962 133.593 42.7614C133.207 43.0227 132.909 43.3636 132.701 43.7841C132.493 44.2045 132.389 44.6553 132.389 45.1364V45.9091C132.389 46.5682 132.502 47.1269 132.729 47.5852C132.961 48.0398 133.281 48.3864 133.69 48.625C134.099 48.8598 134.574 48.9773 135.116 48.9773C135.468 48.9773 135.786 48.928 136.07 48.8295C136.358 48.7273 136.606 48.5758 136.815 48.375C137.023 48.1705 137.184 47.9167 137.298 47.6136L138.593 47.9773C138.457 48.4167 138.228 48.803 137.906 49.1364C137.584 49.4659 137.186 49.7235 136.712 49.9091C136.239 50.0909 135.707 50.1818 135.116 50.1818ZM146.61 38.3636V50H145.269V38.3636H146.61ZM151.634 50.2045C151.081 50.2045 150.579 50.1004 150.129 49.892C149.678 49.6799 149.32 49.375 149.055 48.9773C148.79 48.5758 148.657 48.0909 148.657 47.5227C148.657 47.0227 148.756 46.6174 148.953 46.3068C149.149 45.9924 149.413 45.7462 149.742 45.5682C150.072 45.3902 150.435 45.2576 150.833 45.1705C151.235 45.0795 151.638 45.0076 152.043 44.9545C152.574 44.8864 153.004 44.8352 153.333 44.8011C153.667 44.7633 153.909 44.7008 154.06 44.6136C154.216 44.5265 154.293 44.375 154.293 44.1591V44.1136C154.293 43.553 154.14 43.1174 153.833 42.8068C153.53 42.4962 153.07 42.3409 152.453 42.3409C151.812 42.3409 151.31 42.4811 150.947 42.7614C150.583 43.0417 150.328 43.3409 150.18 43.6591L148.907 43.2045C149.134 42.6742 149.437 42.2614 149.816 41.9659C150.199 41.6667 150.615 41.4583 151.066 41.3409C151.521 41.2197 151.968 41.1591 152.407 41.1591C152.687 41.1591 153.009 41.1932 153.373 41.2614C153.74 41.3258 154.095 41.4602 154.435 41.6648C154.78 41.8693 155.066 42.178 155.293 42.5909C155.521 43.0038 155.634 43.5568 155.634 44.25V50H154.293V48.8182H154.225C154.134 49.0076 153.983 49.2102 153.771 49.4261C153.559 49.642 153.276 49.8258 152.924 49.9773C152.572 50.1288 152.142 50.2045 151.634 50.2045ZM151.839 49C152.369 49 152.816 48.8958 153.18 48.6875C153.547 48.4792 153.824 48.2102 154.009 47.8807C154.199 47.5511 154.293 47.2045 154.293 46.8409V45.6136C154.237 45.6818 154.112 45.7443 153.918 45.8011C153.729 45.8542 153.509 45.9015 153.259 45.9432C153.013 45.9811 152.773 46.0152 152.538 46.0455C152.307 46.072 152.119 46.0947 151.975 46.1136C151.627 46.1591 151.301 46.233 150.998 46.3352C150.699 46.4337 150.456 46.5833 150.271 46.7841C150.089 46.9811 149.998 47.25 149.998 47.5909C149.998 48.0568 150.17 48.4091 150.515 48.6477C150.863 48.8826 151.305 49 151.839 49ZM166.377 41.2727V42.4091H161.854V41.2727H166.377ZM163.173 39.1818H164.514V47.5C164.514 47.8788 164.569 48.1629 164.678 48.3523C164.792 48.5379 164.936 48.6629 165.11 48.7273C165.288 48.7879 165.476 48.8182 165.673 48.8182C165.82 48.8182 165.942 48.8106 166.036 48.7955C166.131 48.7765 166.207 48.7614 166.264 48.75L166.536 49.9545C166.445 49.9886 166.319 50.0227 166.156 50.0568C165.993 50.0947 165.786 50.1136 165.536 50.1136C165.158 50.1136 164.786 50.0322 164.423 49.8693C164.063 49.7064 163.764 49.4583 163.525 49.125C163.29 48.7917 163.173 48.3712 163.173 47.8636V39.1818ZM168.394 50V41.2727H169.735V50H168.394ZM169.076 39.8182C168.815 39.8182 168.589 39.7292 168.4 39.5511C168.214 39.3731 168.122 39.1591 168.122 38.9091C168.122 38.6591 168.214 38.4451 168.4 38.267C168.589 38.089 168.815 38 169.076 38C169.337 38 169.561 38.089 169.747 38.267C169.936 38.4451 170.031 38.6591 170.031 38.9091C170.031 39.1591 169.936 39.3731 169.747 39.5511C169.561 39.7292 169.337 39.8182 169.076 39.8182ZM175.85 50.1818C175.009 50.1818 174.284 49.9962 173.674 49.625C173.068 49.25 172.6 48.7273 172.271 48.0568C171.945 47.3826 171.782 46.5985 171.782 45.7045C171.782 44.8106 171.945 44.0227 172.271 43.3409C172.6 42.6553 173.059 42.1212 173.646 41.7386C174.237 41.3523 174.926 41.1591 175.714 41.1591C176.168 41.1591 176.617 41.2348 177.06 41.3864C177.504 41.5379 177.907 41.7841 178.271 42.125C178.634 42.4621 178.924 42.9091 179.14 43.4659C179.356 44.0227 179.464 44.7083 179.464 45.5227V46.0909H172.737V44.9318H178.1C178.1 44.4394 178.002 44 177.805 43.6136C177.612 43.2273 177.335 42.9223 176.975 42.6989C176.619 42.4754 176.199 42.3636 175.714 42.3636C175.18 42.3636 174.718 42.4962 174.328 42.7614C173.941 43.0227 173.644 43.3636 173.435 43.7841C173.227 44.2045 173.123 44.6553 173.123 45.1364V45.9091C173.123 46.5682 173.237 47.1269 173.464 47.5852C173.695 48.0398 174.015 48.3864 174.424 48.625C174.833 48.8598 175.309 48.9773 175.85 48.9773C176.203 48.9773 176.521 48.928 176.805 48.8295C177.093 48.7273 177.341 48.5758 177.549 48.375C177.757 48.1705 177.918 47.9167 178.032 47.6136L179.328 47.9773C179.191 48.4167 178.962 48.803 178.64 49.1364C178.318 49.4659 177.92 49.7235 177.447 49.9091C176.973 50.0909 176.441 50.1818 175.85 50.1818ZM182.845 44.75V50H181.504V41.2727H182.799V42.6364H182.913C183.117 42.1932 183.428 41.8371 183.845 41.5682C184.261 41.2955 184.799 41.1591 185.458 41.1591C186.049 41.1591 186.566 41.2803 187.009 41.5227C187.453 41.7614 187.797 42.125 188.043 42.6136C188.29 43.0985 188.413 43.7121 188.413 44.4545V50H187.072V44.5455C187.072 43.8598 186.894 43.3258 186.538 42.9432C186.182 42.5568 185.693 42.3636 185.072 42.3636C184.644 42.3636 184.261 42.4564 183.924 42.642C183.591 42.8277 183.328 43.0985 183.134 43.4545C182.941 43.8106 182.845 44.2424 182.845 44.75ZM194.158 50.1818C193.431 50.1818 192.789 49.9981 192.232 49.6307C191.676 49.2595 191.24 48.7367 190.926 48.0625C190.611 47.3845 190.454 46.5833 190.454 45.6591C190.454 44.7424 190.611 43.947 190.926 43.2727C191.24 42.5985 191.677 42.0777 192.238 41.7102C192.799 41.3428 193.446 41.1591 194.181 41.1591C194.749 41.1591 195.198 41.2538 195.528 41.4432C195.861 41.6288 196.115 41.8409 196.289 42.0795C196.467 42.3144 196.605 42.5076 196.704 42.6591H196.818V38.3636H198.158V50H196.863V48.6591H196.704C196.605 48.8182 196.465 49.0189 196.283 49.2614C196.102 49.5 195.842 49.714 195.505 49.9034C195.168 50.089 194.719 50.1818 194.158 50.1818ZM194.34 48.9773C194.878 48.9773 195.333 48.8371 195.704 48.5568C196.075 48.2727 196.357 47.8807 196.551 47.3807C196.744 46.8769 196.84 46.2955 196.84 45.6364C196.84 44.9848 196.746 44.4148 196.556 43.9261C196.367 43.4337 196.087 43.0511 195.715 42.7784C195.344 42.5019 194.886 42.3636 194.34 42.3636C193.772 42.3636 193.299 42.5095 192.92 42.8011C192.545 43.089 192.263 43.4811 192.073 43.9773C191.888 44.4697 191.795 45.0227 191.795 45.6364C191.795 46.2576 191.89 46.822 192.079 47.3295C192.272 47.8333 192.556 48.2348 192.931 48.5341C193.31 48.8295 193.78 48.9773 194.34 48.9773ZM203.369 50.2045C202.816 50.2045 202.314 50.1004 201.863 49.892C201.412 49.6799 201.054 49.375 200.789 48.9773C200.524 48.5758 200.391 48.0909 200.391 47.5227C200.391 47.0227 200.49 46.6174 200.687 46.3068C200.884 45.9924 201.147 45.7462 201.477 45.5682C201.806 45.3902 202.17 45.2576 202.568 45.1705C202.969 45.0795 203.372 45.0076 203.778 44.9545C204.308 44.8864 204.738 44.8352 205.068 44.8011C205.401 44.7633 205.643 44.7008 205.795 44.6136C205.95 44.5265 206.028 44.375 206.028 44.1591V44.1136C206.028 43.553 205.874 43.1174 205.568 42.8068C205.265 42.4962 204.804 42.3409 204.187 42.3409C203.547 42.3409 203.045 42.4811 202.681 42.7614C202.318 43.0417 202.062 43.3409 201.914 43.6591L200.641 43.2045C200.869 42.6742 201.172 42.2614 201.551 41.9659C201.933 41.6667 202.35 41.4583 202.801 41.3409C203.255 41.2197 203.702 41.1591 204.141 41.1591C204.422 41.1591 204.744 41.1932 205.107 41.2614C205.475 41.3258 205.829 41.4602 206.17 41.6648C206.515 41.8693 206.801 42.178 207.028 42.5909C207.255 43.0038 207.369 43.5568 207.369 44.25V50H206.028V48.8182H205.96C205.869 49.0076 205.717 49.2102 205.505 49.4261C205.293 49.642 205.011 49.8258 204.658 49.9773C204.306 50.1288 203.876 50.2045 203.369 50.2045ZM203.573 49C204.104 49 204.551 48.8958 204.914 48.6875C205.282 48.4792 205.558 48.2102 205.744 47.8807C205.933 47.5511 206.028 47.2045 206.028 46.8409V45.6136C205.971 45.6818 205.846 45.7443 205.653 45.8011C205.463 45.8542 205.244 45.9015 204.994 45.9432C204.747 45.9811 204.507 46.0152 204.272 46.0455C204.041 46.072 203.854 46.0947 203.71 46.1136C203.361 46.1591 203.035 46.233 202.732 46.3352C202.433 46.4337 202.191 46.5833 202.005 46.7841C201.823 46.9811 201.732 47.25 201.732 47.5909C201.732 48.0568 201.905 48.4091 202.249 48.6477C202.598 48.8826 203.039 49 203.573 49Z" fill="#212121" fill-opacity="0.65"/>
<path d="M0.0700881 33.4703C0.120051 33.43 0.192611 33.4173 0.249116 33.4358C0.31811 33.4565 0.38136 33.4745 0.441037 33.4915L0.470183 33.4998C0.617293 33.5418 0.744372 33.5778 0.870266 33.6271C2.85923 34.3978 4.42511 35.7181 5.65751 37.6634C5.96184 38.1441 6.19757 38.6437 6.38533 39.1419C6.07742 37.466 6.00605 36.8131 5.95152 34.9378C5.94895 34.8591 5.94895 34.779 5.94895 34.6996C5.94895 34.4826 5.94895 34.2777 5.90037 34.0907C5.84208 33.8691 5.72491 33.6481 5.61151 33.4343C5.57959 33.3738 5.54767 33.3133 5.5213 33.2601C5.51218 33.2496 5.48264 33.2321 5.47114 33.2303C4.90233 33.1456 4.39933 32.9101 3.93302 32.5105C3.46314 32.1058 3.07673 31.6104 2.7843 31.0377C1.7347 28.9852 1.2095 26.7164 1.22279 24.2953C1.22398 24.0617 1.25213 23.8343 1.28306 23.5871C1.29713 23.4763 1.31141 23.363 1.3233 23.2456C1.33004 23.1812 1.37069 23.124 1.42957 23.0961C1.48766 23.0687 1.55785 23.0706 1.61653 23.1052C1.65202 23.1269 1.68236 23.1445 1.70991 23.1601C1.76325 23.1911 1.80389 23.2152 1.84235 23.2423C2.7377 23.8682 3.52738 24.6474 4.18977 25.5577C5.2707 27.0455 5.89938 28.7278 6.0687 30.5785C6.08555 30.3722 6.10261 30.1659 6.11965 29.9596L6.1256 29.8848C6.19202 29.076 6.26062 28.2396 6.31653 27.4171C6.3306 27.2089 6.37164 27.0062 6.41129 26.8102C6.48782 26.4333 6.56019 26.0774 6.44441 25.7044C6.41804 25.6201 6.39583 25.5352 6.37363 25.4506C6.31891 25.2408 6.05463 24.9177 5.64878 24.5644L5.63352 24.5511C5.48383 24.4273 4.71497 23.7414 4.27879 22.3844C3.83607 21.0059 3.86958 19.5654 3.89396 18.5136L3.89456 18.4856C3.92707 17.0397 4.08727 15.9502 4.41401 14.9523C4.45624 14.8247 4.50639 14.6988 4.55953 14.5666C4.58709 14.4977 4.61524 14.4266 4.64419 14.3521C4.66798 14.2891 4.72508 14.2433 4.79189 14.2325L4.82461 14.2296C4.8825 14.2296 4.93662 14.2549 4.9733 14.2986L5.29072 14.6758C6.81258 16.4859 7.56022 18.6089 7.51343 20.9859C7.50531 21.4045 7.47318 21.834 7.41628 22.2773C7.80309 20.9755 8.25671 19.7083 8.77259 18.4892C8.7833 18.4625 8.79024 18.4295 8.79103 18.4014L8.7946 18.2348C8.79996 17.9943 8.8055 17.7454 8.795 17.5006C8.79341 17.46 8.76645 17.3871 8.71034 17.3154C8.63064 17.2127 8.54221 17.1124 8.45062 17.008C8.29459 16.8309 8.1334 16.648 8.00572 16.4392C7.59452 15.7675 7.40142 14.974 7.39825 13.9417C7.3927 12.7265 7.58481 11.4477 8.00354 9.91693C8.23233 9.08185 8.5777 7.99698 9.22087 7.01341C9.26448 6.94729 9.31325 6.88503 9.3652 6.8191C9.38859 6.7899 9.41318 6.75877 9.43816 6.72532C9.47464 6.67757 9.525 6.64972 9.60629 6.64972C9.67112 6.65436 9.72901 6.69033 9.76132 6.7462C10.5686 8.16712 10.9707 9.6851 10.9897 11.387C11.006 12.8059 10.7788 14.0269 10.4939 14.9919C11.2189 13.7002 12.0247 12.4521 12.898 11.2682L12.918 11.2414C12.9379 11.2156 12.9462 11.2031 12.9448 11.212C12.9997 10.829 13.0378 10.5225 13.0642 10.2557C13.0636 10.2516 13.0584 10.2292 13.0176 10.1627C12.9599 10.0668 12.8966 9.97281 12.8294 9.87342C12.6946 9.6735 12.5554 9.46662 12.4662 9.23499C12.197 8.53584 12.1365 7.74292 12.2818 6.81175C12.6008 4.75085 13.5325 2.89509 15.1293 1.13813C15.2936 0.957735 15.4752 0.798222 15.6673 0.629622L15.7205 0.582639C15.7956 0.51632 15.8727 0.448455 15.9507 0.376723C16.0002 0.330706 16.0712 0.313498 16.14 0.333219C16.205 0.353328 16.2552 0.405918 16.2706 0.47127L16.3055 0.620535C16.3293 0.71953 16.3478 0.797642 16.3615 0.876142C16.5764 2.12711 16.5607 3.46701 16.3133 4.97281C16.0678 6.46624 15.5787 7.75432 14.8283 8.87323C15.9536 7.58012 17.0482 6.49427 18.1922 5.53198C18.1974 5.5254 18.2049 5.50549 18.2055 5.50046C18.1161 4.7493 18.306 4.04164 18.7866 3.33708C19.4177 2.41114 20.2946 1.70541 21.3929 1.23983C22.0502 0.961795 22.7312 0.715663 23.398 0.474557C23.7174 0.358935 24.0368 0.243699 24.3657 0.120149C24.6962 -0.00804094 24.8375 -0.0308561 24.9143 0.0383627C25.013 0.128076 24.9892 0.204643 24.9462 0.343854L24.9323 0.38929C24.5292 1.71334 23.9943 2.76052 23.2967 3.59056C22.0159 5.11589 20.518 5.89083 18.7198 5.95928C18.6567 5.96295 18.6068 5.97996 18.5864 5.99543C18.3332 6.18027 18.1468 6.32819 17.982 6.47474C17.461 6.93917 16.9479 7.43395 16.4459 7.95502C17.1926 7.50258 18.1052 7.29841 19.133 7.34906C19.6954 7.37671 20.2537 7.45715 20.7936 7.53487L20.8142 7.53797C20.9738 7.56078 21.1326 7.5834 21.291 7.60525C21.638 7.65108 21.9877 7.71101 22.2966 7.7636C22.4217 7.78545 22.7205 7.85177 22.7893 7.99311C22.8131 8.04145 22.8111 8.09442 22.7841 8.14257C22.7604 8.18452 22.7342 8.22397 22.7056 8.25993C21.814 9.38812 20.797 10.1312 19.5963 10.5312C18.1323 11.0215 16.7877 10.9811 15.5795 10.4044C15.3947 10.3052 15.1719 10.2549 14.9173 10.2549C14.7252 10.2549 14.5811 10.2845 14.5333 10.2951C14.4617 10.3067 14.3646 10.3458 14.3447 10.3709C13.5933 11.3344 12.8802 12.3634 12.2142 13.4444C12.7769 12.9107 13.5106 12.5509 14.5103 12.3166C15.3864 12.113 16.2822 12.0693 17.1482 12.0267L17.4382 12.0124C17.7098 11.9989 17.9814 11.9821 18.2612 11.9649L18.7303 11.9366C18.791 11.9366 18.8486 11.9653 18.8839 12.0128C18.923 12.0641 18.9323 12.1306 18.9093 12.1903C18.8905 12.2402 18.8562 12.3282 18.8385 12.3576C17.9251 13.8475 16.8525 14.8781 15.5599 15.5084C14.2962 16.124 13.1544 16.2868 12.0027 16.0182C11.8694 15.9869 11.715 15.9703 11.5554 15.9703C11.0655 15.9703 10.7239 16.1161 10.6521 16.251C10.0185 17.5258 9.45303 18.8504 8.96531 20.2015C9.47682 19.5138 10.1921 18.9552 11.0978 18.5374C11.9975 18.1232 12.9343 17.7446 13.856 17.3721C14.2521 17.2124 14.6499 17.0521 15.0458 16.8881C15.1047 16.863 15.1743 16.8682 15.2292 16.9036C15.2831 16.9386 15.3152 16.997 15.3152 17.0598C15.3152 17.1805 14.0007 20.7383 12.0917 22.1402C11.3129 22.7122 10.3537 23.3005 9.14414 23.3282C8.78212 23.3353 8.40779 23.3852 8.12507 23.6986C8.08185 23.7485 8.02455 23.7874 7.9621 23.8081C7.86555 23.839 7.83898 23.8966 7.7914 24.093C7.39963 25.6971 7.11433 27.3504 6.93867 29.0292C6.99181 28.8589 7.05346 28.6868 7.12424 28.5126C7.5515 27.456 8.27059 26.5314 9.3872 25.6027C9.96281 25.122 10.5655 24.6567 11.1484 24.2064L11.1761 24.1851C11.4416 23.9799 11.7065 23.7756 11.9705 23.5687C12.0251 23.526 12.0782 23.4819 12.1399 23.4304L12.3046 23.2928C12.3623 23.2452 12.4482 23.2354 12.5156 23.2682C12.5848 23.3024 12.6262 23.3732 12.6208 23.4488C12.6127 23.5623 12.6062 23.6696 12.6 23.7727L12.5969 23.8208C12.5838 24.0329 12.5715 24.233 12.5495 24.4306C12.3429 26.3546 11.7562 27.961 10.756 29.3413C10.1368 30.1945 9.24862 31.2375 7.86356 31.7307C7.52652 31.8514 7.28206 32.0341 7.02016 32.362C6.77312 32.669 6.72712 32.9496 6.73268 33.3026C6.75627 34.7816 6.86432 36.2487 7.05485 37.6855C7.09946 37.2856 7.19384 36.874 7.33877 36.4463C7.63873 35.5607 8.10623 34.6998 8.76823 33.8142C9.33962 33.0474 9.93421 32.2779 10.5092 31.5333L10.5474 31.4836C10.7754 31.1887 11.0032 30.8935 11.2251 30.6046C11.2667 30.5453 11.3268 30.524 11.3615 30.5122C11.4107 30.4888 11.4693 30.4865 11.5215 30.5082C11.5726 30.5294 11.6119 30.5714 11.6291 30.6228L11.6359 30.6429C11.6454 30.67 11.6529 30.694 11.6569 30.7179C12.0534 33.0238 11.8102 35.0897 10.9134 37.0344C10.4755 37.9853 9.88801 39.0619 8.8523 39.8365C8.37944 40.1901 8.00611 40.6862 7.80111 41.2332C7.75769 41.351 7.75928 41.402 7.76423 41.4217C8.20259 43.1924 8.77517 44.9002 9.47127 46.5166C9.29204 45.6647 9.30433 44.7699 9.50894 43.8428C9.79939 42.5288 10.2986 41.2554 10.7439 40.165L10.8773 39.8384C11.0861 39.3274 11.2963 38.8123 11.5134 38.2785C11.5409 38.2102 11.6073 38.1636 11.696 38.1594C11.7657 38.1594 11.83 38.1982 11.8633 38.2612L11.9333 38.3896C11.964 38.4459 11.9928 38.4983 12.0173 38.5524C12.9131 40.5234 13.2156 42.5439 12.9161 44.5578C12.7019 45.9979 12.3391 47.029 11.7396 47.9014C11.4293 48.3523 11.1345 48.8546 11.0809 49.4724C11.0683 49.6185 11.0742 49.7193 11.141 49.8339C11.8972 51.1253 12.745 52.344 13.6734 53.4762C13.6699 53.47 13.6665 53.4639 13.6629 53.4577C12.995 52.2672 12.9747 50.9801 13.0429 49.8778C13.1018 48.9329 13.2129 47.9894 13.3197 47.0772L13.3259 47.0244C13.3689 46.659 13.4117 46.2937 13.4508 45.9277C13.4734 45.7202 13.4986 45.5128 13.5245 45.3022L13.5588 45.0172C13.5664 44.9542 13.6058 44.8997 13.6625 44.8722C13.768 44.8185 13.9387 44.9014 14.1231 45.1141C15.3902 46.5756 16.1765 48.2272 16.4604 50.0232C16.7548 51.8854 16.5952 53.4789 15.9719 54.895C15.9552 54.9327 15.9556 55.0097 15.9558 55.0354L15.9893 55.8502C15.9943 55.9087 16.026 55.9749 16.0522 55.9994C17.3175 57.1878 18.7105 58.2208 20.2054 59.0806C19.4978 58.4569 18.989 57.6431 18.6593 56.6118C18.2939 55.4687 18.1064 54.279 17.9245 53.1255L17.9087 53.0228C17.8443 52.6176 17.777 52.2131 17.7084 51.7997L17.6309 51.3324C17.6198 51.2643 17.6474 51.1963 17.7015 51.1555C17.7552 51.1137 17.833 51.1036 17.8948 51.1296L17.9624 51.1568C18.0346 51.1856 18.0974 51.2113 18.1567 51.2409C20.9827 52.6174 22.843 55.8277 22.5801 58.8741C22.5389 59.3513 22.5837 59.7995 22.7173 60.2434C22.7298 60.2838 22.7699 60.3277 22.7861 60.3351C24.1284 60.8871 25.4046 61.2898 26.6887 61.5663C26.7547 61.5812 26.8071 61.6272 26.8285 61.6893C26.8501 61.7517 26.837 61.8196 26.793 61.8707C26.6534 62.0319 26.5319 62.2053 26.432 62.3869C26.3909 62.4611 26.2932 62.4992 26.22 62.4807C25.1738 62.2479 24.1549 61.9464 23.1908 61.5841C23.1129 61.5536 23.0534 61.5391 22.9977 61.548C22.7832 61.5758 22.5565 61.6187 22.3049 61.6796C22.253 61.692 22.21 61.7154 22.2092 61.7133C21.6596 62.7817 20.7151 63.4623 19.3207 63.7935C19.0174 63.8645 18.7045 63.9169 18.3909 63.949C18.0625 63.9828 17.6964 64 17.3028 64C16.7576 64 16.3688 63.9671 16.364 63.9667C15.1554 63.8349 14.1233 63.5696 13.2091 63.1556C12.834 62.9861 12.4065 62.7577 12.078 62.35C12.0152 62.2719 12.0257 62.1591 12.102 62.0936C13.0307 61.2945 13.9762 60.7138 14.993 60.3186C16.4996 59.7347 17.872 59.5766 19.2172 59.8289C19.4183 59.867 19.6145 59.9149 19.8053 59.97C18.5469 59.2365 17.3421 58.3743 16.2042 57.3921C16.1824 57.3728 16.1465 57.3558 16.1186 57.3509C15.9324 57.3208 15.6852 57.2836 15.4322 57.2659C15.4088 57.2659 15.3791 57.2769 15.3757 57.278C14.6901 58.0263 13.8068 58.39 12.6754 58.39C12.6177 58.39 12.5598 58.3888 12.5021 58.3869C11.2719 58.3482 10.0351 58.0186 8.82553 57.4066C7.94644 56.9594 7.03007 56.4387 6.28699 55.6622C6.12223 55.4896 5.97512 55.2943 5.84526 55.122L5.83257 55.1052C5.77508 55.0292 5.71698 54.9526 5.65731 54.877C5.62479 54.8362 5.61111 54.7837 5.61964 54.7307C5.62876 54.6796 5.65909 54.6342 5.71084 54.6013C5.72392 54.5944 6.03856 54.4298 6.32584 54.3214C8.24938 53.5965 10.1913 53.5223 12.0439 54.1044C12.6504 54.2945 13.2212 54.5799 13.7769 54.9743C12.7491 53.8092 11.7975 52.5319 10.9334 51.1576C10.9241 51.1431 10.8995 51.1038 10.8916 51.0967C10.8161 51.0497 10.7387 51.0052 10.6616 50.9613C10.5234 50.8823 10.3803 50.8005 10.2459 50.703C10.1325 50.6205 10.1005 50.6184 9.98591 50.6903C9.82378 50.7929 9.63523 50.8463 9.47087 50.8883C8.5093 51.1284 7.54 51.0087 6.4678 50.5178C5.48838 50.07 4.73539 49.3622 4.06724 48.6642C3.09536 47.646 2.46033 46.7274 2.06857 45.773C1.98629 45.5727 1.92761 45.3656 1.86654 45.1491C1.84136 45.0582 1.81559 44.9673 1.78822 44.878C1.75829 44.7821 1.81063 44.6806 1.90778 44.6472L1.98827 44.6412C2.3846 44.6412 5.92001 44.6978 7.98788 46.6545C8.43773 47.0803 8.84099 47.5327 9.20916 48.0281C8.39114 46.3386 7.69742 44.558 7.13832 42.7098L7.13019 42.6827C7.12345 42.6601 7.11334 42.6259 7.1066 42.6166L6.56574 41.8923C6.54552 41.8633 6.54314 41.8633 6.51141 41.8633C6.49734 41.8633 6.48188 41.8643 6.46423 41.8653L6.34865 41.872C5.94617 41.8964 5.70925 41.8929 5.51436 41.8631C4.74431 41.7446 4.0492 41.3664 3.38958 40.7067C1.84691 39.1638 0.78502 37.2388 0.143445 34.8223C0.0746491 34.5635 0.0554151 34.302 0.0347971 34.0248C0.0256761 33.8991 0.0155671 33.7696 0.000895134 33.6358C-0.00525187 33.5716 0.0205241 33.5103 0.0700881 33.4703Z" fill="#1A335B"/>
<path d="M64.9921 11.408C66.2591 9.136 66.8921 8 67.8391 8C68.7861 8 69.4191 9.136 70.6861 11.408L71.0141 11.996C71.3741 12.642 71.5541 12.965 71.8341 13.178C72.1141 13.391 72.4641 13.47 73.1641 13.628L73.8001 13.772C76.2601 14.329 77.4891 14.607 77.7821 15.548C78.0741 16.488 77.2361 17.469 75.5591 19.43L75.1251 19.937C74.6491 20.494 74.4101 20.773 74.3031 21.117C74.1961 21.462 74.2321 21.834 74.3041 22.577L74.3701 23.254C74.6231 25.871 74.7501 27.179 73.9841 27.76C73.2181 28.341 72.0661 27.811 69.7641 26.751L69.1671 26.477C68.5131 26.175 68.1861 26.025 67.8391 26.025C67.4921 26.025 67.1651 26.175 66.5111 26.477L65.9151 26.751C63.6121 27.811 62.4601 28.341 61.6951 27.761C60.9281 27.179 61.0551 25.871 61.3081 23.254L61.3741 22.578C61.4461 21.834 61.4821 21.462 61.3741 21.118C61.2681 20.773 61.0291 20.494 60.5531 19.938L60.1191 19.43C58.4421 17.47 57.6041 16.489 57.8961 15.548C58.1881 14.607 59.4191 14.328 61.8791 13.772L62.5151 13.628C63.2141 13.47 63.5631 13.391 63.8441 13.178C64.1251 12.965 64.3041 12.642 64.6641 11.996L64.9921 11.408Z" fill="#FF9500"/>
<path d="M90.9926 11.408C92.2596 9.136 92.8926 8 93.8396 8C94.7866 8 95.4196 9.136 96.6866 11.408L97.0146 11.996C97.3746 12.642 97.5546 12.965 97.8346 13.178C98.1146 13.391 98.4646 13.47 99.1646 13.628L99.8006 13.772C102.261 14.329 103.49 14.607 103.783 15.548C104.075 16.488 103.237 17.469 101.56 19.43L101.126 19.937C100.65 20.494 100.411 20.773 100.304 21.117C100.197 21.462 100.233 21.834 100.305 22.577L100.371 23.254C100.624 25.871 100.751 27.179 99.9846 27.76C99.2186 28.341 98.0666 27.811 95.7646 26.751L95.1676 26.477C94.5136 26.175 94.1866 26.025 93.8396 26.025C93.4926 26.025 93.1656 26.175 92.5116 26.477L91.9156 26.751C89.6126 27.811 88.4606 28.341 87.6956 27.761C86.9286 27.179 87.0556 25.871 87.3086 23.254L87.3746 22.578C87.4466 21.834 87.4826 21.462 87.3746 21.118C87.2686 20.773 87.0296 20.494 86.5536 19.938L86.1196 19.43C84.4426 17.47 83.6046 16.489 83.8966 15.548C84.1886 14.607 85.4196 14.328 87.8796 13.772L88.5156 13.628C89.2146 13.47 89.5636 13.391 89.8446 13.178C90.1256 12.965 90.3046 12.642 90.6646 11.996L90.9926 11.408Z" fill="#FF9500"/>
<path d="M116.993 11.408C118.26 9.136 118.893 8 119.84 8C120.787 8 121.42 9.136 122.687 11.408L123.015 11.996C123.375 12.642 123.555 12.965 123.835 13.178C124.115 13.391 124.465 13.47 125.165 13.628L125.801 13.772C128.261 14.329 129.49 14.607 129.783 15.548C130.075 16.488 129.237 17.469 127.56 19.43L127.126 19.937C126.65 20.494 126.411 20.773 126.304 21.117C126.197 21.462 126.233 21.834 126.305 22.577L126.371 23.254C126.624 25.871 126.751 27.179 125.985 27.76C125.219 28.341 124.067 27.811 121.765 26.751L121.168 26.477C120.514 26.175 120.187 26.025 119.84 26.025C119.493 26.025 119.166 26.175 118.512 26.477L117.916 26.751C115.613 27.811 114.461 28.341 113.696 27.761C112.929 27.179 113.056 25.871 113.309 23.254L113.375 22.578C113.447 21.834 113.483 21.462 113.375 21.118C113.269 20.773 113.03 20.494 112.554 19.938L112.12 19.43C110.443 17.47 109.605 16.489 109.897 15.548C110.189 14.607 111.42 14.328 113.88 13.772L114.516 13.628C115.215 13.47 115.564 13.391 115.845 13.178C116.126 12.965 116.305 12.642 116.665 11.996L116.993 11.408Z" fill="#FF9500"/>
<path d="M142.993 11.408C144.26 9.136 144.893 8 145.84 8C146.787 8 147.42 9.136 148.687 11.408L149.015 11.996C149.375 12.642 149.555 12.965 149.835 13.178C150.115 13.391 150.465 13.47 151.165 13.628L151.801 13.772C154.261 14.329 155.49 14.607 155.783 15.548C156.075 16.488 155.237 17.469 153.56 19.43L153.126 19.937C152.65 20.494 152.411 20.773 152.304 21.117C152.197 21.462 152.233 21.834 152.305 22.577L152.371 23.254C152.624 25.871 152.751 27.179 151.985 27.76C151.219 28.341 150.067 27.811 147.765 26.751L147.168 26.477C146.514 26.175 146.187 26.025 145.84 26.025C145.493 26.025 145.166 26.175 144.512 26.477L143.916 26.751C141.613 27.811 140.461 28.341 139.696 27.761C138.929 27.179 139.056 25.871 139.309 23.254L139.375 22.578C139.447 21.834 139.483 21.462 139.375 21.118C139.269 20.773 139.03 20.494 138.554 19.938L138.12 19.43C136.443 17.47 135.605 16.489 135.897 15.548C136.189 14.607 137.42 14.328 139.88 13.772L140.516 13.628C141.215 13.47 141.564 13.391 141.845 13.178C142.126 12.965 142.305 12.642 142.665 11.996L142.993 11.408Z" fill="#FF9500"/>
<path d="M168.994 11.408C170.261 9.136 170.894 8 171.841 8C172.788 8 173.421 9.136 174.688 11.408L175.016 11.996C175.376 12.642 175.556 12.965 175.836 13.178C176.116 13.391 176.466 13.47 177.166 13.628L177.802 13.772C180.262 14.329 181.491 14.607 181.784 15.548C182.076 16.488 181.238 17.469 179.561 19.43L179.127 19.937C178.651 20.494 178.412 20.773 178.305 21.117C178.198 21.462 178.234 21.834 178.306 22.577L178.372 23.254C178.625 25.871 178.752 27.179 177.986 27.76C177.22 28.341 176.068 27.811 173.766 26.751L173.169 26.477C172.515 26.175 172.188 26.025 171.841 26.025C171.494 26.025 171.167 26.175 170.513 26.477L169.917 26.751C167.614 27.811 166.462 28.341 165.697 27.761C164.93 27.179 165.057 25.871 165.31 23.254L165.376 22.578C165.448 21.834 165.484 21.462 165.376 21.118C165.27 20.773 165.031 20.494 164.555 19.938L164.121 19.43C162.444 17.47 161.606 16.489 161.898 15.548C162.19 14.607 163.421 14.328 165.881 13.772L166.517 13.628C167.216 13.47 167.565 13.391 167.846 13.178C168.127 12.965 168.306 12.642 168.666 11.996L168.994 11.408Z" fill="#212121" fill-opacity="0.1"/>
<path d="M168.996 11.4044L168.994 11.408L168.666 11.996L168.659 12.0079C168.303 12.646 168.125 12.9663 167.846 13.178C167.565 13.391 167.216 13.47 166.517 13.628L165.881 13.772C163.421 14.328 162.19 14.607 161.898 15.548C161.606 16.489 162.444 17.47 164.121 19.43L164.555 19.938L164.556 19.9393C165.031 20.4944 165.27 20.7733 165.376 21.118C165.484 21.462 165.448 21.834 165.376 22.578L165.31 23.254L165.309 23.2591C165.056 25.8727 164.93 27.1794 165.697 27.761C166.462 28.341 167.614 27.811 169.917 26.751L170.513 26.477C171.167 26.175 171.494 26.025 171.841 26.025C172.188 26.025 172.515 26.175 173.169 26.477L173.766 26.751C174.592 27.1315 175.27 27.4438 175.836 27.6608V13.178C175.556 12.965 175.376 12.642 175.016 11.9961L175.016 11.996L174.688 11.408L174.686 11.4044C173.42 9.1348 172.787 8 171.841 8C170.894 8 170.261 9.1348 168.996 11.4044Z" fill="#FF9500"/>
<path d="M243.608 33.4703C243.558 33.43 243.485 33.4173 243.429 33.4358C243.36 33.4565 243.296 33.4745 243.237 33.4915L243.208 33.4998C243.06 33.5418 242.933 33.5778 242.807 33.6271C240.818 34.3978 239.253 35.7181 238.02 37.6634C237.716 38.1441 237.48 38.6437 237.292 39.1419C237.6 37.466 237.672 36.8131 237.726 34.9378C237.729 34.8591 237.729 34.779 237.729 34.6996C237.729 34.4826 237.729 34.2777 237.777 34.0907C237.836 33.8691 237.953 33.6481 238.066 33.4343C238.098 33.3738 238.13 33.3133 238.156 33.2601C238.166 33.2497 238.195 33.2321 238.207 33.2303C238.775 33.1456 239.278 32.9101 239.745 32.5105C240.215 32.1058 240.601 31.6104 240.893 31.0377C241.943 28.9852 242.468 26.7164 242.455 24.2953C242.454 24.0617 242.426 23.8344 242.395 23.5871C242.381 23.4763 242.366 23.363 242.354 23.2456C242.348 23.1812 242.307 23.124 242.248 23.0961C242.19 23.0687 242.12 23.0706 242.061 23.1052C242.026 23.1269 241.995 23.1445 241.968 23.1601C241.914 23.1911 241.874 23.2152 241.835 23.2423C240.94 23.8682 240.15 24.6474 239.488 25.5577C238.407 27.0455 237.778 28.7278 237.609 30.5785C237.592 30.3722 237.575 30.1659 237.558 29.9596L237.552 29.8848C237.486 29.076 237.417 28.2396 237.361 27.4171C237.347 27.2089 237.306 27.0062 237.266 26.8102C237.19 26.4333 237.118 26.0774 237.233 25.7044C237.26 25.6201 237.282 25.5352 237.304 25.4506C237.359 25.2408 237.623 24.9177 238.029 24.5644L238.044 24.5511C238.194 24.4273 238.963 23.7413 239.399 22.3844C239.842 21.0059 239.808 19.5654 239.784 18.5136L239.783 18.4856C239.751 17.0397 239.59 15.9502 239.264 14.9523C239.221 14.8247 239.171 14.6988 239.118 14.5666C239.091 14.4977 239.062 14.4266 239.034 14.3521C239.01 14.2891 238.953 14.2433 238.886 14.2325L238.853 14.2296C238.795 14.2296 238.741 14.2549 238.704 14.2986L238.387 14.6758C236.865 16.4859 236.117 18.6089 236.164 20.9859C236.172 21.4045 236.205 21.834 236.261 22.2773C235.875 20.9755 235.421 19.7083 234.905 18.4892C234.894 18.4625 234.887 18.4295 234.887 18.4014L234.883 18.2348C234.878 17.9943 234.872 17.7454 234.883 17.5006C234.884 17.46 234.911 17.3871 234.967 17.3154C235.047 17.2127 235.135 17.1124 235.227 17.008C235.383 16.8309 235.544 16.648 235.672 16.4392C236.083 15.7675 236.276 14.974 236.279 13.9417C236.285 12.7265 236.093 11.4477 235.674 9.91693C235.445 9.08185 235.1 7.99698 234.457 7.01341C234.413 6.94729 234.364 6.88503 234.313 6.8191C234.289 6.7899 234.265 6.75877 234.24 6.72532C234.203 6.67757 234.153 6.64972 234.071 6.64972C234.007 6.65436 233.949 6.69033 233.916 6.7462C233.109 8.16712 232.707 9.6851 232.688 11.387C232.672 12.8059 232.899 14.0269 233.184 14.9919C232.459 13.7002 231.653 12.4521 230.78 11.2682L230.76 11.2414C230.74 11.2156 230.732 11.2031 230.733 11.212C230.678 10.829 230.64 10.5225 230.614 10.2557C230.614 10.2516 230.619 10.2292 230.66 10.1627C230.718 10.0668 230.781 9.97281 230.848 9.87342C230.983 9.6735 231.122 9.46662 231.212 9.23499C231.481 8.53584 231.541 7.74292 231.396 6.81175C231.077 4.75085 230.145 2.89509 228.548 1.13813C228.384 0.957735 228.202 0.798222 228.01 0.629622L227.957 0.582639C227.882 0.51632 227.805 0.448455 227.727 0.376723C227.677 0.330706 227.607 0.313498 227.538 0.333219C227.473 0.353328 227.423 0.405918 227.407 0.47127L227.372 0.620535C227.348 0.71953 227.33 0.797642 227.316 0.876142C227.101 2.12711 227.117 3.46701 227.364 4.97281C227.61 6.46624 228.099 7.75432 228.849 8.87323C227.724 7.58012 226.629 6.49427 225.485 5.53198C225.48 5.5254 225.473 5.50549 225.472 5.50046C225.562 4.7493 225.372 4.04165 224.891 3.33708C224.26 2.41114 223.383 1.70541 222.285 1.23983C221.628 0.961796 220.946 0.715663 220.28 0.474557C219.96 0.358935 219.641 0.243699 219.312 0.120149C218.982 -0.00804093 218.84 -0.0308561 218.763 0.0383627C218.665 0.128076 218.688 0.204643 218.732 0.343854L218.745 0.38929C219.148 1.71334 219.683 2.76052 220.381 3.59056C221.662 5.11589 223.16 5.89083 224.958 5.95928C225.021 5.96295 225.071 5.97996 225.091 5.99543C225.345 6.18027 225.531 6.32819 225.696 6.47474C226.217 6.93917 226.73 7.43395 227.232 7.95502C226.485 7.50258 225.573 7.29841 224.545 7.34906C223.982 7.37671 223.424 7.45715 222.884 7.53487L222.863 7.53797C222.704 7.56078 222.545 7.5834 222.387 7.60525C222.04 7.65108 221.69 7.71101 221.381 7.7636C221.256 7.78545 220.957 7.85177 220.888 7.99311C220.865 8.04145 220.867 8.09442 220.894 8.14257C220.917 8.18452 220.944 8.22397 220.972 8.25993C221.864 9.38812 222.881 10.1312 224.081 10.5312C225.545 11.0215 226.89 10.9811 228.098 10.4044C228.283 10.3052 228.506 10.2549 228.76 10.2549C228.953 10.2549 229.097 10.2845 229.144 10.2951C229.216 10.3067 229.313 10.3458 229.333 10.3709C230.084 11.3344 230.798 12.3634 231.463 13.4444C230.901 12.9107 230.167 12.5509 229.167 12.3166C228.291 12.113 227.396 12.0693 226.53 12.0267L226.239 12.0124C225.968 11.9989 225.696 11.9821 225.417 11.9649L224.947 11.9366C224.887 11.9366 224.829 11.9653 224.794 12.0128C224.755 12.0641 224.745 12.1306 224.768 12.1903C224.787 12.2402 224.822 12.3282 224.839 12.3576C225.753 13.8475 226.825 14.8781 228.118 15.5084C229.382 16.124 230.523 16.2868 231.675 16.0182C231.808 15.9869 231.963 15.9703 232.122 15.9703C232.612 15.9703 232.954 16.1161 233.026 16.251C233.659 17.5258 234.225 18.8504 234.712 20.2015C234.201 19.5138 233.486 18.9552 232.58 18.5374C231.68 18.1232 230.743 17.7446 229.822 17.3721C229.426 17.2124 229.028 17.0521 228.632 16.8881C228.573 16.863 228.503 16.8682 228.449 16.9036C228.395 16.9386 228.362 16.997 228.362 17.0598C228.362 17.1805 229.677 20.7383 231.586 22.1402C232.365 22.7122 233.324 23.3005 234.534 23.3282C234.896 23.3353 235.27 23.3852 235.553 23.6986C235.596 23.7485 235.653 23.7874 235.716 23.8081C235.812 23.839 235.839 23.8966 235.886 24.093C236.278 25.6971 236.563 27.3504 236.739 29.0292C236.686 28.8589 236.624 28.6868 236.553 28.5126C236.126 27.456 235.407 26.5314 234.291 25.6027C233.715 25.122 233.112 24.6567 232.529 24.2064L232.502 24.1851C232.236 23.9799 231.971 23.7756 231.707 23.5687C231.653 23.526 231.599 23.4819 231.538 23.4304L231.373 23.2928C231.315 23.2452 231.23 23.2354 231.162 23.2682C231.093 23.3024 231.052 23.3732 231.057 23.4488C231.065 23.5623 231.072 23.6696 231.078 23.7727L231.081 23.8208C231.094 24.0329 231.106 24.233 231.128 24.4306C231.335 26.3546 231.921 27.961 232.922 29.3413C233.541 30.1945 234.429 31.2375 235.814 31.7307C236.151 31.8514 236.396 32.0341 236.658 32.362C236.905 32.669 236.951 32.9496 236.945 33.3026C236.921 34.7816 236.813 36.2487 236.623 37.6855C236.578 37.2856 236.484 36.874 236.339 36.4463C236.039 35.5607 235.571 34.6998 234.909 33.8142C234.338 33.0474 233.744 32.2779 233.169 31.5333L233.13 31.4836C232.902 31.1887 232.674 30.8935 232.453 30.6046C232.411 30.5453 232.351 30.524 232.316 30.5122C232.267 30.4888 232.208 30.4865 232.156 30.5082C232.105 30.5294 232.066 30.5714 232.049 30.6228L232.042 30.6429C232.032 30.67 232.025 30.694 232.021 30.7179C231.624 33.0238 231.868 35.0897 232.764 37.0344C233.202 37.9853 233.79 39.0619 234.825 39.8365C235.298 40.1901 235.672 40.6862 235.877 41.2332C235.92 41.351 235.918 41.402 235.913 41.4217C235.475 43.1924 234.903 44.9002 234.206 46.5166C234.386 45.6648 234.373 44.7699 234.169 43.8428C233.878 42.5288 233.379 41.2554 232.934 40.165L232.8 39.8384C232.592 39.3274 232.381 38.8123 232.164 38.2785C232.137 38.2102 232.07 38.1636 231.982 38.1594C231.912 38.1594 231.848 38.1982 231.814 38.2612L231.744 38.3896C231.714 38.4459 231.685 38.4983 231.66 38.5524C230.765 40.5234 230.462 42.5439 230.762 44.5578C230.976 45.9979 231.339 47.029 231.938 47.9014C232.248 48.3523 232.543 48.8546 232.597 49.4724C232.609 49.6185 232.603 49.7193 232.537 49.8339C231.781 51.1253 230.933 52.344 230.004 53.4762C230.008 53.47 230.011 53.4639 230.015 53.4577C230.683 52.2672 230.703 50.9801 230.635 49.8778C230.576 48.9329 230.465 47.9894 230.358 47.0772L230.352 47.0244C230.309 46.659 230.266 46.2937 230.227 45.9277C230.204 45.7202 230.179 45.5128 230.153 45.3022L230.119 45.0172C230.111 44.9542 230.072 44.8997 230.015 44.8722C229.91 44.8185 229.739 44.9014 229.555 45.1141C228.288 46.5756 227.501 48.2272 227.217 50.0232C226.923 51.8854 227.082 53.4789 227.706 54.895C227.722 54.9327 227.722 55.0097 227.722 55.0354L227.688 55.8502C227.683 55.9087 227.652 55.9749 227.626 55.9994C226.36 57.1878 224.967 58.2208 223.472 59.0806C224.18 58.4569 224.689 57.6431 225.018 56.6118C225.384 55.4687 225.571 54.279 225.753 53.1255L225.769 53.0228C225.833 52.6176 225.901 52.2131 225.969 51.7997L226.047 51.3324C226.058 51.2643 226.03 51.1963 225.976 51.1555C225.922 51.1137 225.845 51.1036 225.783 51.1296L225.715 51.1568C225.643 51.1856 225.58 51.2113 225.521 51.2409C222.695 52.6174 220.835 55.8277 221.098 58.8741C221.139 59.3513 221.094 59.7995 220.96 60.2434C220.948 60.2838 220.908 60.3277 220.892 60.3351C219.549 60.8871 218.273 61.2898 216.989 61.5663C216.923 61.5812 216.871 61.6272 216.849 61.6893C216.828 61.7517 216.841 61.8196 216.885 61.8706C217.024 62.0319 217.146 62.2053 217.246 62.3869C217.287 62.4611 217.385 62.4992 217.458 62.4807C218.504 62.2479 219.523 61.9464 220.487 61.5841C220.565 61.5536 220.624 61.5391 220.68 61.548C220.895 61.5758 221.121 61.6187 221.373 61.6796C221.425 61.692 221.468 61.7154 221.469 61.7133C222.018 62.7817 222.963 63.4623 224.357 63.7935C224.66 63.8645 224.973 63.9169 225.287 63.949C225.615 63.9828 225.981 64 226.375 64C226.92 64 227.309 63.9671 227.314 63.9667C228.522 63.8349 229.554 63.5696 230.469 63.1556C230.844 62.9861 231.271 62.7577 231.6 62.35C231.663 62.2719 231.652 62.1591 231.576 62.0936C230.647 61.2945 229.702 60.7138 228.685 60.3186C227.178 59.7347 225.806 59.5766 224.46 59.8289C224.259 59.867 224.063 59.9149 223.872 59.97C225.131 59.2365 226.336 58.3743 227.473 57.3921C227.495 57.3728 227.531 57.3558 227.559 57.3509C227.745 57.3208 227.993 57.2837 228.246 57.2659C228.269 57.2659 228.299 57.2769 228.302 57.278C228.988 58.0263 229.871 58.39 231.002 58.39C231.06 58.39 231.118 58.3888 231.176 58.3869C232.406 58.3482 233.643 58.0186 234.852 57.4066C235.731 56.9594 236.648 56.4387 237.391 55.6622C237.555 55.4896 237.703 55.2943 237.832 55.122L237.845 55.1052C237.903 55.0292 237.961 54.9526 238.02 54.877C238.053 54.8363 238.067 54.7837 238.058 54.7307C238.049 54.6796 238.019 54.6342 237.967 54.6013C237.954 54.5944 237.639 54.4298 237.352 54.3214C235.428 53.5965 233.486 53.5223 231.634 54.1044C231.027 54.2945 230.457 54.5799 229.901 54.9743C230.929 53.8092 231.88 52.5319 232.744 51.1576C232.754 51.1431 232.778 51.1038 232.786 51.0967C232.862 51.0497 232.939 51.0052 233.016 50.9613C233.154 50.8823 233.297 50.8005 233.432 50.703C233.545 50.6205 233.577 50.6184 233.692 50.6903C233.854 50.7929 234.042 50.8463 234.207 50.8883C235.168 51.1284 236.138 51.0087 237.21 50.5178C238.189 50.07 238.942 49.3622 239.61 48.6642C240.582 47.646 241.217 46.7274 241.609 45.773C241.691 45.5727 241.75 45.3656 241.811 45.1491C241.836 45.0582 241.862 44.9674 241.889 44.878C241.919 44.7821 241.867 44.6806 241.77 44.6472L241.689 44.6412C241.293 44.6412 237.758 44.6978 235.69 46.6545C235.24 47.0803 234.837 47.5327 234.469 48.0281C235.287 46.3386 235.98 44.558 236.539 42.7098L236.548 42.6827C236.554 42.6601 236.564 42.6259 236.571 42.6166L237.112 41.8923C237.132 41.8633 237.135 41.8633 237.166 41.8633C237.18 41.8633 237.196 41.8643 237.213 41.8653L237.329 41.872C237.732 41.8964 237.968 41.8929 238.163 41.8631C238.933 41.7446 239.629 41.3664 240.288 40.7067C241.831 39.1638 242.893 37.2388 243.534 34.8223C243.603 34.5635 243.622 34.302 243.643 34.0248C243.652 33.8991 243.662 33.7696 243.677 33.6358C243.683 33.5716 243.657 33.5103 243.608 33.4703Z" fill="#1A335B"/>
</svg>
