<svg width="244" height="64" viewBox="0 0 244 64" fill="none" xmlns="http://www.w3.org/2000/svg">
<path d="M83.1376 43.5792L81.2626 43.7837C81.2096 43.5943 81.1168 43.4163 80.9842 43.2496C80.8554 43.083 80.6812 42.9485 80.4615 42.8462C80.2418 42.744 79.9728 42.6928 79.6547 42.6928C79.2266 42.6928 78.8668 42.7856 78.5751 42.9712C78.2872 43.1568 78.1452 43.3974 78.149 43.6928C78.1452 43.9466 78.238 44.1531 78.4274 44.3121C78.6206 44.4712 78.9387 44.6019 79.3819 44.7042L80.8706 45.0224C81.6963 45.2004 82.31 45.4826 82.7115 45.869C83.1168 46.2553 83.3213 46.761 83.3251 47.386C83.3213 47.9353 83.1603 48.4201 82.8422 48.8406C82.5278 49.2572 82.0903 49.583 81.5297 49.8178C80.969 50.0527 80.3251 50.1701 79.5978 50.1701C78.5297 50.1701 77.6698 49.9466 77.0183 49.4996C76.3668 49.0489 75.9785 48.422 75.8535 47.619L77.8592 47.4258C77.9501 47.8197 78.1433 48.1171 78.4387 48.3178C78.7342 48.5186 79.1187 48.619 79.5922 48.619C80.0808 48.619 80.4728 48.5186 80.7683 48.3178C81.0675 48.1171 81.2172 47.869 81.2172 47.5735C81.2172 47.3235 81.1206 47.1171 80.9274 46.9542C80.738 46.7913 80.4425 46.6663 80.041 46.5792L78.5524 46.2667C77.7153 46.0924 77.0959 45.7989 76.6944 45.386C76.2929 44.9693 76.094 44.4428 76.0978 43.8065C76.094 43.2686 76.2399 42.8027 76.5353 42.4087C76.8346 42.011 77.2493 41.7042 77.7797 41.4883C78.3137 41.2686 78.9293 41.1587 79.6262 41.1587C80.649 41.1587 81.4539 41.3765 82.041 41.8121C82.6319 42.2478 82.9975 42.8368 83.1376 43.5792Z" fill="#212121" fill-opacity="0.65"/>
<path d="M89.3791 41.2724V42.8633H84.362V41.2724H89.3791ZM85.6007 39.1815H87.6575V47.3746C87.6575 47.6512 87.6992 47.8633 87.7825 48.011C87.8696 48.1549 87.9833 48.2534 88.1234 48.3065C88.2636 48.3595 88.4189 48.386 88.5893 48.386C88.7181 48.386 88.8355 48.3765 88.9416 48.3576C89.0514 48.3387 89.1348 48.3216 89.1916 48.3065L89.5382 49.9144C89.4283 49.9523 89.2711 49.994 89.0666 50.0394C88.8658 50.0849 88.6196 50.1114 88.3279 50.119C87.8128 50.1341 87.3488 50.0565 86.9359 49.886C86.523 49.7118 86.1954 49.4428 85.9529 49.0792C85.7143 48.7156 85.5969 48.261 85.6007 47.7156V39.1815Z" fill="#212121" fill-opacity="0.65"/>
<path d="M94.8123 50.1701C93.96 50.1701 93.2214 49.9826 92.5964 49.6076C91.9714 49.2326 91.4866 48.708 91.1419 48.0337C90.801 47.3595 90.6305 46.5716 90.6305 45.6701C90.6305 44.7686 90.801 43.9788 91.1419 43.3008C91.4866 42.6228 91.9714 42.0962 92.5964 41.7212C93.2214 41.3462 93.96 41.1587 94.8123 41.1587C95.6646 41.1587 96.4032 41.3462 97.0282 41.7212C97.6532 42.0962 98.1362 42.6228 98.4771 43.3008C98.8218 43.9788 98.9941 44.7686 98.9941 45.6701C98.9941 46.5716 98.8218 47.3595 98.4771 48.0337C98.1362 48.708 97.6532 49.2326 97.0282 49.6076C96.4032 49.9826 95.6646 50.1701 94.8123 50.1701ZM94.8237 48.5224C95.2858 48.5224 95.6722 48.3955 95.9828 48.1417C96.2934 47.8841 96.5244 47.5394 96.676 47.1076C96.8313 46.6758 96.9089 46.1947 96.9089 45.6644C96.9089 45.1303 96.8313 44.6474 96.676 44.2156C96.5244 43.7799 96.2934 43.4334 95.9828 43.1758C95.6722 42.9182 95.2858 42.7894 94.8237 42.7894C94.3502 42.7894 93.9563 42.9182 93.6419 43.1758C93.3313 43.4334 93.0983 43.7799 92.943 44.2156C92.7915 44.6474 92.7157 45.1303 92.7157 45.6644C92.7157 46.1947 92.7915 46.6758 92.943 47.1076C93.0983 47.5394 93.3313 47.8841 93.6419 48.1417C93.9563 48.3955 94.3502 48.5224 94.8237 48.5224Z" fill="#212121" fill-opacity="0.65"/>
<path d="M100.74 49.9996V41.2724H102.734V42.7269H102.825C102.984 42.2231 103.257 41.8349 103.643 41.5621C104.033 41.2856 104.479 41.1474 104.979 41.1474C105.092 41.1474 105.219 41.1531 105.359 41.1644C105.503 41.172 105.622 41.1853 105.717 41.2042V43.0962C105.63 43.0659 105.492 43.0394 105.302 43.0167C105.117 42.9902 104.937 42.9769 104.763 42.9769C104.388 42.9769 104.05 43.0584 103.751 43.2212C103.456 43.3803 103.223 43.6019 103.052 43.886C102.882 44.1701 102.797 44.4978 102.797 44.869V49.9996H100.74Z" fill="#212121" fill-opacity="0.65"/>
<path d="M110.588 50.1701C109.713 50.1701 108.957 49.9883 108.321 49.6246C107.688 49.2572 107.202 48.7383 106.861 48.0678C106.52 47.3936 106.349 46.6 106.349 45.6871C106.349 44.7894 106.52 44.0015 106.861 43.3235C107.205 42.6417 107.686 42.1114 108.304 41.7326C108.921 41.35 109.647 41.1587 110.48 41.1587C111.018 41.1587 111.525 41.2459 112.003 41.4201C112.484 41.5906 112.908 41.8557 113.275 42.2156C113.647 42.5754 113.938 43.0337 114.15 43.5906C114.363 44.1436 114.469 44.8027 114.469 45.5678V46.1985H107.315V44.8121H112.497C112.493 44.4182 112.408 44.0678 112.241 43.761C112.075 43.4504 111.842 43.2061 111.542 43.0281C111.247 42.85 110.902 42.761 110.508 42.761C110.088 42.761 109.719 42.8633 109.4 43.0678C109.082 43.2686 108.834 43.5337 108.656 43.8633C108.482 44.189 108.393 44.547 108.389 44.9371V46.1474C108.389 46.6549 108.482 47.0906 108.667 47.4542C108.853 47.814 109.113 48.0906 109.446 48.2837C109.779 48.4731 110.169 48.5678 110.616 48.5678C110.916 48.5678 111.186 48.5262 111.429 48.4428C111.671 48.3557 111.881 48.2288 112.059 48.0621C112.238 47.8955 112.372 47.689 112.463 47.4428L114.383 47.6587C114.262 48.1663 114.031 48.6095 113.69 48.9883C113.353 49.3633 112.921 49.6549 112.395 49.8633C111.868 50.0678 111.266 50.1701 110.588 50.1701Z" fill="#212121" fill-opacity="0.65"/>
<path d="M120.177 49.9996V41.2724H122.172V42.7269H122.263C122.422 42.2231 122.694 41.8349 123.081 41.5621C123.471 41.2856 123.916 41.1474 124.416 41.1474C124.53 41.1474 124.657 41.1531 124.797 41.1644C124.941 41.172 125.06 41.1853 125.155 41.2042V43.0962C125.068 43.0659 124.929 43.0394 124.74 43.0167C124.554 42.9902 124.374 42.9769 124.2 42.9769C123.825 42.9769 123.488 43.0584 123.189 43.2212C122.893 43.3803 122.66 43.6019 122.49 43.886C122.319 44.1701 122.234 44.4978 122.234 44.869V49.9996H120.177Z" fill="#212121" fill-opacity="0.65"/>
<path d="M128.876 50.1758C128.323 50.1758 127.825 50.0773 127.382 49.8803C126.943 49.6796 126.594 49.3841 126.336 48.994C126.083 48.6038 125.956 48.1228 125.956 47.5508C125.956 47.0584 126.047 46.6512 126.229 46.3292C126.41 46.0072 126.658 45.7496 126.973 45.5565C127.287 45.3633 127.641 45.2174 128.035 45.119C128.433 45.0167 128.844 44.9428 129.268 44.8974C129.78 44.8443 130.194 44.797 130.513 44.7553C130.831 44.7099 131.062 44.6417 131.206 44.5508C131.354 44.4561 131.427 44.3103 131.427 44.1133V44.0792C131.427 43.6512 131.3 43.3197 131.047 43.0849C130.793 42.85 130.427 42.7326 129.95 42.7326C129.446 42.7326 129.047 42.8424 128.751 43.0621C128.46 43.2818 128.263 43.5413 128.16 43.8406L126.24 43.5678C126.391 43.0375 126.641 42.5943 126.99 42.2383C127.338 41.8784 127.764 41.6095 128.268 41.4315C128.772 41.2496 129.329 41.1587 129.939 41.1587C130.359 41.1587 130.778 41.208 131.194 41.3065C131.611 41.4049 131.992 41.5678 132.336 41.7951C132.681 42.0186 132.958 42.3235 133.166 42.7099C133.378 43.0962 133.484 43.5792 133.484 44.1587V49.9996H131.507V48.8008H131.439C131.314 49.0432 131.138 49.2705 130.91 49.4826C130.687 49.6909 130.405 49.8595 130.064 49.9883C129.727 50.1133 129.331 50.1758 128.876 50.1758ZM129.41 48.6644C129.823 48.6644 130.181 48.583 130.484 48.4201C130.787 48.2534 131.02 48.0337 131.183 47.761C131.35 47.4883 131.433 47.1909 131.433 46.869V45.8406C131.369 45.8936 131.259 45.9428 131.104 45.9883C130.952 46.0337 130.782 46.0735 130.592 46.1076C130.403 46.1417 130.215 46.172 130.03 46.1985C129.844 46.225 129.683 46.2478 129.547 46.2667C129.24 46.3084 128.965 46.3765 128.723 46.4712C128.48 46.5659 128.289 46.6985 128.149 46.869C128.009 47.0356 127.939 47.2515 127.939 47.5167C127.939 47.8955 128.077 48.1815 128.354 48.3746C128.63 48.5678 128.982 48.6644 129.41 48.6644Z" fill="#212121" fill-opacity="0.65"/>
<path d="M139.91 41.2724V42.8633H134.893V41.2724H139.91ZM136.132 39.1815H138.189V47.3746C138.189 47.6512 138.23 47.8633 138.314 48.011C138.401 48.1549 138.515 48.2534 138.655 48.3065C138.795 48.3595 138.95 48.386 139.121 48.386C139.249 48.386 139.367 48.3765 139.473 48.3576C139.583 48.3387 139.666 48.3216 139.723 48.3065L140.069 49.9144C139.96 49.9523 139.802 49.994 139.598 50.0394C139.397 50.0849 139.151 50.1114 138.859 50.119C138.344 50.1341 137.88 50.0565 137.467 49.886C137.054 49.7118 136.727 49.4428 136.484 49.0792C136.246 48.7156 136.128 48.261 136.132 47.7156V39.1815Z" fill="#212121" fill-opacity="0.65"/>
<path d="M141.631 49.9996V41.2724H143.687V49.9996H141.631ZM142.665 40.0337C142.339 40.0337 142.059 39.9258 141.824 39.7099C141.589 39.4902 141.471 39.2269 141.471 38.9201C141.471 38.6095 141.589 38.3462 141.824 38.1303C142.059 37.9106 142.339 37.8008 142.665 37.8008C142.994 37.8008 143.274 37.9106 143.506 38.1303C143.74 38.3462 143.858 38.6095 143.858 38.9201C143.858 39.2269 143.74 39.4902 143.506 39.7099C143.274 39.9258 142.994 40.0337 142.665 40.0337Z" fill="#212121" fill-opacity="0.65"/>
<path d="M147.859 44.886V49.9996H145.802V41.2724H147.768V42.7553H147.871C148.071 42.2667 148.391 41.8784 148.831 41.5906C149.274 41.3027 149.821 41.1587 150.473 41.1587C151.075 41.1587 151.6 41.2875 152.047 41.5451C152.497 41.8027 152.846 42.1758 153.092 42.6644C153.342 43.1531 153.465 43.7459 153.461 44.4428V49.9996H151.405V44.761C151.405 44.1777 151.253 43.7212 150.95 43.3917C150.651 43.0621 150.236 42.8974 149.706 42.8974C149.346 42.8974 149.026 42.9769 148.746 43.136C148.469 43.2913 148.251 43.5167 148.092 43.8121C147.937 44.1076 147.859 44.4656 147.859 44.886Z" fill="#212121" fill-opacity="0.65"/>
<path d="M159.348 53.4542C158.609 53.4542 157.975 53.3538 157.444 53.1531C156.914 52.9561 156.488 52.6909 156.166 52.3576C155.844 52.0243 155.621 51.6549 155.496 51.2496L157.348 50.8008C157.431 50.9712 157.552 51.1398 157.711 51.3065C157.871 51.4769 158.085 51.6171 158.354 51.7269C158.626 51.8406 158.969 51.8974 159.382 51.8974C159.965 51.8974 160.448 51.7553 160.831 51.4712C161.213 51.1909 161.405 50.7288 161.405 50.0849V48.4315H161.302C161.196 48.6436 161.041 48.8614 160.836 49.0849C160.636 49.3084 160.369 49.4959 160.035 49.6474C159.706 49.7989 159.291 49.8746 158.791 49.8746C158.121 49.8746 157.513 49.7174 156.967 49.4031C156.425 49.0849 155.994 48.6114 155.672 47.9826C155.354 47.35 155.194 46.5584 155.194 45.6076C155.194 44.6493 155.354 43.8406 155.672 43.1815C155.994 42.5186 156.427 42.0167 156.973 41.6758C157.518 41.3311 158.126 41.1587 158.797 41.1587C159.308 41.1587 159.729 41.2459 160.058 41.4201C160.391 41.5906 160.657 41.797 160.854 42.0394C161.05 42.2781 161.2 42.5034 161.302 42.7156H161.416V41.2724H163.444V50.1417C163.444 50.8879 163.266 51.5053 162.91 51.994C162.554 52.4826 162.068 52.8481 161.45 53.0906C160.833 53.333 160.132 53.4542 159.348 53.4542ZM159.365 48.261C159.8 48.261 160.172 48.1549 160.479 47.9428C160.785 47.7307 161.018 47.4258 161.177 47.0281C161.336 46.6303 161.416 46.1531 161.416 45.5962C161.416 45.047 161.336 44.5659 161.177 44.1531C161.022 43.7402 160.791 43.4201 160.484 43.1928C160.181 42.9618 159.808 42.8462 159.365 42.8462C158.907 42.8462 158.524 42.9656 158.217 43.2042C157.91 43.4428 157.679 43.7705 157.524 44.1871C157.369 44.6 157.291 45.0697 157.291 45.5962C157.291 46.1303 157.369 46.5981 157.524 46.9996C157.683 47.3974 157.916 47.708 158.223 47.9315C158.533 48.1512 158.914 48.261 159.365 48.261Z" fill="#212121" fill-opacity="0.65"/>
<path d="M0.0700881 33.4703C0.120051 33.43 0.192611 33.4173 0.249116 33.4358C0.31811 33.4565 0.38136 33.4745 0.441037 33.4915L0.470183 33.4998C0.617293 33.5418 0.744372 33.5778 0.870266 33.6271C2.85923 34.3978 4.42511 35.7181 5.65751 37.6634C5.96184 38.1441 6.19757 38.6437 6.38533 39.1419C6.07742 37.466 6.00605 36.8131 5.95152 34.9378C5.94895 34.8591 5.94895 34.779 5.94895 34.6996C5.94895 34.4826 5.94895 34.2777 5.90037 34.0907C5.84208 33.8691 5.72491 33.6481 5.61151 33.4343C5.57959 33.3738 5.54767 33.3133 5.5213 33.2601C5.51218 33.2496 5.48264 33.2321 5.47114 33.2303C4.90233 33.1456 4.39933 32.9101 3.93302 32.5105C3.46314 32.1058 3.07673 31.6104 2.7843 31.0377C1.7347 28.9852 1.2095 26.7164 1.22279 24.2953C1.22398 24.0617 1.25213 23.8343 1.28306 23.5871C1.29713 23.4763 1.31141 23.363 1.3233 23.2456C1.33004 23.1812 1.37069 23.124 1.42957 23.0961C1.48766 23.0687 1.55785 23.0706 1.61653 23.1052C1.65202 23.1269 1.68236 23.1445 1.70991 23.1601C1.76325 23.1911 1.80389 23.2152 1.84235 23.2423C2.7377 23.8682 3.52738 24.6474 4.18977 25.5577C5.2707 27.0455 5.89938 28.7278 6.0687 30.5785C6.08555 30.3722 6.10261 30.1659 6.11965 29.9596L6.1256 29.8848C6.19202 29.076 6.26062 28.2396 6.31653 27.4171C6.3306 27.2089 6.37164 27.0062 6.41129 26.8102C6.48782 26.4333 6.56019 26.0774 6.44441 25.7044C6.41804 25.6201 6.39583 25.5352 6.37363 25.4506C6.31891 25.2408 6.05463 24.9177 5.64878 24.5644L5.63352 24.5511C5.48383 24.4273 4.71497 23.7414 4.27879 22.3844C3.83607 21.0059 3.86958 19.5654 3.89396 18.5136L3.89456 18.4856C3.92707 17.0397 4.08727 15.9502 4.41401 14.9523C4.45624 14.8247 4.50639 14.6988 4.55953 14.5666C4.58709 14.4977 4.61524 14.4266 4.64419 14.3521C4.66798 14.2891 4.72508 14.2433 4.79189 14.2325L4.82461 14.2296C4.8825 14.2296 4.93662 14.2549 4.9733 14.2986L5.29072 14.6758C6.81258 16.4859 7.56022 18.6089 7.51343 20.9859C7.50531 21.4045 7.47318 21.834 7.41628 22.2773C7.80309 20.9755 8.25671 19.7083 8.77259 18.4892C8.7833 18.4625 8.79024 18.4295 8.79103 18.4014L8.7946 18.2348C8.79996 17.9943 8.8055 17.7454 8.795 17.5006C8.79341 17.46 8.76645 17.3871 8.71034 17.3154C8.63064 17.2127 8.54221 17.1124 8.45062 17.008C8.29459 16.8309 8.1334 16.648 8.00572 16.4392C7.59452 15.7675 7.40142 14.974 7.39825 13.9417C7.3927 12.7265 7.58481 11.4477 8.00354 9.91693C8.23233 9.08185 8.5777 7.99698 9.22087 7.01341C9.26448 6.94729 9.31325 6.88503 9.3652 6.8191C9.38859 6.7899 9.41318 6.75877 9.43816 6.72532C9.47464 6.67757 9.525 6.64972 9.60629 6.64972C9.67112 6.65436 9.72901 6.69033 9.76132 6.7462C10.5686 8.16712 10.9707 9.6851 10.9897 11.387C11.006 12.8059 10.7788 14.0269 10.4939 14.9919C11.2189 13.7002 12.0247 12.4521 12.898 11.2682L12.918 11.2414C12.9379 11.2156 12.9462 11.2031 12.9448 11.212C12.9997 10.829 13.0378 10.5225 13.0642 10.2557C13.0636 10.2516 13.0584 10.2292 13.0176 10.1627C12.9599 10.0668 12.8966 9.97281 12.8294 9.87342C12.6946 9.6735 12.5554 9.46662 12.4662 9.23499C12.197 8.53584 12.1365 7.74292 12.2818 6.81175C12.6008 4.75085 13.5325 2.89509 15.1293 1.13813C15.2936 0.957735 15.4752 0.798222 15.6673 0.629622L15.7205 0.582639C15.7956 0.51632 15.8727 0.448455 15.9507 0.376723C16.0002 0.330706 16.0712 0.313498 16.14 0.333219C16.205 0.353328 16.2552 0.405918 16.2706 0.47127L16.3055 0.620535C16.3293 0.71953 16.3478 0.797642 16.3615 0.876142C16.5764 2.12711 16.5607 3.46701 16.3133 4.97281C16.0678 6.46624 15.5787 7.75432 14.8283 8.87323C15.9536 7.58012 17.0482 6.49427 18.1922 5.53198C18.1974 5.5254 18.2049 5.50549 18.2055 5.50046C18.1161 4.7493 18.306 4.04164 18.7866 3.33708C19.4177 2.41114 20.2946 1.70541 21.3929 1.23983C22.0502 0.961795 22.7312 0.715663 23.398 0.474557C23.7174 0.358935 24.0368 0.243699 24.3657 0.120149C24.6962 -0.00804094 24.8375 -0.0308561 24.9143 0.0383627C25.013 0.128076 24.9892 0.204643 24.9462 0.343854L24.9323 0.38929C24.5292 1.71334 23.9943 2.76052 23.2967 3.59056C22.0159 5.11589 20.518 5.89083 18.7198 5.95928C18.6567 5.96295 18.6068 5.97996 18.5864 5.99543C18.3332 6.18027 18.1468 6.32819 17.982 6.47474C17.461 6.93917 16.9479 7.43395 16.4459 7.95502C17.1926 7.50258 18.1052 7.29841 19.133 7.34906C19.6954 7.37671 20.2537 7.45715 20.7936 7.53487L20.8142 7.53797C20.9738 7.56078 21.1326 7.5834 21.291 7.60525C21.638 7.65108 21.9877 7.71101 22.2966 7.7636C22.4217 7.78545 22.7205 7.85177 22.7893 7.99311C22.8131 8.04145 22.8111 8.09442 22.7841 8.14257C22.7604 8.18452 22.7342 8.22397 22.7056 8.25993C21.814 9.38812 20.797 10.1312 19.5963 10.5312C18.1323 11.0215 16.7877 10.9811 15.5795 10.4044C15.3947 10.3052 15.1719 10.2549 14.9173 10.2549C14.7252 10.2549 14.5811 10.2845 14.5333 10.2951C14.4617 10.3067 14.3646 10.3458 14.3447 10.3709C13.5933 11.3344 12.8802 12.3634 12.2142 13.4444C12.7769 12.9107 13.5106 12.5509 14.5103 12.3166C15.3864 12.113 16.2822 12.0693 17.1482 12.0267L17.4382 12.0124C17.7098 11.9989 17.9814 11.9821 18.2612 11.9649L18.7303 11.9366C18.791 11.9366 18.8486 11.9653 18.8839 12.0128C18.923 12.0641 18.9323 12.1306 18.9093 12.1903C18.8905 12.2402 18.8562 12.3282 18.8385 12.3576C17.9251 13.8475 16.8525 14.8781 15.5599 15.5084C14.2962 16.124 13.1544 16.2868 12.0027 16.0182C11.8694 15.9869 11.715 15.9703 11.5554 15.9703C11.0655 15.9703 10.7239 16.1161 10.6521 16.251C10.0185 17.5258 9.45303 18.8504 8.96531 20.2015C9.47682 19.5138 10.1921 18.9552 11.0978 18.5374C11.9975 18.1232 12.9343 17.7446 13.856 17.3721C14.2521 17.2124 14.6499 17.0521 15.0458 16.8881C15.1047 16.863 15.1743 16.8682 15.2292 16.9036C15.2831 16.9386 15.3152 16.997 15.3152 17.0598C15.3152 17.1805 14.0007 20.7383 12.0917 22.1402C11.3129 22.7122 10.3537 23.3005 9.14414 23.3282C8.78212 23.3353 8.40779 23.3852 8.12507 23.6986C8.08185 23.7485 8.02455 23.7874 7.9621 23.8081C7.86555 23.839 7.83898 23.8966 7.7914 24.093C7.39963 25.6971 7.11433 27.3504 6.93867 29.0292C6.99181 28.8589 7.05346 28.6868 7.12424 28.5126C7.5515 27.456 8.27059 26.5314 9.3872 25.6027C9.96281 25.122 10.5655 24.6567 11.1484 24.2064L11.1761 24.1851C11.4416 23.9799 11.7065 23.7756 11.9705 23.5687C12.0251 23.526 12.0782 23.4819 12.1399 23.4304L12.3046 23.2928C12.3623 23.2452 12.4482 23.2354 12.5156 23.2682C12.5848 23.3024 12.6262 23.3732 12.6208 23.4488C12.6127 23.5623 12.6062 23.6696 12.6 23.7727L12.5969 23.8208C12.5838 24.0329 12.5715 24.233 12.5495 24.4306C12.3429 26.3546 11.7562 27.961 10.756 29.3413C10.1368 30.1945 9.24862 31.2375 7.86356 31.7307C7.52652 31.8514 7.28206 32.0341 7.02016 32.362C6.77312 32.669 6.72712 32.9496 6.73268 33.3026C6.75627 34.7816 6.86432 36.2487 7.05485 37.6855C7.09946 37.2856 7.19384 36.874 7.33877 36.4463C7.63873 35.5607 8.10623 34.6998 8.76823 33.8142C9.33962 33.0474 9.93421 32.2779 10.5092 31.5333L10.5474 31.4836C10.7754 31.1887 11.0032 30.8935 11.2251 30.6046C11.2667 30.5453 11.3268 30.524 11.3615 30.5122C11.4107 30.4888 11.4693 30.4865 11.5215 30.5082C11.5726 30.5294 11.6119 30.5714 11.6291 30.6228L11.6359 30.6429C11.6454 30.67 11.6529 30.694 11.6569 30.7179C12.0534 33.0238 11.8102 35.0897 10.9134 37.0344C10.4755 37.9853 9.88801 39.0619 8.8523 39.8365C8.37944 40.1901 8.00611 40.6862 7.80111 41.2332C7.75769 41.351 7.75928 41.402 7.76423 41.4217C8.20259 43.1924 8.77517 44.9002 9.47127 46.5166C9.29204 45.6647 9.30433 44.7699 9.50894 43.8428C9.79939 42.5288 10.2986 41.2554 10.7439 40.165L10.8773 39.8384C11.0861 39.3274 11.2963 38.8123 11.5134 38.2785C11.5409 38.2102 11.6073 38.1636 11.696 38.1594C11.7657 38.1594 11.83 38.1982 11.8633 38.2612L11.9333 38.3896C11.964 38.4459 11.9928 38.4983 12.0173 38.5524C12.9131 40.5234 13.2156 42.5439 12.9161 44.5578C12.7019 45.9979 12.3391 47.029 11.7396 47.9014C11.4293 48.3523 11.1345 48.8546 11.0809 49.4724C11.0683 49.6185 11.0742 49.7193 11.141 49.8339C11.8972 51.1253 12.745 52.344 13.6734 53.4762C13.6699 53.47 13.6665 53.4639 13.6629 53.4577C12.995 52.2672 12.9747 50.9801 13.0429 49.8778C13.1018 48.9329 13.2129 47.9894 13.3197 47.0772L13.3259 47.0244C13.3689 46.659 13.4117 46.2937 13.4508 45.9277C13.4734 45.7202 13.4986 45.5128 13.5245 45.3022L13.5588 45.0172C13.5664 44.9542 13.6058 44.8997 13.6625 44.8722C13.768 44.8185 13.9387 44.9014 14.1231 45.1141C15.3902 46.5756 16.1765 48.2272 16.4604 50.0232C16.7548 51.8854 16.5952 53.4789 15.9719 54.895C15.9552 54.9327 15.9556 55.0097 15.9558 55.0354L15.9893 55.8502C15.9943 55.9087 16.026 55.9749 16.0522 55.9994C17.3175 57.1878 18.7105 58.2208 20.2054 59.0806C19.4978 58.4569 18.989 57.6431 18.6593 56.6118C18.2939 55.4687 18.1064 54.279 17.9245 53.1255L17.9087 53.0228C17.8443 52.6176 17.777 52.2131 17.7084 51.7997L17.6309 51.3324C17.6198 51.2643 17.6474 51.1963 17.7015 51.1555C17.7552 51.1137 17.833 51.1036 17.8948 51.1296L17.9624 51.1568C18.0346 51.1856 18.0974 51.2113 18.1567 51.2409C20.9827 52.6174 22.843 55.8277 22.5801 58.8741C22.5389 59.3513 22.5837 59.7995 22.7173 60.2434C22.7298 60.2838 22.7699 60.3277 22.7861 60.3351C24.1284 60.8871 25.4046 61.2898 26.6887 61.5663C26.7547 61.5812 26.8071 61.6272 26.8285 61.6893C26.8501 61.7517 26.837 61.8196 26.793 61.8707C26.6534 62.0319 26.5319 62.2053 26.432 62.3869C26.3909 62.4611 26.2932 62.4992 26.22 62.4807C25.1738 62.2479 24.1549 61.9464 23.1908 61.5841C23.1129 61.5536 23.0534 61.5391 22.9977 61.548C22.7832 61.5758 22.5565 61.6187 22.3049 61.6796C22.253 61.692 22.21 61.7154 22.2092 61.7133C21.6596 62.7817 20.7151 63.4623 19.3207 63.7935C19.0174 63.8645 18.7045 63.9169 18.3909 63.949C18.0625 63.9828 17.6964 64 17.3028 64C16.7576 64 16.3688 63.9671 16.364 63.9667C15.1554 63.8349 14.1233 63.5696 13.2091 63.1556C12.834 62.9861 12.4065 62.7577 12.078 62.35C12.0152 62.2719 12.0257 62.1591 12.102 62.0936C13.0307 61.2945 13.9762 60.7138 14.993 60.3186C16.4996 59.7347 17.872 59.5766 19.2172 59.8289C19.4183 59.867 19.6145 59.9149 19.8053 59.97C18.5469 59.2365 17.3421 58.3743 16.2042 57.3921C16.1824 57.3728 16.1465 57.3558 16.1186 57.3509C15.9324 57.3208 15.6852 57.2836 15.4322 57.2659C15.4088 57.2659 15.3791 57.2769 15.3757 57.278C14.6901 58.0263 13.8068 58.39 12.6754 58.39C12.6177 58.39 12.5598 58.3888 12.5021 58.3869C11.2719 58.3482 10.0351 58.0186 8.82553 57.4066C7.94644 56.9594 7.03007 56.4387 6.28699 55.6622C6.12223 55.4896 5.97512 55.2943 5.84526 55.122L5.83257 55.1052C5.77508 55.0292 5.71698 54.9526 5.65731 54.877C5.62479 54.8362 5.61111 54.7837 5.61964 54.7307C5.62876 54.6796 5.65909 54.6342 5.71084 54.6013C5.72392 54.5944 6.03856 54.4298 6.32584 54.3214C8.24938 53.5965 10.1913 53.5223 12.0439 54.1044C12.6504 54.2945 13.2212 54.5799 13.7769 54.9743C12.7491 53.8092 11.7975 52.5319 10.9334 51.1576C10.9241 51.1431 10.8995 51.1038 10.8916 51.0967C10.8161 51.0497 10.7387 51.0052 10.6616 50.9613C10.5234 50.8823 10.3803 50.8005 10.2459 50.703C10.1325 50.6205 10.1005 50.6184 9.98591 50.6903C9.82378 50.7929 9.63523 50.8463 9.47087 50.8883C8.5093 51.1284 7.54 51.0087 6.4678 50.5178C5.48838 50.07 4.73539 49.3622 4.06724 48.6642C3.09536 47.646 2.46033 46.7274 2.06857 45.773C1.98629 45.5727 1.92761 45.3656 1.86654 45.1491C1.84136 45.0582 1.81559 44.9673 1.78822 44.878C1.75829 44.7821 1.81063 44.6806 1.90778 44.6472L1.98827 44.6412C2.3846 44.6412 5.92001 44.6978 7.98788 46.6545C8.43773 47.0803 8.84099 47.5327 9.20916 48.0281C8.39114 46.3386 7.69742 44.558 7.13832 42.7098L7.13019 42.6827C7.12345 42.6601 7.11334 42.6259 7.1066 42.6166L6.56574 41.8923C6.54552 41.8633 6.54314 41.8633 6.51141 41.8633C6.49734 41.8633 6.48188 41.8643 6.46423 41.8653L6.34865 41.872C5.94617 41.8964 5.70925 41.8929 5.51436 41.8631C4.74431 41.7446 4.0492 41.3664 3.38958 40.7067C1.84691 39.1638 0.78502 37.2388 0.143445 34.8223C0.0746491 34.5635 0.0554151 34.302 0.0347971 34.0248C0.0256761 33.8991 0.0155671 33.7696 0.000895134 33.6358C-0.00525187 33.5716 0.0205241 33.5103 0.0700881 33.4703Z" fill="#212121" fill-opacity="0.45"/>
<path d="M64.9921 11.408C66.2591 9.136 66.8921 8 67.8391 8C68.7861 8 69.4191 9.136 70.6861 11.408L71.0141 11.996C71.3741 12.642 71.5541 12.965 71.8341 13.178C72.1141 13.391 72.4641 13.47 73.1641 13.628L73.8001 13.772C76.2601 14.329 77.4891 14.607 77.7821 15.548C78.0741 16.488 77.2361 17.469 75.5591 19.43L75.1251 19.937C74.6491 20.494 74.4101 20.773 74.3031 21.117C74.1961 21.462 74.2321 21.834 74.3041 22.577L74.3701 23.254C74.6231 25.871 74.7501 27.179 73.9841 27.76C73.2181 28.341 72.0661 27.811 69.7641 26.751L69.1671 26.477C68.5131 26.175 68.1861 26.025 67.8391 26.025C67.4921 26.025 67.1651 26.175 66.5111 26.477L65.9151 26.751C63.6121 27.811 62.4601 28.341 61.6951 27.761C60.9281 27.179 61.0551 25.871 61.3081 23.254L61.3741 22.578C61.4461 21.834 61.4821 21.462 61.3741 21.118C61.2681 20.773 61.0291 20.494 60.5531 19.938L60.1191 19.43C58.4421 17.47 57.6041 16.489 57.8961 15.548C58.1881 14.607 59.4191 14.328 61.8791 13.772L62.5151 13.628C63.2141 13.47 63.5631 13.391 63.8441 13.178C64.1251 12.965 64.3041 12.642 64.6641 11.996L64.9921 11.408Z" fill="#FF9500"/>
<path d="M90.9926 11.408C92.2596 9.136 92.8926 8 93.8396 8C94.7866 8 95.4196 9.136 96.6866 11.408L97.0146 11.996C97.3746 12.642 97.5546 12.965 97.8346 13.178C98.1146 13.391 98.4646 13.47 99.1646 13.628L99.8006 13.772C102.261 14.329 103.49 14.607 103.783 15.548C104.075 16.488 103.237 17.469 101.56 19.43L101.126 19.937C100.65 20.494 100.411 20.773 100.304 21.117C100.197 21.462 100.233 21.834 100.305 22.577L100.371 23.254C100.624 25.871 100.751 27.179 99.9846 27.76C99.2186 28.341 98.0666 27.811 95.7646 26.751L95.1676 26.477C94.5136 26.175 94.1866 26.025 93.8396 26.025C93.4926 26.025 93.1656 26.175 92.5116 26.477L91.9156 26.751C89.6126 27.811 88.4606 28.341 87.6956 27.761C86.9286 27.179 87.0556 25.871 87.3086 23.254L87.3746 22.578C87.4466 21.834 87.4826 21.462 87.3746 21.118C87.2686 20.773 87.0296 20.494 86.5536 19.938L86.1196 19.43C84.4426 17.47 83.6046 16.489 83.8966 15.548C84.1886 14.607 85.4196 14.328 87.8796 13.772L88.5156 13.628C89.2146 13.47 89.5636 13.391 89.8446 13.178C90.1256 12.965 90.3046 12.642 90.6646 11.996L90.9926 11.408Z" fill="#FF9500"/>
<path d="M116.993 11.408C118.26 9.136 118.893 8 119.84 8C120.787 8 121.42 9.136 122.687 11.408L123.015 11.996C123.375 12.642 123.555 12.965 123.835 13.178C124.115 13.391 124.465 13.47 125.165 13.628L125.801 13.772C128.261 14.329 129.49 14.607 129.783 15.548C130.075 16.488 129.237 17.469 127.56 19.43L127.126 19.937C126.65 20.494 126.411 20.773 126.304 21.117C126.197 21.462 126.233 21.834 126.305 22.577L126.371 23.254C126.624 25.871 126.751 27.179 125.985 27.76C125.219 28.341 124.067 27.811 121.765 26.751L121.168 26.477C120.514 26.175 120.187 26.025 119.84 26.025C119.493 26.025 119.166 26.175 118.512 26.477L117.916 26.751C115.613 27.811 114.461 28.341 113.696 27.761C112.929 27.179 113.056 25.871 113.309 23.254L113.375 22.578C113.447 21.834 113.483 21.462 113.375 21.118C113.269 20.773 113.03 20.494 112.554 19.938L112.12 19.43C110.443 17.47 109.605 16.489 109.897 15.548C110.189 14.607 111.42 14.328 113.88 13.772L114.516 13.628C115.215 13.47 115.564 13.391 115.845 13.178C116.126 12.965 116.305 12.642 116.665 11.996L116.993 11.408Z" fill="#FF9500"/>
<path d="M142.993 11.408C144.26 9.136 144.893 8 145.84 8C146.787 8 147.42 9.136 148.687 11.408L149.015 11.996C149.375 12.642 149.555 12.965 149.835 13.178C150.115 13.391 150.465 13.47 151.165 13.628L151.801 13.772C154.261 14.329 155.49 14.607 155.783 15.548C156.075 16.488 155.237 17.469 153.56 19.43L153.126 19.937C152.65 20.494 152.411 20.773 152.304 21.117C152.197 21.462 152.233 21.834 152.305 22.577L152.371 23.254C152.624 25.871 152.751 27.179 151.985 27.76C151.219 28.341 150.067 27.811 147.765 26.751L147.168 26.477C146.514 26.175 146.187 26.025 145.84 26.025C145.493 26.025 145.166 26.175 144.512 26.477L143.916 26.751C141.613 27.811 140.461 28.341 139.696 27.761C138.929 27.179 139.056 25.871 139.309 23.254L139.375 22.578C139.447 21.834 139.483 21.462 139.375 21.118C139.269 20.773 139.03 20.494 138.554 19.938L138.12 19.43C136.443 17.47 135.605 16.489 135.897 15.548C136.189 14.607 137.42 14.328 139.88 13.772L140.516 13.628C141.215 13.47 141.564 13.391 141.845 13.178C142.126 12.965 142.305 12.642 142.665 11.996L142.993 11.408Z" fill="#FF9500"/>
<path d="M168.994 11.408C170.261 9.136 170.894 8 171.841 8C172.788 8 173.421 9.136 174.688 11.408L175.016 11.996C175.376 12.642 175.556 12.965 175.836 13.178C176.116 13.391 176.466 13.47 177.166 13.628L177.802 13.772C180.262 14.329 181.491 14.607 181.784 15.548C182.076 16.488 181.238 17.469 179.561 19.43L179.127 19.937C178.651 20.494 178.412 20.773 178.305 21.117C178.198 21.462 178.234 21.834 178.306 22.577L178.372 23.254C178.625 25.871 178.752 27.179 177.986 27.76C177.22 28.341 176.068 27.811 173.766 26.751L173.169 26.477C172.515 26.175 172.188 26.025 171.841 26.025C171.494 26.025 171.167 26.175 170.513 26.477L169.917 26.751C167.614 27.811 166.462 28.341 165.697 27.761C164.93 27.179 165.057 25.871 165.31 23.254L165.376 22.578C165.448 21.834 165.484 21.462 165.376 21.118C165.27 20.773 165.031 20.494 164.555 19.938L164.121 19.43C162.444 17.47 161.606 16.489 161.898 15.548C162.19 14.607 163.421 14.328 165.881 13.772L166.517 13.628C167.216 13.47 167.565 13.391 167.846 13.178C168.127 12.965 168.306 12.642 168.666 11.996L168.994 11.408Z" fill="#212121" fill-opacity="0.1"/>
<path d="M168.996 11.4044L168.994 11.408L168.666 11.996L168.659 12.0079C168.303 12.646 168.125 12.9663 167.846 13.178C167.565 13.391 167.216 13.47 166.517 13.628L165.881 13.772C163.421 14.328 162.19 14.607 161.898 15.548C161.606 16.489 162.444 17.47 164.121 19.43L164.555 19.938L164.556 19.9393C165.031 20.4944 165.27 20.7733 165.376 21.118C165.484 21.462 165.448 21.834 165.376 22.578L165.31 23.254L165.309 23.2591C165.056 25.8727 164.93 27.1794 165.697 27.761C166.462 28.341 167.614 27.811 169.917 26.751L170.513 26.477C171.167 26.175 171.494 26.025 171.841 26.025C172.188 26.025 172.515 26.175 173.169 26.477L173.766 26.751C174.592 27.1315 175.27 27.4438 175.836 27.6608V13.178C175.556 12.965 175.376 12.642 175.016 11.996L174.688 11.408L174.686 11.4044C173.42 9.1348 172.787 8 171.841 8C170.894 8 170.261 9.1348 168.996 11.4044Z" fill="#FF9500"/>
<path d="M243.608 33.4703C243.558 33.43 243.485 33.4173 243.429 33.4358C243.36 33.4565 243.296 33.4745 243.237 33.4915L243.208 33.4998C243.06 33.5418 242.933 33.5778 242.807 33.6271C240.818 34.3978 239.253 35.7181 238.02 37.6634C237.716 38.1441 237.48 38.6437 237.292 39.1419C237.6 37.466 237.672 36.8131 237.726 34.9378C237.729 34.8591 237.729 34.779 237.729 34.6996C237.729 34.4826 237.729 34.2777 237.777 34.0907C237.836 33.8691 237.953 33.6481 238.066 33.4343C238.098 33.3738 238.13 33.3133 238.156 33.2601C238.166 33.2497 238.195 33.2321 238.207 33.2303C238.775 33.1456 239.278 32.9101 239.745 32.5105C240.215 32.1058 240.601 31.6104 240.893 31.0377C241.943 28.9852 242.468 26.7164 242.455 24.2953C242.454 24.0617 242.426 23.8344 242.395 23.5871C242.381 23.4763 242.366 23.363 242.354 23.2456C242.348 23.1812 242.307 23.124 242.248 23.0961C242.19 23.0687 242.12 23.0706 242.061 23.1052C242.026 23.1269 241.995 23.1445 241.968 23.1601C241.914 23.1911 241.874 23.2152 241.835 23.2423C240.94 23.8682 240.15 24.6474 239.488 25.5577C238.407 27.0455 237.778 28.7278 237.609 30.5785C237.592 30.3722 237.575 30.1659 237.558 29.9596L237.552 29.8848C237.486 29.076 237.417 28.2396 237.361 27.4171C237.347 27.2089 237.306 27.0062 237.266 26.8102C237.19 26.4333 237.118 26.0774 237.233 25.7044C237.26 25.6201 237.282 25.5352 237.304 25.4506C237.359 25.2408 237.623 24.9177 238.029 24.5644L238.044 24.5511C238.194 24.4273 238.963 23.7413 239.399 22.3844C239.842 21.0059 239.808 19.5654 239.784 18.5136L239.783 18.4856C239.751 17.0397 239.59 15.9502 239.264 14.9523C239.221 14.8247 239.171 14.6988 239.118 14.5666C239.091 14.4977 239.062 14.4266 239.034 14.3521C239.01 14.2891 238.953 14.2433 238.886 14.2325L238.853 14.2296C238.795 14.2296 238.741 14.2549 238.704 14.2986L238.387 14.6758C236.865 16.4859 236.117 18.6089 236.164 20.9859C236.172 21.4045 236.205 21.834 236.261 22.2773C235.875 20.9755 235.421 19.7083 234.905 18.4892C234.894 18.4625 234.887 18.4295 234.887 18.4014L234.883 18.2348C234.878 17.9943 234.872 17.7454 234.883 17.5006C234.884 17.46 234.911 17.3871 234.967 17.3154C235.047 17.2127 235.135 17.1124 235.227 17.008C235.383 16.8309 235.544 16.648 235.672 16.4392C236.083 15.7675 236.276 14.974 236.279 13.9417C236.285 12.7265 236.093 11.4477 235.674 9.91693C235.445 9.08185 235.1 7.99698 234.457 7.01341C234.413 6.94729 234.364 6.88503 234.313 6.8191C234.289 6.7899 234.265 6.75877 234.24 6.72532C234.203 6.67757 234.153 6.64972 234.071 6.64972C234.007 6.65436 233.949 6.69033 233.916 6.7462C233.109 8.16712 232.707 9.6851 232.688 11.387C232.672 12.8059 232.899 14.0269 233.184 14.9919C232.459 13.7002 231.653 12.4521 230.78 11.2682L230.76 11.2414C230.74 11.2156 230.732 11.2031 230.733 11.212C230.678 10.829 230.64 10.5225 230.614 10.2557C230.614 10.2516 230.619 10.2292 230.66 10.1627C230.718 10.0668 230.781 9.97281 230.848 9.87342C230.983 9.6735 231.122 9.46662 231.212 9.23499C231.481 8.53584 231.541 7.74292 231.396 6.81175C231.077 4.75085 230.145 2.89509 228.548 1.13813C228.384 0.957735 228.202 0.798222 228.01 0.629622L227.957 0.582639C227.882 0.51632 227.805 0.448455 227.727 0.376723C227.677 0.330706 227.607 0.313498 227.538 0.333219C227.473 0.353328 227.423 0.405918 227.407 0.47127L227.372 0.620535C227.348 0.71953 227.33 0.797642 227.316 0.876142C227.101 2.12711 227.117 3.46701 227.364 4.97281C227.61 6.46624 228.099 7.75432 228.849 8.87323C227.724 7.58012 226.629 6.49427 225.485 5.53198C225.48 5.5254 225.473 5.50549 225.472 5.50046C225.562 4.7493 225.372 4.04165 224.891 3.33708C224.26 2.41114 223.383 1.70541 222.285 1.23983C221.628 0.961796 220.946 0.715663 220.28 0.474557C219.96 0.358935 219.641 0.243699 219.312 0.120149C218.982 -0.00804093 218.84 -0.0308561 218.763 0.0383627C218.665 0.128076 218.688 0.204643 218.732 0.343854L218.745 0.38929C219.148 1.71334 219.683 2.76052 220.381 3.59056C221.662 5.11589 223.16 5.89083 224.958 5.95928C225.021 5.96295 225.071 5.97996 225.091 5.99543C225.345 6.18027 225.531 6.32819 225.696 6.47474C226.217 6.93917 226.73 7.43395 227.232 7.95502C226.485 7.50258 225.573 7.29841 224.545 7.34906C223.982 7.37671 223.424 7.45715 222.884 7.53487L222.863 7.53797C222.704 7.56078 222.545 7.5834 222.387 7.60525C222.04 7.65108 221.69 7.71101 221.381 7.7636C221.256 7.78545 220.957 7.85177 220.888 7.99311C220.865 8.04145 220.867 8.09442 220.894 8.14257C220.917 8.18452 220.944 8.22397 220.972 8.25993C221.864 9.38812 222.881 10.1312 224.081 10.5312C225.545 11.0215 226.89 10.9811 228.098 10.4044C228.283 10.3052 228.506 10.2549 228.76 10.2549C228.953 10.2549 229.097 10.2845 229.144 10.2951C229.216 10.3067 229.313 10.3458 229.333 10.3709C230.084 11.3344 230.798 12.3634 231.463 13.4444C230.901 12.9107 230.167 12.5509 229.167 12.3166C228.291 12.113 227.396 12.0693 226.53 12.0267L226.239 12.0124C225.968 11.9989 225.696 11.9821 225.417 11.9649L224.947 11.9366C224.887 11.9366 224.829 11.9653 224.794 12.0128C224.755 12.0641 224.745 12.1306 224.768 12.1903C224.787 12.2402 224.822 12.3282 224.839 12.3576C225.753 13.8475 226.825 14.8781 228.118 15.5084C229.382 16.124 230.523 16.2868 231.675 16.0182C231.808 15.9869 231.963 15.9703 232.122 15.9703C232.612 15.9703 232.954 16.1161 233.026 16.251C233.659 17.5258 234.225 18.8504 234.712 20.2015C234.201 19.5138 233.486 18.9552 232.58 18.5374C231.68 18.1232 230.743 17.7446 229.822 17.3721C229.426 17.2124 229.028 17.0521 228.632 16.8881C228.573 16.863 228.503 16.8682 228.449 16.9036C228.395 16.9386 228.362 16.997 228.362 17.0598C228.362 17.1805 229.677 20.7383 231.586 22.1402C232.365 22.7122 233.324 23.3005 234.534 23.3282C234.896 23.3353 235.27 23.3852 235.553 23.6986C235.596 23.7485 235.653 23.7874 235.716 23.8081C235.812 23.839 235.839 23.8966 235.886 24.093C236.278 25.6971 236.563 27.3504 236.739 29.0292C236.686 28.8589 236.624 28.6868 236.553 28.5126C236.126 27.456 235.407 26.5314 234.291 25.6027C233.715 25.122 233.112 24.6567 232.529 24.2064L232.502 24.1851C232.236 23.9799 231.971 23.7756 231.707 23.5687C231.653 23.526 231.599 23.4819 231.538 23.4304L231.373 23.2928C231.315 23.2452 231.23 23.2354 231.162 23.2682C231.093 23.3024 231.052 23.3732 231.057 23.4488C231.065 23.5623 231.072 23.6696 231.078 23.7727L231.081 23.8208C231.094 24.0329 231.106 24.233 231.128 24.4306C231.335 26.3546 231.921 27.961 232.922 29.3413C233.541 30.1945 234.429 31.2375 235.814 31.7307C236.151 31.8514 236.396 32.0341 236.658 32.362C236.905 32.669 236.951 32.9496 236.945 33.3026C236.921 34.7816 236.813 36.2487 236.623 37.6855C236.578 37.2856 236.484 36.874 236.339 36.4463C236.039 35.5607 235.571 34.6998 234.909 33.8142C234.338 33.0474 233.744 32.2779 233.169 31.5333L233.13 31.4836C232.902 31.1887 232.674 30.8935 232.453 30.6046C232.411 30.5453 232.351 30.524 232.316 30.5122C232.267 30.4888 232.208 30.4865 232.156 30.5082C232.105 30.5294 232.066 30.5714 232.049 30.6228L232.042 30.6429C232.032 30.67 232.025 30.694 232.021 30.7179C231.624 33.0238 231.868 35.0897 232.764 37.0344C233.202 37.9853 233.79 39.0619 234.825 39.8365C235.298 40.1901 235.672 40.6862 235.877 41.2332C235.92 41.351 235.918 41.402 235.913 41.4217C235.475 43.1924 234.903 44.9002 234.206 46.5166C234.386 45.6648 234.373 44.7699 234.169 43.8428C233.878 42.5288 233.379 41.2554 232.934 40.165L232.8 39.8384C232.592 39.3274 232.381 38.8123 232.164 38.2785C232.137 38.2102 232.07 38.1636 231.982 38.1594C231.912 38.1594 231.848 38.1982 231.814 38.2612L231.744 38.3896C231.714 38.4459 231.685 38.4983 231.66 38.5524C230.765 40.5234 230.462 42.5439 230.762 44.5578C230.976 45.9979 231.339 47.029 231.938 47.9014C232.248 48.3523 232.543 48.8546 232.597 49.4724C232.609 49.6185 232.603 49.7193 232.537 49.8339C231.781 51.1253 230.933 52.344 230.004 53.4762C230.008 53.47 230.011 53.4639 230.015 53.4577C230.683 52.2672 230.703 50.9801 230.635 49.8778C230.576 48.9329 230.465 47.9894 230.358 47.0772L230.352 47.0244C230.309 46.659 230.266 46.2937 230.227 45.9277C230.204 45.7202 230.179 45.5128 230.153 45.3022L230.119 45.0172C230.111 44.9542 230.072 44.8997 230.015 44.8722C229.91 44.8185 229.739 44.9014 229.555 45.1141C228.288 46.5756 227.501 48.2272 227.217 50.0232C226.923 51.8854 227.082 53.4789 227.706 54.895C227.722 54.9327 227.722 55.0097 227.722 55.0354L227.688 55.8502C227.683 55.9087 227.652 55.9749 227.626 55.9994C226.36 57.1878 224.967 58.2208 223.472 59.0806C224.18 58.4569 224.689 57.6431 225.018 56.6118C225.384 55.4687 225.571 54.279 225.753 53.1255L225.769 53.0228C225.833 52.6176 225.901 52.2131 225.969 51.7997L226.047 51.3324C226.058 51.2643 226.03 51.1963 225.976 51.1555C225.922 51.1137 225.845 51.1036 225.783 51.1296L225.715 51.1568C225.643 51.1856 225.58 51.2113 225.521 51.2409C222.695 52.6174 220.835 55.8277 221.098 58.8741C221.139 59.3513 221.094 59.7995 220.96 60.2434C220.948 60.2838 220.908 60.3277 220.892 60.3351C219.549 60.8871 218.273 61.2898 216.989 61.5663C216.923 61.5812 216.871 61.6272 216.849 61.6893C216.828 61.7517 216.841 61.8196 216.885 61.8706C217.024 62.0319 217.146 62.2053 217.246 62.3869C217.287 62.4611 217.385 62.4992 217.458 62.4807C218.504 62.2479 219.523 61.9464 220.487 61.5841C220.565 61.5536 220.624 61.5391 220.68 61.548C220.895 61.5758 221.121 61.6187 221.373 61.6796C221.425 61.692 221.468 61.7154 221.469 61.7133C222.018 62.7817 222.963 63.4623 224.357 63.7935C224.66 63.8645 224.973 63.9169 225.287 63.949C225.615 63.9828 225.981 64 226.375 64C226.92 64 227.309 63.9671 227.314 63.9667C228.522 63.8349 229.554 63.5696 230.469 63.1556C230.844 62.9861 231.271 62.7577 231.6 62.35C231.663 62.2719 231.652 62.1591 231.576 62.0936C230.647 61.2945 229.702 60.7138 228.685 60.3186C227.178 59.7347 225.806 59.5766 224.46 59.8289C224.259 59.867 224.063 59.9149 223.872 59.97C225.131 59.2365 226.336 58.3743 227.473 57.3921C227.495 57.3728 227.531 57.3558 227.559 57.3509C227.745 57.3208 227.993 57.2837 228.246 57.2659C228.269 57.2659 228.299 57.2769 228.302 57.278C228.988 58.0263 229.871 58.39 231.002 58.39C231.06 58.39 231.118 58.3888 231.176 58.3869C232.406 58.3482 233.643 58.0186 234.852 57.4066C235.731 56.9594 236.648 56.4387 237.391 55.6622C237.555 55.4896 237.703 55.2943 237.832 55.122L237.845 55.1052C237.903 55.0292 237.961 54.9526 238.02 54.877C238.053 54.8363 238.067 54.7837 238.058 54.7307C238.049 54.6796 238.019 54.6342 237.967 54.6013C237.954 54.5944 237.639 54.4298 237.352 54.3214C235.428 53.5965 233.486 53.5223 231.634 54.1044C231.027 54.2945 230.457 54.5799 229.901 54.9743C230.929 53.8092 231.88 52.5319 232.744 51.1576C232.754 51.1431 232.778 51.1038 232.786 51.0967C232.862 51.0497 232.939 51.0052 233.016 50.9613C233.154 50.8823 233.297 50.8005 233.432 50.703C233.545 50.6205 233.577 50.6184 233.692 50.6903C233.854 50.7929 234.042 50.8463 234.207 50.8883C235.168 51.1284 236.138 51.0087 237.21 50.5178C238.189 50.07 238.942 49.3622 239.61 48.6642C240.582 47.646 241.217 46.7274 241.609 45.773C241.691 45.5727 241.75 45.3656 241.811 45.1491C241.836 45.0582 241.862 44.9674 241.889 44.878C241.919 44.7821 241.867 44.6806 241.77 44.6472L241.689 44.6412C241.293 44.6412 237.758 44.6978 235.69 46.6545C235.24 47.0803 234.837 47.5327 234.469 48.0281C235.287 46.3386 235.98 44.558 236.539 42.7098L236.548 42.6827C236.554 42.6601 236.564 42.6259 236.571 42.6166L237.112 41.8923C237.132 41.8633 237.135 41.8633 237.166 41.8633C237.18 41.8633 237.196 41.8643 237.213 41.8653L237.329 41.872C237.732 41.8964 237.968 41.8929 238.163 41.8631C238.933 41.7446 239.629 41.3664 240.288 40.7067C241.831 39.1638 242.893 37.2388 243.534 34.8223C243.603 34.5635 243.622 34.302 243.643 34.0248C243.652 33.8991 243.662 33.7696 243.677 33.6358C243.683 33.5716 243.657 33.5103 243.608 33.4703Z" fill="#212121" fill-opacity="0.45"/>
</svg>
