<svg width="364" height="56" viewBox="0 0 364 56" fill="none" xmlns="http://www.w3.org/2000/svg">
<path d="M67.9395 19.333H101.939V2H67.9395V19.333Z" fill="#212121"/>
<path d="M0 2V19.333H16.9697V53.9991H33.9394V19.333H50.9697V2H0Z" fill="#212121"/>
<path d="M50.9697 53.9981H101.939V36.6651H67.9394V19.332H50.9697V53.9981Z" fill="#212121"/>
<path d="M145.272 15.0898H120.303V22.3018H128.666V44.9075H136.909V22.3018H145.272V15.0898Z" fill="#212121"/>
<path d="M154.666 22.0625C148.787 22.0625 144.424 26.0018 144.424 33.7592C144.424 40.6076 148.121 45.3954 154.848 45.3954C158.363 45.3954 161.212 44.4863 163.939 42.85L161.03 37.941C158.787 39.0925 157.212 39.5167 155.212 39.5167C153.151 39.5167 151.697 38.4258 151.394 35.941H164.545C164.606 35.5774 164.606 35.0926 164.606 34.4259C164.666 26.123 160.848 22.0625 154.666 22.0625ZM151.515 31.1532C151.757 28.9109 152.727 27.7594 154.484 27.7594C156.727 27.7594 157.515 28.9109 157.878 31.1532H151.515Z" fill="#212121"/>
<path d="M179.212 39.1531C177.151 39.1531 176.06 37.3349 176.06 33.7592C176.06 30.2442 177.03 28.2442 179.03 28.2442C180.666 28.2442 181.393 29.1533 182.484 31.1532L187.757 27.1533C185.818 24.0019 183.393 22.0625 179.151 22.0625C172 22.0625 168.484 26.7897 168.484 33.638C168.484 41.1531 172.424 45.3348 178.969 45.3348C182.909 45.3348 185.333 43.8197 187.939 40.0016L183.09 36.1834C181.636 38.3652 180.666 39.1531 179.212 39.1531Z" fill="#212121"/>
<path d="M205.636 22.0606C202.969 22.0606 201.394 22.9697 200 23.9999V13.8789L192.303 16.9698V44.9692H200V32.1816C200 29.3938 200.969 28.6059 202.606 28.6059C204.182 28.6059 205.151 29.3938 205.151 32.2422V44.9692H212.848V31.2725C212.848 25.3939 210.485 22.0606 205.636 22.0606Z" fill="#212121"/>
<path d="M231.333 38.1808C227.757 38.1808 226.302 34.5445 226.302 29.9991C226.302 25.2719 227.818 21.8175 231.272 21.8175C233.999 21.8175 235.03 23.575 236.06 26.3628L243.575 23.3932C241.515 17.7569 238.605 14.6055 231.272 14.6055C223.272 14.6055 217.636 20.4235 217.636 29.9991C217.636 38.8474 222.363 45.3928 231.211 45.3928C238.302 45.3928 241.636 41.5747 243.636 37.6959L236.666 33.9991C235.03 36.7869 233.939 38.1808 231.333 38.1808Z" fill="#212121"/>
<path d="M256 24.1837V22.5473H248.303V44.9106H256V32.729C256 30.0018 257.151 29.0927 259.03 29.0927C260.545 29.0927 261.636 29.8805 262.606 30.9714L264.424 23.0322C263.515 22.4867 262.424 22.0625 260.788 22.0625C258.788 22.0625 257.272 22.911 256 24.1837Z" fill="#212121"/>
<path d="M280.848 35.3306C280.848 38.1184 279.879 38.9063 278.303 38.9063C276.727 38.9063 275.758 38.1184 275.758 35.27V22.543H268.061V36.2397C268.061 42.1184 270.424 45.391 275.333 45.391C277.939 45.391 279.576 44.482 280.909 43.4517V44.9668H288.606V22.6036H280.909V35.3306" fill="#212121"/>
<path d="M307.454 22.0625C304.788 22.0625 303.212 22.9716 301.818 24.0019V22.4867H294.121V44.85H301.818V32.0623C301.818 29.2745 302.788 28.4866 304.424 28.4866C306 28.4866 306.97 29.2745 306.97 32.1229V44.85H314.667V31.1532C314.667 25.3958 312.364 22.0625 307.454 22.0625Z" fill="#212121"/>
<path d="M329.939 39.1531C327.879 39.1531 326.788 37.3349 326.788 33.7592C326.788 30.2442 327.757 28.2442 329.697 28.2442C331.333 28.2442 332.06 29.1533 333.151 31.1532L338.424 27.1533C336.485 24.0019 334.06 22.0625 329.818 22.0625C322.667 22.0625 319.151 26.7897 319.151 33.638C319.151 41.1531 323.091 45.3348 329.636 45.3348C333.576 45.3348 336 43.8197 338.606 40.0016L333.757 36.1834C332.424 38.3652 331.394 39.1531 329.939 39.1531Z" fill="#212121"/>
<path d="M356.364 22.0606C353.697 22.0606 352.121 22.9697 350.727 23.9999V13.8789L343.03 16.9698V44.9692H350.727V32.1816C350.727 29.3938 351.697 28.6059 353.333 28.6059C354.909 28.6059 355.879 29.3938 355.879 32.2422V44.9692H363.576V31.2725C363.636 25.3939 361.273 22.0606 356.364 22.0606Z" fill="#212121"/>
</svg>
