<svg width="350" height="56" viewBox="0 0 350 56" fill="none" xmlns="http://www.w3.org/2000/svg">
<path d="M65.3262 19.6667H98.0185V3H65.3262V19.6667Z" fill="#212121"/>
<path d="M0 3V19.6667H16.317V53H32.634V19.6667H49.0093V3H0Z" fill="#212121"/>
<path d="M49.0088 53.0013H98.0181V36.3346H65.3258V19.668H49.0088V53.0013Z" fill="#212121"/>
<path d="M139.685 15.5859H115.676V22.5207H123.718V44.2573H131.643V22.5207H139.685V15.5859Z" fill="#212121"/>
<path d="M148.718 22.293C143.065 22.293 138.869 26.0808 138.869 33.54C138.869 40.1251 142.424 44.7289 148.892 44.7289C152.272 44.7289 155.011 43.8547 157.634 42.2813L154.837 37.561C152.68 38.6683 151.165 39.0762 149.242 39.0762C147.261 39.0762 145.862 38.0272 145.571 35.6379H158.216C158.275 35.2883 158.275 34.8221 158.275 34.1811C158.333 26.1974 154.662 22.293 148.718 22.293ZM145.687 31.0342C145.92 28.878 146.853 27.7708 148.543 27.7708C150.699 27.7708 151.457 28.878 151.806 31.0342H145.687Z" fill="#212121"/>
<path d="M172.32 38.7265C170.338 38.7265 169.289 36.9783 169.289 33.54C169.289 30.1601 170.222 28.237 172.145 28.237C173.718 28.237 174.417 29.1111 175.466 31.0342L180.536 27.1881C178.672 24.1578 176.341 22.293 172.261 22.293C165.385 22.293 162.005 26.8384 162.005 33.4235C162.005 40.6496 165.793 44.6706 172.086 44.6706C175.874 44.6706 178.205 43.2137 180.711 39.5424L176.049 35.871C174.651 37.969 173.718 38.7265 172.32 38.7265Z" fill="#212121"/>
<path d="M197.727 22.289C195.163 22.289 193.648 23.1631 192.307 24.1538V14.4219L184.906 17.3939V44.317H192.307V32.0209C192.307 29.3403 193.24 28.5827 194.813 28.5827C196.328 28.5827 197.261 29.3403 197.261 32.0792V44.317H204.662V31.1468C204.662 25.4941 202.389 22.289 197.727 22.289Z" fill="#212121"/>
<path d="M222.435 37.7901C218.997 37.7901 217.598 34.2936 217.598 29.923C217.598 25.3775 219.055 22.0558 222.377 22.0558C224.999 22.0558 225.99 23.7458 226.98 26.4264L234.206 23.571C232.225 18.1514 229.428 15.1211 222.377 15.1211C214.684 15.1211 209.265 20.7155 209.265 29.923C209.265 38.4311 213.81 44.7248 222.318 44.7248C229.136 44.7248 232.342 41.0535 234.265 37.3239L227.563 33.7691C225.99 36.4498 224.941 37.7901 222.435 37.7901Z" fill="#212121"/>
<path d="M246.153 24.3326V22.7592H238.752V44.2627H246.153V32.5494C246.153 29.927 247.26 29.0529 249.067 29.0529C250.524 29.0529 251.572 29.8105 252.505 30.8594L254.253 23.2254C253.379 22.7009 252.33 22.293 250.757 22.293C248.834 22.293 247.377 23.1088 246.153 24.3326Z" fill="#212121"/>
<path d="M270.046 35.046C270.046 37.7267 269.114 38.4843 267.598 38.4843C266.083 38.4843 265.151 37.7267 265.151 34.9878V22.75H257.75V35.9202C257.75 41.5728 260.023 44.7197 264.743 44.7197C267.249 44.7197 268.822 43.8456 270.104 42.8549V44.3118H277.505V22.8083H270.104V35.046" fill="#212121"/>
<path d="M295.629 22.293C293.065 22.293 291.55 23.1671 290.21 24.1578V22.7009H282.809V44.2044H290.21V31.9084C290.21 29.2277 291.142 28.4701 292.715 28.4701C294.23 28.4701 295.163 29.2277 295.163 31.9666V44.2044H302.564V31.0342C302.564 25.4981 300.349 22.293 295.629 22.293Z" fill="#212121"/>
<path d="M317.25 38.7265C315.269 38.7265 314.22 36.9783 314.22 33.54C314.22 30.1601 315.152 28.237 317.017 28.237C318.59 28.237 319.29 29.1111 320.339 31.0342L325.408 27.1881C323.544 24.1578 321.213 22.293 317.133 22.293C310.257 22.293 306.877 26.8384 306.877 33.4235C306.877 40.6496 310.665 44.6706 316.959 44.6706C320.746 44.6706 323.077 43.2137 325.583 39.5424L320.921 35.871C319.639 37.969 318.649 38.7265 317.25 38.7265Z" fill="#212121"/>
<path d="M342.657 22.289C340.093 22.289 338.578 23.1631 337.238 24.1538V14.4219L329.837 17.3939V44.317H337.238V32.0209C337.238 29.3403 338.17 28.5827 339.744 28.5827C341.259 28.5827 342.191 29.3403 342.191 32.0792V44.317H349.592V31.1468C349.65 25.4941 347.378 22.289 342.657 22.289Z" fill="#212121"/>
</svg>
