<svg width="142" height="56" viewBox="0 0 142 56" fill="none" xmlns="http://www.w3.org/2000/svg">
<path d="M67.7599 6C67.7599 6 66.1724 6.04409 65.2374 6.02205C65.1939 6.41884 64.759 9.98998 64.3675 12.8557C63.9326 15.523 60.4316 35.2305 59.2355 41.1162C58.9311 42.9018 57.9525 47.9279 57.8655 48.4349C56.7565 48.5671 55.43 48.6994 54.5819 48.7214C54.4732 48.7214 54.2775 48.7655 54.1905 48.7655V49.7796C54.2992 49.7796 54.8429 49.8236 55.256 49.8016C56.1911 49.7796 58.8876 49.6473 59.3877 49.6473C61.3231 49.6473 62.6061 49.7796 64.3893 49.8236C64.411 49.8236 64.9112 49.8236 65.1286 49.8016V48.7655C64.9764 48.7655 64.7807 48.7655 64.672 48.7655C63.5629 48.7435 62.4757 48.6553 61.3666 48.501C61.4753 47.8176 63.128 37.6112 63.9109 33.5331C65.4113 25.9719 66.4551 20.6152 66.4551 20.6152L66.7378 21.2766L78.5675 49.8457L80.7204 49.8677C80.7204 49.8677 81.9599 46.7816 83.4168 43.2986C83.4603 43.2104 83.5691 42.9679 83.6995 42.6152C85.2435 39.022 92.8545 20.7255 92.8545 20.7255C92.8545 20.7255 92.9198 21.0561 93.0502 21.6513C93.7678 25.2445 96.2251 38.1623 96.747 41.2705C96.9862 42.8798 97.2254 44.511 97.3559 45.4589C97.5516 46.8036 97.6821 48.1263 97.6821 48.501C97.4429 48.523 95.0291 48.7435 94.1158 48.7655C93.9853 48.7655 93.7461 48.7655 93.7243 48.7655V49.8016C94.0505 49.8016 94.3767 49.8236 94.6812 49.8016C96.5513 49.7575 98.3344 49.6252 100.205 49.6252C102.292 49.6252 105.685 49.8016 107.859 49.8236C108.098 49.8236 108.533 49.8016 108.533 49.8016V48.7876C108.403 48.7876 107.859 48.7655 107.663 48.7435C106.685 48.6553 105.054 48.501 104.641 48.479C104.641 48.479 104.38 46.98 104.01 45.2164C102.597 38.2505 98.5519 17.0441 97.9213 11.8417C97.7038 10.0561 97.1167 6.02205 97.1167 6.02205H94.6812C94.6812 6.02205 93.4417 9.63728 92.3109 12.9218C91.528 15.1703 90.4842 17.9479 89.6796 20.0862C85.7219 30.6232 81.2857 40.4329 81.2857 40.4329C81.2857 40.4329 71.8698 17.6393 71.3697 16.3166C70.8478 15.016 67.7599 6 67.7599 6ZM0.0217455 6.02205L0.0434909 8.42485L0 14.2886L0.630627 14.2665L0.695865 9.04208C0.695865 9.04208 4.1317 9.02004 4.58836 9.02004H11.0034L15.1351 9.04208V45.3266V48.4569L15.0481 48.479C14.5044 48.523 12.3734 48.6553 11.5253 48.6774C11.3296 48.6774 11.1991 48.6994 11.1991 48.6774V49.7355C11.3513 49.7355 11.7645 49.7575 11.8297 49.7575C13.8738 49.7355 16.6138 49.5591 18.5709 49.5591C20.5498 49.5591 23.355 49.7575 25.0729 49.7796C25.2469 49.7796 25.4426 49.7575 25.6165 49.7575V48.7876H25.3991C24.8554 48.7876 21.811 48.5892 21.4848 48.5451C21.4631 48.0601 21.4196 45.7014 21.4196 45.6573L21.4413 9.06413H24.5945H32.8144L35.5544 9.10822C35.5761 9.30661 35.7066 11.9519 35.7066 12.018C35.7066 12.2164 35.8153 14.1784 35.8153 14.6633H36.4677L36.4242 8.73347L36.4459 6.06613C34.0322 6.13227 27.8781 6.22044 18.3317 6.22044C10.09 6.1984 2.19632 6.11022 0.0217455 6.02205ZM38.2726 6.02205V7.05812C38.5988 7.08016 40.5124 7.25651 40.9691 7.27856C41.3387 7.32265 41.8606 7.36674 42.2303 7.41082C42.2303 7.74148 42.2303 10.0341 42.2521 10.9379C42.3173 19.5351 42.2521 38.515 42.2303 45.2385C42.2303 47.1784 42.2086 48.4349 42.2086 48.4349C41.7737 48.523 41.317 48.5671 40.8821 48.5671C40.4037 48.6112 38.664 48.7435 38.2726 48.7655V49.8016C38.4248 49.8016 38.7292 49.8457 38.9032 49.8457C40.8821 49.8457 43.6221 49.6032 45.6444 49.6032C47.6885 49.6032 50.4067 49.8457 52.0159 49.8677C52.1464 49.8677 52.4943 49.8236 52.6248 49.8236V48.7876H52.4943C52.4291 48.7655 50.3632 48.6774 49.8631 48.6333C49.3847 48.6112 48.9063 48.5451 48.4496 48.479C48.4496 48.4569 48.4496 48.1483 48.4496 47.6192C48.4496 47.1343 48.4496 46.3186 48.4496 45.4148C48.4496 38.6473 48.4714 18.521 48.4714 10.8277C48.4714 9.3507 48.4714 8.13828 48.4714 7.47696C48.928 7.45491 50.7329 7.25651 51.3853 7.19038C51.407 7.19038 52.2769 7.14629 52.6248 7.12425V6.04409C50.385 6.04409 47.4493 6.22044 45.2747 6.22044C42.9697 6.22044 40.1645 6.02205 38.2726 6.02205ZM141.543 6.06613H140.869C139.369 6.06613 135.563 6.11022 131.084 6.13227C128.344 6.15431 126.191 6.17635 123.364 6.17635C121.385 6.1984 118.602 6.28658 116.905 6.26453C114.165 6.26453 111.947 6.08818 110.73 6.08818C110.164 6.08818 109.838 6.11022 109.664 6.08818C109.664 6.11022 109.664 7.12425 109.664 7.12425C109.838 7.14629 110.012 7.16834 110.186 7.16834C110.882 7.21243 112.165 7.32265 112.817 7.41082C112.948 7.43287 113.165 7.47695 113.774 7.54309C113.774 7.76353 113.796 10.3868 113.796 11.9519C113.796 13.4068 113.774 45.7455 113.774 45.7455C113.774 45.7896 113.709 48.3467 113.709 48.5451C112.426 48.7214 111.121 48.8317 109.838 48.8537H109.621V49.8898C109.729 49.8898 110.186 49.9118 110.447 49.9118C111.599 49.9118 114.557 49.7355 117.558 49.7355C119.667 49.7355 121.994 49.8236 124.364 49.8457C127.256 49.8898 130.214 49.8898 132.845 49.9339C137.194 50 140.717 50 141.87 50C141.87 50 142 41.8216 142 41.1603H141.369C141.369 41.8657 141.108 44.4449 141.108 44.5551C141.021 45.525 140.934 46.5611 140.869 47.0461C140.869 47.0461 140.565 47.0681 140.413 47.0681C139.695 47.0461 137.412 47.1343 137.368 47.1343H127.191L120.037 47.002L119.993 44.996V29.3667C121.276 29.3226 123.212 29.2565 124.408 29.2565C125.408 29.2565 127.8 29.1904 129.126 29.2124C132.345 29.2124 135.215 29.2345 135.455 29.2565C135.976 29.2786 136.977 29.3006 137.346 29.3226C137.368 29.4549 137.412 29.6754 137.412 29.7415C137.607 30.9319 137.716 31.7695 137.847 32.9379C137.868 33.0481 137.868 33.1363 137.89 33.2465H138.629C138.629 33.2465 138.651 32.8277 138.629 32.5631C138.608 31.6373 138.564 29.8076 138.564 27.7796C138.564 26.3687 138.651 24.2084 138.651 23.1723C138.651 22.8858 138.629 22.6874 138.629 22.6212L137.955 22.6433C137.955 22.8196 137.934 23.018 137.89 23.1944C137.825 23.9659 137.607 24.9579 137.433 25.994C137.39 26.1042 137.368 26.1924 137.346 26.3026C137.259 26.3246 135.172 26.4349 134.976 26.4349C134.911 26.4349 131.845 26.523 131.779 26.523L119.993 26.479L120.015 9.26253C120.015 9.26253 121.515 9.21844 121.929 9.21844C123.625 9.21844 126.387 9.19639 129.213 9.19639C133.345 9.19639 137.346 9.21844 137.346 9.24048C137.368 9.26253 138.586 9.26253 138.608 9.28457C138.629 9.30662 140.152 9.3507 140.543 9.37275C140.543 9.37275 140.565 9.50501 140.587 9.65932C140.76 11.4669 140.891 13.6273 140.956 14.3988V14.7074H141.587C141.587 13.5832 141.522 10.1663 141.522 7.98397C141.522 7.27856 141.522 6.70541 141.522 6.39679L141.543 6.06613Z" fill="#212121"/>
</svg>
