<svg width="168" height="56" viewBox="0 0 168 56" fill="none" xmlns="http://www.w3.org/2000/svg">
<path d="M80.1666 2C80.1666 2 78.2885 2.05211 77.1822 2.02605C77.1308 2.49499 76.6162 6.71543 76.1531 10.1022C75.6386 13.2545 71.4965 36.5451 70.0815 43.501C69.7213 45.6112 68.5635 51.5511 68.4606 52.1503C67.1485 52.3066 65.5792 52.4629 64.5758 52.489C64.4472 52.489 64.2156 52.5411 64.1127 52.5411V53.7395C64.2413 53.7395 64.8845 53.7916 65.3734 53.7655C66.4796 53.7395 69.6698 53.5832 70.2616 53.5832C72.5513 53.5832 74.0692 53.7395 76.1789 53.7916C76.2046 53.7916 76.7963 53.7916 77.0536 53.7655V52.5411C76.8735 52.5411 76.642 52.5411 76.5133 52.5411C75.2012 52.515 73.9149 52.4108 72.6028 52.2285C72.7314 51.4208 74.6867 39.3587 75.6129 34.5391C77.3881 25.6032 78.623 19.2726 78.623 19.2726L78.9574 20.0541L92.9531 53.8176L95.5002 53.8437C95.5002 53.8437 96.9666 50.1964 98.6903 46.0802C98.7418 45.976 98.8704 45.6894 99.0248 45.2725C100.851 41.0261 109.856 19.4028 109.856 19.4028C109.856 19.4028 109.933 19.7936 110.088 20.497C110.937 24.7435 113.844 40.01 114.461 43.6834C114.744 45.5852 115.027 47.513 115.182 48.6333C115.413 50.2224 115.568 51.7856 115.568 52.2285C115.285 52.2545 112.429 52.515 111.348 52.5411C111.194 52.5411 110.911 52.5411 110.885 52.5411V53.7655C111.271 53.7655 111.657 53.7916 112.017 53.7655C114.23 53.7134 116.339 53.5571 118.552 53.5571C121.022 53.5571 125.035 53.7655 127.608 53.7916C127.891 53.7916 128.406 53.7655 128.406 53.7655V52.5671C128.251 52.5671 127.608 52.5411 127.376 52.515C126.219 52.4108 124.289 52.2285 123.8 52.2024C123.8 52.2024 123.492 50.4309 123.054 48.3467C121.382 40.1142 116.597 15.0521 115.851 8.90381C115.593 6.79359 114.899 2.02605 114.899 2.02605H112.017C112.017 2.02605 110.551 6.2986 109.213 10.1804C108.287 12.8377 107.052 16.1202 106.1 18.6473C101.417 31.1002 96.1691 42.6934 96.1691 42.6934C96.1691 42.6934 85.0291 15.7555 84.4374 14.1924C83.8199 12.6553 80.1666 2 80.1666 2ZM0.025727 2.02605L0.051454 4.86573L0 11.7956L0.746093 11.7695L0.823276 5.59519C0.823276 5.59519 4.88821 5.56914 5.42848 5.56914H13.0181L17.9063 5.59519V48.477V52.1764L17.8034 52.2024C17.1602 52.2545 14.6389 52.4108 13.6355 52.4369C13.404 52.4369 13.2496 52.4629 13.2496 52.4369V53.6874C13.4297 53.6874 13.9185 53.7134 13.9957 53.7134C16.4141 53.6874 19.6557 53.479 21.9712 53.479C24.3124 53.479 27.6312 53.7134 29.6637 53.7395C29.8695 53.7395 30.1011 53.7134 30.3069 53.7134V52.5671H30.0496C29.4064 52.5671 25.8046 52.3327 25.4187 52.2806C25.393 51.7074 25.3415 48.9198 25.3415 48.8677L25.3672 5.62124H29.0977H38.8227L42.0643 5.67335C42.09 5.90782 42.2444 9.03407 42.2444 9.11223C42.2444 9.34669 42.373 11.6653 42.373 12.2385H43.1449L43.0934 5.23046L43.1191 2.07816C40.2634 2.15631 32.9825 2.26052 21.6882 2.26052C11.9375 2.23447 2.59847 2.13026 0.025727 2.02605ZM45.2802 2.02605V3.2505C45.6662 3.27655 47.9302 3.48497 48.4704 3.51102C48.9078 3.56313 49.5253 3.61523 49.9626 3.66734C49.9626 4.05812 49.9626 6.76754 49.9884 7.83567C50.0655 17.996 49.9884 40.4269 49.9626 48.3727C49.9626 50.6653 49.9369 52.1503 49.9369 52.1503C49.4224 52.2545 48.8821 52.3066 48.3675 52.3066C47.8015 52.3587 45.7433 52.515 45.2802 52.5411V53.7655C45.4603 53.7655 45.8205 53.8176 46.0263 53.8176C48.3675 53.8176 51.6092 53.5311 54.0018 53.5311C56.4202 53.5311 59.6361 53.8176 61.54 53.8437C61.6943 53.8437 62.106 53.7916 62.2603 53.7916V52.5671H62.106C62.0288 52.5411 59.5847 52.4369 58.993 52.3848C58.427 52.3587 57.861 52.2806 57.3207 52.2024C57.3207 52.1764 57.3207 51.8116 57.3207 51.1864C57.3207 50.6132 57.3207 49.6493 57.3207 48.5812C57.3207 40.5832 57.3464 16.7976 57.3464 7.70541C57.3464 5.95992 57.3464 4.52706 57.3464 3.74549C57.8867 3.71944 60.0221 3.48497 60.7939 3.40682C60.8196 3.40682 61.8487 3.35471 62.2603 3.32866V2.05211C59.6104 2.05211 56.1372 2.26052 53.5645 2.26052C50.8374 2.26052 47.5185 2.02605 45.2802 2.02605ZM167.46 2.07816H166.662C164.887 2.07816 160.385 2.13026 155.085 2.15631C151.843 2.18237 149.296 2.20842 145.952 2.20842C143.61 2.23447 140.317 2.33868 138.311 2.31263C135.069 2.31263 132.445 2.10421 131.004 2.10421C130.335 2.10421 129.949 2.13026 129.743 2.10421C129.743 2.13026 129.743 3.32866 129.743 3.32866C129.949 3.35471 130.155 3.38076 130.361 3.38076C131.184 3.43287 132.702 3.56313 133.474 3.66734C133.628 3.69339 133.885 3.74549 134.606 3.82365C134.606 4.08417 134.632 7.18437 134.632 9.03407C134.632 10.7535 134.606 48.9719 134.606 48.9719C134.606 49.0241 134.529 52.0461 134.529 52.2806C133.011 52.489 131.467 52.6192 129.949 52.6453H129.692V53.8697C129.821 53.8697 130.361 53.8958 130.67 53.8958C132.033 53.8958 135.532 53.6874 139.082 53.6874C141.578 53.6874 144.331 53.7916 147.135 53.8176C150.557 53.8697 154.056 53.8697 157.169 53.9219C162.314 54 166.482 54 167.846 54C167.846 54 168 44.3347 168 43.5531H167.254C167.254 44.3868 166.945 47.4349 166.945 47.5651C166.842 48.7114 166.739 49.9359 166.662 50.509C166.662 50.509 166.302 50.5351 166.122 50.5351C165.273 50.509 162.572 50.6132 162.52 50.6132H150.48L142.015 50.4569L141.964 48.0862V29.6152C143.482 29.5631 145.772 29.485 147.187 29.485C148.37 29.485 151.2 29.4068 152.769 29.4329C156.577 29.4329 159.973 29.4589 160.256 29.485C160.874 29.511 162.057 29.5371 162.494 29.5631C162.52 29.7194 162.572 29.98 162.572 30.0581C162.803 31.4649 162.932 32.4549 163.086 33.8357C163.112 33.9659 163.112 34.0701 163.138 34.2004H164.012C164.012 34.2004 164.038 33.7054 164.012 33.3928C163.987 32.2986 163.935 30.1363 163.935 27.7395C163.935 26.0722 164.038 23.519 164.038 22.2946C164.038 21.9559 164.012 21.7214 164.012 21.6433L163.215 21.6693C163.215 21.8778 163.189 22.1122 163.138 22.3206C163.06 23.2325 162.803 24.4048 162.597 25.6293C162.546 25.7595 162.52 25.8637 162.494 25.994C162.391 26.02 159.922 26.1503 159.69 26.1503C159.613 26.1503 155.985 26.2545 155.908 26.2545L141.964 26.2024L141.99 5.85571C141.99 5.85571 143.765 5.80361 144.254 5.80361C146.26 5.80361 149.528 5.77756 152.872 5.77756C157.76 5.77756 162.494 5.80361 162.494 5.82966C162.52 5.85571 163.961 5.85571 163.987 5.88177C164.012 5.90782 165.813 5.95992 166.276 5.98597C166.276 5.98597 166.302 6.14229 166.328 6.32465C166.534 8.46092 166.688 11.014 166.765 11.9259V12.2906H167.511C167.511 10.9619 167.434 6.92385 167.434 4.34469C167.434 3.51102 167.434 2.83367 167.434 2.46894L167.46 2.07816Z" fill="#212121"/>
</svg>
